STARTFONT 2.1
COMMENT
COMMENT Converted from OpenType font "Consola.ttf" by "otf2bdf 3.0".
COMMENT
FONT -FreeType-Consolas-Medium-R-Normal--39-280-100-100-P-163-ISO10646-1
SIZE 28 100 100
FONTBOUNDINGBOX 26 44 -3 -8
STARTPROPERTIES 19
FOUNDRY "FreeType"
FAMILY_NAME "Consolas"
WEIGHT_NAME "Medium"
SLANT "R"
SETWIDTH_NAME "Normal"
ADD_STYLE_NAME ""
PIXEL_SIZE 39
POINT_SIZE 280
RESOLUTION_X 100
RESOLUTION_Y 100
SPACING "P"
AVERAGE_WIDTH 163
CHARSET_REGISTRY "ISO10646"
CHARSET_ENCODING "1"
FONT_ASCENT 28
FONT_DESCENT 10
COPYRIGHT "© 2005 Microsoft Corporation. All Rights Reserved."
_OTF_FONTFILE "Consola.ttf"
_OTF_PSNAME "Consolas"
ENDPROPERTIES
CHARS 598
STARTCHAR 0020
ENCODING 32
SWIDTH 540 0
DWIDTH 21 0
BBX 0 0 0 0
BITMAP
ENDCHAR
STARTCHAR 0021
ENCODING 33
SWIDTH 540 0
DWIDTH 21 0
BBX 5 26 8 0
BITMAP
70
70
70
70
70
70
70
70
70
70
70
70
70
70
70
70
70
70
70
00
00
70
F8
F8
F8
70
ENDCHAR
STARTCHAR 0022
ENCODING 34
SWIDTH 540 0
DWIDTH 21 0
BBX 11 9 5 17
BITMAP
E0E0
E0E0
E0E0
E0E0
E0E0
E0E0
E0E0
E0E0
E0E0
ENDCHAR
STARTCHAR 0023
ENCODING 35
SWIDTH 540 0
DWIDTH 21 0
BBX 19 24 1 0
BITMAP
030700
030700
070600
070600
070600
070E00
7FFFE0
7FFFE0
070E00
060E00
060E00
0E0E00
0E0C00
0E0C00
FFFFC0
FFFFC0
FFFFC0
0E1C00
0C1C00
0C1C00
0C1C00
1C1C00
1C1800
1C1800
ENDCHAR
STARTCHAR 0024
ENCODING 36
SWIDTH 540 0
DWIDTH 21 0
BBX 16 32 2 -5
BITMAP
0060
0060
00E0
00E0
07FC
1FFE
3FFE
78E0
F0C0
E1C0
E1C0
F1C0
F9C0
7FC0
3FC0
1FF0
03F8
03FE
03BE
038F
0387
0387
0307
030F
871F
FFFE
FFFC
7FE0
0700
0700
0600
0E00
ENDCHAR
STARTCHAR 0025
ENCODING 37
SWIDTH 540 0
DWIDTH 21 0
BBX 20 26 1 0
BITMAP
1F00F0
7F80E0
7FC1E0
F1C3C0
E1C380
E1C780
E1CF00
F3CE00
7F9E00
7FBC00
0C3800
007800
00F000
00E000
01E000
01CF80
03FFE0
07BFE0
0778F0
0F7070
1E7070
1C7070
3C78F0
787FE0
703FC0
F00F80
ENDCHAR
STARTCHAR 0026
ENCODING 38
SWIDTH 540 0
DWIDTH 21 0
BBX 20 26 1 0
BITMAP
03F000
0FF800
1FFC00
1C1E00
3C1E00
380E00
380E00
3C1E00
3C3C00
1E7800
1FF000
0FE000
0F8000
3FC1C0
7DE1C0
71F1C0
F0F9C0
E07FC0
E03FC0
E01F80
F00F80
F00F80
781FC0
7FFFC0
3FF9E0
0FE0F0
ENDCHAR
STARTCHAR 0027
ENCODING 39
SWIDTH 540 0
DWIDTH 21 0
BBX 3 9 9 17
BITMAP
E0
E0
E0
E0
E0
E0
E0
E0
E0
ENDCHAR
STARTCHAR 0028
ENCODING 40
SWIDTH 540 0
DWIDTH 21 0
BBX 10 36 6 -8
BITMAP
0080
01C0
03C0
0380
0700
0F00
1E00
1C00
3C00
3800
7800
7000
7000
7000
F000
E000
E000
E000
E000
E000
E000
F000
F000
7000
7000
7800
3800
3C00
1C00
1E00
0F00
0700
0780
03C0
01C0
0080
ENDCHAR
STARTCHAR 0029
ENCODING 41
SWIDTH 540 0
DWIDTH 21 0
BBX 10 35 5 -7
BITMAP
6000
F000
7800
3C00
1C00
1E00
0F00
0700
0780
0780
0380
03C0
03C0
01C0
01C0
01C0
01C0
01C0
01C0
01C0
01C0
01C0
03C0
0380
0380
0780
0700
0F00
1E00
1C00
3C00
7800
F000
E000
4000
ENDCHAR
STARTCHAR 002A
ENCODING 42
SWIDTH 540 0
DWIDTH 21 0
BBX 14 16 3 10
BITMAP
0300
0300
0300
430C
E31C
7B7C
3FF0
0FC0
0FC0
3FF0
FB3C
E31C
430C
0300
0300
0300
ENDCHAR
STARTCHAR 002B
ENCODING 43
SWIDTH 540 0
DWIDTH 21 0
BBX 18 18 2 1
BITMAP
01C000
01C000
01C000
01C000
01C000
01C000
01C000
01C000
FFFFC0
FFFFC0
FFFFC0
01C000
01C000
01C000
01C000
01C000
01C000
01C000
ENDCHAR
STARTCHAR 002C
ENCODING 44
SWIDTH 540 0
DWIDTH 21 0
BBX 9 12 4 -6
BITMAP
0E00
1F00
1F80
1F80
0F80
0780
0780
0700
1F00
FE00
FC00
E000
ENDCHAR
STARTCHAR 002D
ENCODING 45
SWIDTH 540 0
DWIDTH 21 0
BBX 11 3 5 9
BITMAP
FFE0
FFE0
FFE0
ENDCHAR
STARTCHAR 002E
ENCODING 46
SWIDTH 540 0
DWIDTH 21 0
BBX 6 6 7 0
BITMAP
78
FC
FC
FC
FC
78
ENDCHAR
STARTCHAR 002F
ENCODING 47
SWIDTH 540 0
DWIDTH 21 0
BBX 16 30 2 -4
BITMAP
0007
000E
000E
001E
001C
001C
0038
0038
0070
0070
00F0
00E0
00E0
01C0
01C0
0380
0380
0780
0700
0700
0E00
0E00
1C00
1C00
3C00
3800
3800
7000
7000
E000
ENDCHAR
STARTCHAR 0030
ENCODING 48
SWIDTH 540 0
DWIDTH 21 0
BBX 18 24 2 0
BITMAP
03F000
0FFC00
1FFE00
3C0F00
380780
780780
700380
F007C0
F01FC0
E03FC0
E07DC0
E1F1C0
E3E1C0
EF81C0
FF01C0
FC03C0
F803C0
700380
780780
780700
3C0F00
1FFE00
0FFC00
03F000
ENDCHAR
STARTCHAR 0031
ENCODING 49
SWIDTH 540 0
DWIDTH 21 0
BBX 16 24 2 0
BITMAP
01E0
07E0
1FE0
7FE0
FCE0
70E0
40E0
00E0
00E0
00E0
00E0
00E0
00E0
00E0
00E0
00E0
00E0
00E0
00E0
00E0
00E0
7FFF
7FFF
7FFF
ENDCHAR
STARTCHAR 0032
ENCODING 50
SWIDTH 540 0
DWIDTH 21 0
BBX 16 24 3 0
BITMAP
0FC0
3FF0
7FF8
F07C
603C
001C
001C
001C
001C
001C
003C
0038
0070
00F0
01E0
03C0
0780
0F00
1E00
3C00
7800
FFFF
FFFF
FFFF
ENDCHAR
STARTCHAR 0033
ENCODING 51
SWIDTH 540 0
DWIDTH 21 0
BBX 15 24 3 0
BITMAP
3FC0
7FF0
7FF8
003C
001C
001C
001C
001C
0038
0078
1FE0
1FF0
1FF8
003C
001E
000E
000E
000E
000E
001E
003C
FFF8
FFF0
FF80
ENDCHAR
STARTCHAR 0034
ENCODING 52
SWIDTH 540 0
DWIDTH 21 0
BBX 19 24 1 0
BITMAP
003E00
007E00
007E00
00EE00
01EE00
01CE00
038E00
078E00
070E00
0F0E00
0E0E00
1C0E00
3C0E00
380E00
700E00
F00E00
FFFFE0
FFFFE0
FFFFE0
000E00
000E00
000E00
000E00
000E00
ENDCHAR
STARTCHAR 0035
ENCODING 53
SWIDTH 540 0
DWIDTH 21 0
BBX 14 24 3 0
BITMAP
FFF8
FFF8
FFF8
E000
E000
E000
E000
E000
E000
FF80
FFF0
FFF8
007C
003C
001C
001C
001C
001C
003C
0038
00F8
FFF0
FFC0
FF00
ENDCHAR
STARTCHAR 0036
ENCODING 54
SWIDTH 540 0
DWIDTH 21 0
BBX 17 24 2 0
BITMAP
00FE00
03FE00
0FFE00
1F0000
3C0000
380000
700000
700000
700000
E3F800
FFFE00
FFFF00
F80F00
E00780
E00780
E00380
F00380
F00380
700780
780700
7C0F00
3FFE00
1FFC00
07F000
ENDCHAR
STARTCHAR 0037
ENCODING 55
SWIDTH 540 0
DWIDTH 21 0
BBX 16 24 2 0
BITMAP
FFFF
FFFF
FFFF
000F
000E
001E
001C
003C
0038
0078
0070
0070
00E0
00E0
01E0
01C0
03C0
0380
0780
0700
0F00
0E00
1E00
1C00
ENDCHAR
STARTCHAR 0038
ENCODING 56
SWIDTH 540 0
DWIDTH 21 0
BBX 16 24 2 0
BITMAP
07F0
1FFC
3FFE
780F
700F
7007
7007
780F
7C1E
3E3C
1FF8
07E0
0FF8
3E7C
781E
700F
F007
E007
E007
F007
F80F
7FFE
3FFC
0FF0
ENDCHAR
STARTCHAR 0039
ENCODING 57
SWIDTH 540 0
DWIDTH 21 0
BBX 17 24 2 0
BITMAP
07F000
1FFC00
3FFE00
781E00
700F00
F00700
E00780
E00780
E00380
F00380
F00380
7C1F80
3FFF80
1FFB80
078380
000700
000700
000700
000E00
001E00
007C00
7FF800
7FE000
7F0000
ENDCHAR
STARTCHAR 003A
ENCODING 58
SWIDTH 540 0
DWIDTH 21 0
BBX 6 19 8 0
BITMAP
78
FC
FC
FC
FC
78
00
00
00
00
00
00
00
78
FC
FC
FC
FC
78
ENDCHAR
STARTCHAR 003B
ENCODING 59
SWIDTH 540 0
DWIDTH 21 0
BBX 9 26 5 -7
BITMAP
0F00
1F80
1F80
1F80
1F80
0F00
0000
0000
0000
0000
0000
0000
0000
0E00
1F00
1F80
1F80
0F80
0780
0780
0700
0F00
1E00
FE00
F800
C000
ENDCHAR
STARTCHAR 003C
ENCODING 60
SWIDTH 540 0
DWIDTH 21 0
BBX 14 20 3 0
BITMAP
0018
003C
00F8
01F0
03C0
0780
0F00
3E00
7C00
F000
F800
3C00
1E00
0F00
07C0
03E0
00F0
0078
003C
0018
ENDCHAR
STARTCHAR 003D
ENCODING 61
SWIDTH 540 0
DWIDTH 21 0
BBX 16 9 2 6
BITMAP
FFFF
FFFF
FFFF
0000
0000
0000
FFFF
FFFF
FFFF
ENDCHAR
STARTCHAR 003E
ENCODING 62
SWIDTH 540 0
DWIDTH 21 0
BBX 14 20 4 0
BITMAP
6000
F000
7C00
3E00
0F00
0780
03C0
01F0
00F8
003C
007C
00F0
01E0
03C0
0F80
1F00
3C00
7800
F000
6000
ENDCHAR
STARTCHAR 003F
ENCODING 63
SWIDTH 540 0
DWIDTH 21 0
BBX 11 26 6 0
BITMAP
F000
FE00
FF80
07C0
03C0
01E0
00E0
00E0
00E0
00E0
01E0
3FC0
3F80
3800
3800
3800
3800
3800
0000
0000
0000
3800
7C00
7C00
7C00
3800
ENDCHAR
STARTCHAR 0040
ENCODING 64
SWIDTH 540 0
DWIDTH 21 0
BBX 21 34 0 -8
BITMAP
007E00
01FF80
03FFC0
0781E0
0F00E0
1E0070
1C0070
3C0070
380030
387B38
70FF38
71FF38
73CF38
638E38
E38E38
E78E38
E70E38
E70E38
E71E30
E71C70
E71C70
E7BC70
E7FFE0
E3EFC0
E1C780
E00000
700000
700000
780000
380000
3E0300
1FFF00
0FFF00
03F800
ENDCHAR
STARTCHAR 0041
ENCODING 65
SWIDTH 540 0
DWIDTH 21 0
BBX 21 24 0 0
BITMAP
00F800
00F800
01FC00
01DC00
01DC00
03DE00
038E00
038E00
078F00
070F00
070700
0F0780
0E0780
0E0380
1E03C0
1C03C0
1FFFC0
3FFFE0
3FFFE0
3800E0
7800F0
7800F0
700070
F00078
ENDCHAR
STARTCHAR 0042
ENCODING 66
SWIDTH 540 0
DWIDTH 21 0
BBX 16 24 3 0
BITMAP
FFE0
FFF8
FFFC
E03E
E01E
E00E
E00E
E01E
E01C
E07C
FFF0
FFF8
FFFC
E01E
E00F
E00F
E007
E007
E00F
E00E
E01E
FFFC
FFF8
FFC0
ENDCHAR
STARTCHAR 0043
ENCODING 67
SWIDTH 540 0
DWIDTH 21 0
BBX 17 24 2 0
BITMAP
01FE00
07FF80
0FFF80
1F0180
3C0000
780000
700000
700000
F00000
F00000
E00000
E00000
E00000
E00000
E00000
F00000
F00000
700000
780000
3C0000
3E0080
1FFF80
07FF80
01FE00
ENDCHAR
STARTCHAR 0044
ENCODING 68
SWIDTH 540 0
DWIDTH 21 0
BBX 17 24 2 0
BITMAP
FFC000
FFF800
FFFC00
E03E00
E00F00
E00700
E00780
E00780
E00380
E00380
E00380
E00380
E00380
E00380
E00380
E00380
E00780
E00700
E00F00
E01E00
E03E00
FFFC00
FFF000
FF8000
ENDCHAR
STARTCHAR 0045
ENCODING 69
SWIDTH 540 0
DWIDTH 21 0
BBX 14 24 4 0
BITMAP
FFFC
FFFC
FFFC
E000
E000
E000
E000
E000
E000
E000
FFF8
FFF8
FFF8
E000
E000
E000
E000
E000
E000
E000
E000
FFFC
FFFC
FFFC
ENDCHAR
STARTCHAR 0046
ENCODING 70
SWIDTH 540 0
DWIDTH 21 0
BBX 14 24 4 0
BITMAP
FFFC
FFFC
FFFC
E000
E000
E000
E000
E000
E000
E000
FFF8
FFF8
FFF8
E000
E000
E000
E000
E000
E000
E000
E000
E000
E000
E000
ENDCHAR
STARTCHAR 0047
ENCODING 71
SWIDTH 540 0
DWIDTH 21 0
BBX 17 24 1 0
BITMAP
00FE00
07FF80
0FFF80
1F0080
3C0000
380000
780000
700000
F00000
F00000
E07F80
E07F80
E07F80
E00380
E00380
F00380
F00380
700380
780380
3C0380
3E0380
1FFF80
07FF80
01FE00
ENDCHAR
STARTCHAR 0048
ENCODING 72
SWIDTH 540 0
DWIDTH 21 0
BBX 17 24 2 0
BITMAP
E00380
E00380
E00380
E00380
E00380
E00380
E00380
E00380
E00380
E00380
FFFF80
FFFF80
FFFF80
E00380
E00380
E00380
E00380
E00380
E00380
E00380
E00380
E00380
E00380
E00380
ENDCHAR
STARTCHAR 0049
ENCODING 73
SWIDTH 540 0
DWIDTH 21 0
BBX 15 24 3 0
BITMAP
FFFE
FFFE
FFFE
0380
0380
0380
0380
0380
0380
0380
0380
0380
0380
0380
0380
0380
0380
0380
0380
0380
0380
FFFE
FFFE
FFFE
ENDCHAR
STARTCHAR 004A
ENCODING 74
SWIDTH 540 0
DWIDTH 21 0
BBX 13 24 3 0
BITMAP
7FF8
7FF8
7FF8
0038
0038
0038
0038
0038
0038
0038
0038
0038
0038
0038
0038
0038
0038
0038
0038
0078
C0F0
FFF0
FFE0
3F80
ENDCHAR
STARTCHAR 004B
ENCODING 75
SWIDTH 540 0
DWIDTH 21 0
BBX 16 24 3 0
BITMAP
E00F
E01E
E03C
E078
E070
E0F0
E1E0
E3C0
E780
E700
EE00
FE00
EE00
EF00
E780
E3C0
E1E0
E1E0
E0F0
E078
E03C
E03E
E01E
E00F
ENDCHAR
STARTCHAR 004C
ENCODING 76
SWIDTH 540 0
DWIDTH 21 0
BBX 14 24 4 0
BITMAP
E000
E000
E000
E000
E000
E000
E000
E000
E000
E000
E000
E000
E000
E000
E000
E000
E000
E000
E000
E000
E000
FFFC
FFFC
FFFC
ENDCHAR
STARTCHAR 004D
ENCODING 77
SWIDTH 540 0
DWIDTH 21 0
BBX 18 24 1 0
BITMAP
F807C0
F807C0
FC0FC0
FC0FC0
EC0DC0
EE1DC0
EE19C0
E739C0
E739C0
E331C0
E3F1C0
E3F1C0
E1E1C0
E1E1C0
E1E1C0
E0C1C0
E001C0
E001C0
E001C0
E001C0
E001C0
E001C0
E001C0
E001C0
ENDCHAR
STARTCHAR 004E
ENCODING 78
SWIDTH 540 0
DWIDTH 21 0
BBX 17 24 2 0
BITMAP
F80380
F80380
FC0380
FC0380
FE0380
EE0380
EF0380
E70380
E78380
E38380
E38380
E1C380
E1C380
E1E380
E0E380
E0F380
E07380
E07B80
E03B80
E03F80
E01F80
E01F80
E00F80
E00F80
ENDCHAR
STARTCHAR 004F
ENCODING 79
SWIDTH 540 0
DWIDTH 21 0
BBX 19 24 1 0
BITMAP
01F800
0FFE00
1FFF00
3E0F80
3803C0
7803C0
7001C0
7001E0
F001E0
E000E0
E000E0
E000E0
E000E0
E000E0
E000E0
F001E0
F001C0
7001C0
7803C0
780780
3E0F80
1FFF00
0FFE00
03F000
ENDCHAR
STARTCHAR 0050
ENCODING 80
SWIDTH 540 0
DWIDTH 21 0
BBX 16 24 3 0
BITMAP
FFE0
FFF8
FFFC
E03E
E00F
E00F
E007
E007
E007
E00F
E00E
E03E
FFFC
FFF0
FFC0
E000
E000
E000
E000
E000
E000
E000
E000
E000
ENDCHAR
STARTCHAR 0051
ENCODING 81
SWIDTH 540 0
DWIDTH 21 0
BBX 20 31 1 -7
BITMAP
01F800
07FE00
1FFF00
1E0F80
3C0380
7803C0
7001C0
7001E0
F001E0
E001E0
E000E0
E000E0
E000E0
E000E0
E000E0
F001E0
F001E0
7001C0
7003C0
7803C0
3C0780
3F1F00
1FFE00
07FC00
00E000
00E000
00F000
007820
007FF0
003FF0
000FC0
ENDCHAR
STARTCHAR 0052
ENCODING 82
SWIDTH 540 0
DWIDTH 21 0
BBX 16 24 3 0
BITMAP
FFC0
FFF0
FFF8
E03C
E01C
E01C
E01C
E01C
E03C
E078
FFF8
FFE0
FFC0
E1E0
E0F0
E070
E078
E038
E03C
E03C
E01E
E01E
E00E
E00F
ENDCHAR
STARTCHAR 0053
ENCODING 83
SWIDTH 540 0
DWIDTH 21 0
BBX 16 24 2 0
BITMAP
07FC
1FFE
3FFE
7800
F000
E000
E000
F000
F800
7C00
3F80
1FE0
07F8
00FC
003E
000F
000F
0007
0007
000F
801E
FFFC
FFF8
7FE0
ENDCHAR
STARTCHAR 0054
ENCODING 84
SWIDTH 540 0
DWIDTH 21 0
BBX 18 24 2 0
BITMAP
FFFFC0
FFFFC0
FFFFC0
01C000
01C000
01C000
01C000
01C000
01C000
01C000
01C000
01C000
01C000
01C000
01C000
01C000
01C000
01C000
01C000
01C000
01C000
01C000
01C000
01C000
ENDCHAR
STARTCHAR 0055
ENCODING 85
SWIDTH 540 0
DWIDTH 21 0
BBX 17 24 2 0
BITMAP
E00380
E00380
E00380
E00380
E00380
E00380
E00380
E00380
E00380
E00380
E00380
E00380
E00380
E00380
E00380
E00380
E00380
E00780
F00780
700700
780F00
3FFE00
1FFC00
07F000
ENDCHAR
STARTCHAR 0056
ENCODING 86
SWIDTH 540 0
DWIDTH 21 0
BBX 21 24 0 0
BITMAP
F00078
700070
780070
7800F0
3800E0
3C00E0
3C01E0
1C01C0
1E01C0
1E03C0
0E0380
0F0380
0F0780
070700
078700
078F00
038E00
038E00
03DE00
01DC00
01DC00
01F800
00F800
00F800
ENDCHAR
STARTCHAR 0057
ENCODING 87
SWIDTH 540 0
DWIDTH 21 0
BBX 18 24 2 0
BITMAP
E001C0
E001C0
E001C0
E001C0
E001C0
E001C0
E001C0
E001C0
E0C1C0
E1E1C0
E1E1C0
E1E1C0
E3F1C0
E3F1C0
E371C0
E739C0
E739C0
E639C0
EE1DC0
EE1DC0
FC1FC0
FC0FC0
FC0FC0
FC0FC0
ENDCHAR
STARTCHAR 0058
ENCODING 88
SWIDTH 540 0
DWIDTH 21 0
BBX 19 24 1 0
BITMAP
F001E0
7803C0
380380
3C0780
1E0F00
1E0E00
0F1E00
07BC00
07B800
03F800
01F000
01F000
01F000
03F800
03B800
07BC00
0F1E00
0E1E00
1E0F00
3C0780
3C0780
7803C0
F003E0
F001E0
ENDCHAR
STARTCHAR 0059
ENCODING 89
SWIDTH 540 0
DWIDTH 21 0
BBX 21 24 0 0
BITMAP
F00078
7800F0
3C00F0
3C01E0
1E01E0
1E03C0
0F0380
070780
078700
038F00
03CE00
01DE00
01FC00
00F800
007800
007000
007000
007000
007000
007000
007000
007000
007000
007000
ENDCHAR
STARTCHAR 005A
ENCODING 90
SWIDTH 540 0
DWIDTH 21 0
BBX 17 24 2 0
BITMAP
FFFF00
FFFF00
FFFF00
001E00
001E00
003C00
003800
007800
00F000
00E000
01E000
03C000
038000
078000
070000
0F0000
1E0000
1C0000
3C0000
780000
700000
FFFF80
FFFF80
FFFF80
ENDCHAR
STARTCHAR 005B
ENCODING 91
SWIDTH 540 0
DWIDTH 21 0
BBX 9 35 6 -8
BITMAP
FF80
FF80
FF80
E000
E000
E000
E000
E000
E000
E000
E000
E000
E000
E000
E000
E000
E000
E000
E000
E000
E000
E000
E000
E000
E000
E000
E000
E000
E000
E000
E000
E000
FF80
FF80
FF80
ENDCHAR
STARTCHAR 005C
ENCODING 92
SWIDTH 540 0
DWIDTH 21 0
BBX 16 30 3 -4
BITMAP
E000
7000
7000
7800
3800
3800
1C00
1C00
0E00
0E00
0F00
0700
0700
0380
0380
01C0
01C0
01E0
00E0
00E0
0070
0070
0038
0038
0038
001C
001C
000E
000E
0007
ENDCHAR
STARTCHAR 005D
ENCODING 93
SWIDTH 540 0
DWIDTH 21 0
BBX 9 35 5 -8
BITMAP
FF80
FF80
FF80
0380
0380
0380
0380
0380
0380
0380
0380
0380
0380
0380
0380
0380
0380
0380
0380
0380
0380
0380
0380
0380
0380
0380
0380
0380
0380
0380
0380
0380
FF80
FF80
FF80
ENDCHAR
STARTCHAR 005E
ENCODING 94
SWIDTH 540 0
DWIDTH 21 0
BBX 16 12 3 12
BITMAP
0380
07C0
07C0
0EE0
1CE0
1C70
3878
3838
701C
701C
E00E
C00F
ENDCHAR
STARTCHAR 005F
ENCODING 95
SWIDTH 540 0
DWIDTH 21 0
BBX 21 3 0 -8
BITMAP
FFFFF8
FFFFF8
FFFFF8
ENDCHAR
STARTCHAR 0060
ENCODING 96
SWIDTH 540 0
DWIDTH 21 0
BBX 8 4 4 18
BITMAP
F0
7C
1E
0F
ENDCHAR
STARTCHAR 0061
ENCODING 97
SWIDTH 540 0
DWIDTH 21 0
BBX 15 19 2 0
BITMAP
0FF0
3FF8
3FFC
201E
000E
000E
000E
03FE
1FFE
7FFE
780E
F00E
E00E
E00E
E01E
F07E
7FF6
3FE6
1F86
ENDCHAR
STARTCHAR 0062
ENCODING 98
SWIDTH 540 0
DWIDTH 21 0
BBX 16 26 3 0
BITMAP
E000
E000
E000
E000
E000
E000
E000
E1F0
E7F8
EFFC
FC1E
F80E
F00F
E00F
E007
E007
E007
E007
E00F
E00F
E00E
E01E
E03C
FFF8
FFF0
1FC0
ENDCHAR
STARTCHAR 0063
ENCODING 99
SWIDTH 540 0
DWIDTH 21 0
BBX 15 19 3 0
BITMAP
03FC
0FFE
1FFE
3E02
7800
7000
F000
F000
E000
E000
E000
E000
F000
7000
7800
7C02
3FFE
0FFE
03FC
ENDCHAR
STARTCHAR 0064
ENCODING 100
SWIDTH 540 0
DWIDTH 21 0
BBX 16 26 2 0
BITMAP
000F
000F
000F
000F
000F
000F
000F
03FF
0FFF
1FFF
3C0F
780F
700F
F00F
E00F
E00F
E00F
E00F
E00F
F00F
F01F
703F
7877
3FF7
3FE7
0F87
ENDCHAR
STARTCHAR 0065
ENCODING 101
SWIDTH 540 0
DWIDTH 21 0
BBX 16 19 2 0
BITMAP
07E0
0FF8
3FFC
3C1E
700F
7007
F007
E007
FFFF
FFFF
FFFF
E000
F000
7000
7800
7C00
3FFF
1FFF
03FE
ENDCHAR
STARTCHAR 0066
ENCODING 102
SWIDTH 540 0
DWIDTH 21 0
BBX 18 26 1 0
BITMAP
003FC0
00FFC0
01FFC0
01E000
03C000
038000
038000
038000
038000
038000
FFFFC0
FFFFC0
FFFFC0
038000
038000
038000
038000
038000
038000
038000
038000
038000
038000
038000
038000
038000
ENDCHAR
STARTCHAR 0067
ENCODING 103
SWIDTH 540 0
DWIDTH 21 0
BBX 17 27 2 -8
BITMAP
07FF80
1FFF80
3FFF80
3C1E00
780F00
700700
700700
700700
780F00
3C1E00
3FFE00
3FF800
73F000
700000
700000
700000
7FF800
3FFF00
3FFF80
780780
F00380
E00380
E00380
F00F80
7FFF00
3FFE00
0FF000
ENDCHAR
STARTCHAR 0068
ENCODING 104
SWIDTH 540 0
DWIDTH 21 0
BBX 15 26 3 0
BITMAP
E000
E000
E000
E000
E000
E000
E000
E1F0
E7F8
EFFC
FC1C
F81E
F00E
E00E
E00E
E00E
E00E
E00E
E00E
E00E
E00E
E00E
E00E
E00E
E00E
E00E
ENDCHAR
STARTCHAR 0069
ENCODING 105
SWIDTH 540 0
DWIDTH 21 0
BBX 15 26 3 0
BITMAP
0380
07C0
07C0
07C0
0380
0000
0000
FF80
FF80
FF80
0380
0380
0380
0380
0380
0380
0380
0380
0380
0380
0380
0380
0380
FFFE
FFFE
FFFE
ENDCHAR
STARTCHAR 006A
ENCODING 106
SWIDTH 540 0
DWIDTH 21 0
BBX 14 34 2 -8
BITMAP
0038
007C
007C
007C
0038
0000
0000
7FF8
7FF8
7FF8
0038
0038
0038
0038
0038
0038
0038
0038
0038
0038
0038
0038
0038
0038
0038
0038
0038
0038
0038
0078
80F0
FFE0
FFC0
7F00
ENDCHAR
STARTCHAR 006B
ENCODING 107
SWIDTH 540 0
DWIDTH 21 0
BBX 16 26 3 0
BITMAP
E000
E000
E000
E000
E000
E000
E000
E01E
E03C
E078
E0F0
E1E0
E3C0
E780
EF00
FE00
EF00
E780
E3C0
E3E0
E1E0
E0F0
E078
E03C
E01E
E00F
ENDCHAR
STARTCHAR 006C
ENCODING 108
SWIDTH 540 0
DWIDTH 21 0
BBX 15 26 3 0
BITMAP
FF80
FF80
FF80
0380
0380
0380
0380
0380
0380
0380
0380
0380
0380
0380
0380
0380
0380
0380
0380
0380
0380
0380
0380
FFFE
FFFE
FFFE
ENDCHAR
STARTCHAR 006D
ENCODING 109
SWIDTH 540 0
DWIDTH 21 0
BBX 18 19 2 0
BITMAP
E78F00
EF9F80
FFDFC0
F9F3C0
F1F1C0
F1E1C0
E1E1C0
E1C1C0
E1C1C0
E1C1C0
E1C1C0
E1C1C0
E1C1C0
E1C1C0
E1C1C0
E1C1C0
E1C1C0
E1C1C0
E1C1C0
ENDCHAR
STARTCHAR 006E
ENCODING 110
SWIDTH 540 0
DWIDTH 21 0
BBX 15 19 3 0
BITMAP
E3F0
E7F8
EFFC
FC1C
F81E
F00E
E00E
E00E
E00E
E00E
E00E
E00E
E00E
E00E
E00E
E00E
E00E
E00E
E00E
ENDCHAR
STARTCHAR 006F
ENCODING 111
SWIDTH 540 0
DWIDTH 21 0
BBX 17 19 2 0
BITMAP
03F000
0FFC00
1FFE00
3C1F00
780700
700780
F00380
E00380
E00380
E00380
E00380
E00380
F00380
700780
780700
7C1F00
3FFE00
1FFC00
07F000
ENDCHAR
STARTCHAR 0070
ENCODING 112
SWIDTH 540 0
DWIDTH 21 0
BBX 16 27 3 -8
BITMAP
E1F0
E7F8
EFFC
FC1E
F80E
F00F
E00F
E007
E007
E007
E007
E00F
E00F
E00E
E01E
E03C
FFF8
FFF0
FFC0
E000
E000
E000
E000
E000
E000
E000
E000
ENDCHAR
STARTCHAR 0071
ENCODING 113
SWIDTH 540 0
DWIDTH 21 0
BBX 16 27 2 -7
BITMAP
03F3
0FFF
1FFF
3C07
7807
7007
F007
E007
E007
E007
E007
E007
F00F
F01F
701F
787F
3FF7
3FE7
0F87
0007
0007
0007
0007
0007
0007
0007
0007
ENDCHAR
STARTCHAR 0072
ENCODING 114
SWIDTH 540 0
DWIDTH 21 0
BBX 15 19 4 0
BITMAP
E1F0
E7FC
EFFC
FE1E
FC0E
F80E
F00E
F000
F000
F000
F000
F000
F000
F000
F000
F000
F000
F000
F000
ENDCHAR
STARTCHAR 0073
ENCODING 115
SWIDTH 540 0
DWIDTH 21 0
BBX 14 19 3 0
BITMAP
0FF8
3FF8
7FF8
F000
E000
E000
F000
7C00
7F80
1FE0
07F8
00FC
003C
001C
001C
803C
FFF8
FFF0
7FC0
ENDCHAR
STARTCHAR 0074
ENCODING 116
SWIDTH 540 0
DWIDTH 21 0
BBX 17 25 1 0
BITMAP
030000
070000
070000
070000
070000
070000
FFFF80
FFFF80
FFFF80
070000
070000
070000
070000
070000
070000
070000
070000
070000
070000
070000
078000
07C000
03FF80
01FF80
007F80
ENDCHAR
STARTCHAR 0075
ENCODING 117
SWIDTH 540 0
DWIDTH 21 0
BBX 15 19 3 0
BITMAP
E00E
E00E
E00E
E00E
E00E
E00E
E00E
E00E
E00E
E00E
E00E
E00E
E00E
E01E
F03E
F07E
7FEE
3FCE
1F0E
ENDCHAR
STARTCHAR 0076
ENCODING 118
SWIDTH 540 0
DWIDTH 21 0
BBX 18 19 1 0
BITMAP
F001C0
7003C0
7803C0
380380
3C0780
3C0700
1C0700
1E0F00
0E0E00
0E0E00
0F1E00
071C00
073C00
07B800
03B800
03B800
01F000
01F000
01E000
ENDCHAR
STARTCHAR 0077
ENCODING 119
SWIDTH 540 0
DWIDTH 21 0
BBX 19 19 1 0
BITMAP
E000E0
E000E0
E000E0
E000E0
E000E0
F0E1E0
70E1C0
71E1C0
71F1C0
71F1C0
73B9C0
73B9C0
7339C0
371D80
3F1F80
3E1F80
3E0F80
3E0F80
3C0F80
ENDCHAR
STARTCHAR 0078
ENCODING 120
SWIDTH 540 0
DWIDTH 21 0
BBX 17 19 2 0
BITMAP
F00780
780700
780F00
3C1E00
1E1C00
0E3800
0F7800
07F000
03E000
01E000
03E000
07F000
0F7800
1E3C00
1E3C00
3C1E00
780F00
F80F80
F00780
ENDCHAR
STARTCHAR 0079
ENCODING 121
SWIDTH 540 0
DWIDTH 21 0
BBX 18 27 1 -8
BITMAP
F001C0
7003C0
7803C0
380380
380780
3C0700
1C0700
1E0F00
1E0E00
0E0E00
0F1E00
071C00
071C00
07B800
03B800
03B800
01F000
01F000
01F000
01E000
01E000
03C000
03C000
0F8000
FF0000
FE0000
F80000
ENDCHAR
STARTCHAR 007A
ENCODING 122
SWIDTH 540 0
DWIDTH 21 0
BBX 15 19 3 0
BITMAP
FFFC
FFFC
FFFC
0038
0078
00F0
01E0
01C0
03C0
0780
0F00
0E00
1E00
3C00
3800
7000
FFFE
FFFE
FFFE
ENDCHAR
STARTCHAR 007B
ENCODING 123
SWIDTH 540 0
DWIDTH 21 0
BBX 13 34 3 -8
BITMAP
0078
01F8
03F8
07C0
0780
0700
0700
0700
0700
0700
0700
0700
0700
0F00
FE00
F800
FE00
1F00
0F00
0700
0700
0700
0700
0700
0700
0700
0700
0700
0700
0780
03C0
03F8
01F8
0078
ENDCHAR
STARTCHAR 007C
ENCODING 124
SWIDTH 540 0
DWIDTH 21 0
BBX 3 38 9 -8
BITMAP
E0
E0
E0
E0
E0
E0
E0
E0
E0
E0
E0
E0
E0
E0
E0
E0
E0
E0
E0
E0
E0
E0
E0
E0
E0
E0
E0
E0
E0
E0
E0
E0
E0
E0
E0
E0
E0
E0
ENDCHAR
STARTCHAR 007D
ENCODING 125
SWIDTH 540 0
DWIDTH 21 0
BBX 14 34 4 -8
BITMAP
F800
FC00
FE00
0F00
0700
0700
0700
0700
0700
0700
0700
0700
0780
0380
03FC
007C
01FC
03C0
0780
0700
0700
0700
0700
0700
0700
0700
0700
0700
0700
0700
0F00
FE00
FC00
F800
ENDCHAR
STARTCHAR 007E
ENCODING 126
SWIDTH 540 0
DWIDTH 21 0
BBX 19 8 1 6
BITMAP
0E0000
3F80E0
7FC0E0
71E1E0
F0F1C0
E07FC0
E03F80
001F00
ENDCHAR
STARTCHAR 00A0
ENCODING 160
SWIDTH 540 0
DWIDTH 21 0
BBX 0 0 0 0
BITMAP
ENDCHAR
STARTCHAR 00A1
ENCODING 161
SWIDTH 540 0
DWIDTH 21 0
BBX 5 27 8 -8
BITMAP
70
F8
F8
F8
70
00
00
00
70
70
70
70
70
70
70
70
70
70
70
70
70
70
70
70
70
70
70
ENDCHAR
STARTCHAR 00A2
ENCODING 162
SWIDTH 540 0
DWIDTH 21 0
BBX 15 33 2 -5
BITMAP
0038
0038
0038
0038
0070
0070
0070
03FC
0FFE
1FFE
3C72
78E0
70E0
F0E0
E0E0
E0E0
E0E0
E0E0
F1C0
F1C0
79C0
7DC2
3FFE
1FFE
03FC
0180
0380
0380
0380
0380
0380
0380
0300
ENDCHAR
STARTCHAR 00A3
ENCODING 163
SWIDTH 540 0
DWIDTH 21 0
BBX 17 24 2 0
BITMAP
00FC00
03FF00
07FF80
0F0300
1E0000
1E0000
1C0000
1C0000
1C0000
1C0000
FFFC00
FFFC00
FFFC00
1C0000
1C0000
1C0000
1C0000
1C0000
1C0000
1C0000
1C0000
FFFF80
FFFF80
FFFF80
ENDCHAR
STARTCHAR 00A4
ENCODING 164
SWIDTH 540 0
DWIDTH 21 0
BBX 18 22 1 2
BITMAP
200100
F003C0
780780
39E700
3FFF00
1FFE00
1E1E00
1C0E00
3C0F00
380700
380700
380700
380700
3C0F00
3C0E00
1E1E00
1FFE00
1FFE00
3BF700
780780
F003C0
700380
ENDCHAR
STARTCHAR 00A5
ENCODING 165
SWIDTH 540 0
DWIDTH 21 0
BBX 19 24 1 0
BITMAP
F001E0
7801C0
7803C0
3C0780
1C0700
1E0F00
0E0E00
0F1C00
07BC00
03B800
03F800
01F000
01E000
3FFF80
3FFF80
3FFF80
00E000
00E000
00E000
3FFF80
3FFF80
3FFF80
00E000
00E000
ENDCHAR
STARTCHAR 00A6
ENCODING 166
SWIDTH 540 0
DWIDTH 21 0
BBX 3 38 9 -8
BITMAP
E0
E0
E0
E0
E0
E0
E0
E0
E0
E0
E0
E0
E0
E0
E0
00
00
00
00
00
00
00
E0
E0
E0
E0
E0
E0
E0
E0
E0
E0
E0
E0
E0
E0
E0
E0
ENDCHAR
STARTCHAR 00A7
ENCODING 167
SWIDTH 540 0
DWIDTH 21 0
BBX 16 31 3 -5
BITMAP
03FC
0FFC
1FFC
3C00
3800
3800
3C00
3E00
1F00
3FC0
7BF0
71F8
F07C
E03E
E00F
F00F
7807
7C07
3E0F
1F8E
07FE
01F8
00F8
003C
001C
001C
003C
4078
7FF8
7FE0
3F00
ENDCHAR
STARTCHAR 00A8
ENCODING 168
SWIDTH 540 0
DWIDTH 21 0
BBX 12 4 4 18
BITMAP
6060
F0F0
F0F0
6060
ENDCHAR
STARTCHAR 00A9
ENCODING 169
SWIDTH 540 0
DWIDTH 21 0
BBX 21 24 0 0
BITMAP
01FC00
07FF00
0FFF80
1E03C0
3C01E0
78F8F0
79FCF0
73FC70
F38078
F70078
E70038
E70038
E70038
E70038
F38078
F3FC78
71FC70
78F8F0
7800F0
3C01E0
1E03C0
0FFF80
07FF00
01FC00
ENDCHAR
STARTCHAR 00AA
ENCODING 170
SWIDTH 540 0
DWIDTH 21 0
BBX 13 18 4 6
BITMAP
3F80
7FC0
7FE0
01E0
00E0
1FE0
7FE0
F0E0
E0E0
E1E0
FFE0
7EE0
3CE0
0000
0000
FFF8
FFF8
FFF8
ENDCHAR
STARTCHAR 00AB
ENCODING 171
SWIDTH 540 0
DWIDTH 21 0
BBX 15 15 3 2
BITMAP
0800
0E0C
1E1E
3C3C
3838
7870
70F0
E0E0
E0E0
7070
7878
3838
1C1C
1E1E
0C0C
ENDCHAR
STARTCHAR 00AC
ENCODING 172
SWIDTH 540 0
DWIDTH 21 0
BBX 16 8 2 3
BITMAP
FFFF
FFFF
FFFF
0007
0007
0007
0007
0007
ENDCHAR
STARTCHAR 00AD
ENCODING 173
SWIDTH 540 0
DWIDTH 21 0
BBX 11 3 5 9
BITMAP
FFE0
FFE0
FFE0
ENDCHAR
STARTCHAR 00AE
ENCODING 174
SWIDTH 540 0
DWIDTH 21 0
BBX 17 16 2 10
BITMAP
03E000
0FF800
3FDE00
77F700
663300
E63380
C63180
C7C180
C6E180
C66180
E63380
663300
300600
3C1E00
0FF800
03E000
ENDCHAR
STARTCHAR 00AF
ENCODING 175
SWIDTH 540 0
DWIDTH 21 0
BBX 10 3 6 18
BITMAP
FFC0
FFC0
FFC0
ENDCHAR
STARTCHAR 00B0
ENCODING 176
SWIDTH 540 0
DWIDTH 21 0
BBX 13 13 4 13
BITMAP
0F80
3FE0
7FF0
7070
F078
E038
E038
E038
F078
78F0
7FE0
3FC0
0700
ENDCHAR
STARTCHAR 00B1
ENCODING 177
SWIDTH 540 0
DWIDTH 21 0
BBX 17 23 2 0
BITMAP
01C000
01C000
01C000
01C000
01C000
01C000
01C000
FFFF80
FFFF80
FFFF80
01C000
01C000
01C000
01C000
01C000
01C000
01C000
000000
000000
000000
7FFF80
7FFF80
7FFF80
ENDCHAR
STARTCHAR 00B2
ENCODING 178
SWIDTH 540 0
DWIDTH 21 0
BBX 12 15 5 11
BITMAP
1F00
7FC0
FFE0
41E0
00E0
00E0
01E0
03C0
0780
0F00
3E00
7C00
FFF0
FFF0
FFF0
ENDCHAR
STARTCHAR 00B3
ENCODING 179
SWIDTH 540 0
DWIDTH 21 0
BBX 11 15 5 11
BITMAP
7F00
FFC0
FFC0
01C0
01C0
03C0
3F80
3F80
3FC0
01E0
00E0
01E0
FFC0
FF80
FE00
ENDCHAR
STARTCHAR 00B4
ENCODING 180
SWIDTH 540 0
DWIDTH 21 0
BBX 8 4 9 18
BITMAP
1F
3C
78
F0
ENDCHAR
STARTCHAR 00B5
ENCODING 181
SWIDTH 540 0
DWIDTH 21 0
BBX 17 27 3 -8
BITMAP
E00E00
E00E00
E00E00
E00E00
E00E00
E00E00
E00E00
E00E00
E00E00
E00E00
E00E00
E00E00
E00E00
E01E00
F03E00
F07E00
FFEF80
FFC780
EF8380
E00000
E00000
E00000
E00000
E00000
E00000
E00000
E00000
ENDCHAR
STARTCHAR 00B6
ENCODING 182
SWIDTH 540 0
DWIDTH 21 0
BBX 16 31 2 -5
BITMAP
03FF
1FFF
3FFF
7FC7
7FC7
FFC7
FFC7
FFC7
FFC7
FFC7
FFC7
7FC7
7FC7
3FC7
0FC7
01C7
0007
0007
0007
0007
0007
0007
0007
0007
0007
0007
100F
1C1E
3FFC
0FF8
03E0
ENDCHAR
STARTCHAR 00B7
ENCODING 183
SWIDTH 540 0
DWIDTH 21 0
BBX 6 6 7 7
BITMAP
78
FC
FC
FC
FC
78
ENDCHAR
STARTCHAR 00B8
ENCODING 184
SWIDTH 540 0
DWIDTH 21 0
BBX 4 5 8 -5
BITMAP
70
70
70
E0
E0
ENDCHAR
STARTCHAR 00B9
ENCODING 185
SWIDTH 540 0
DWIDTH 21 0
BBX 11 15 5 11
BITMAP
0F00
3F00
FF00
F700
C700
0700
0700
0700
0700
0700
0700
0700
FFE0
FFE0
FFE0
ENDCHAR
STARTCHAR 00BA
ENCODING 186
SWIDTH 540 0
DWIDTH 21 0
BBX 13 18 4 6
BITMAP
0F80
3FE0
7FF0
7870
F078
E038
E038
E038
E078
F078
78F0
7FE0
3FC0
0700
0000
FFF8
FFF8
FFF8
ENDCHAR
STARTCHAR 00BB
ENCODING 187
SWIDTH 540 0
DWIDTH 21 0
BBX 15 15 3 2
BITMAP
0020
E0E0
F0F0
7070
3838
1C3C
1E1C
0E0E
0E0E
1C1C
3C3C
3838
7070
F0F0
6060
ENDCHAR
STARTCHAR 00BC
ENCODING 188
SWIDTH 540 0
DWIDTH 21 0
BBX 19 26 1 0
BITMAP
1E0060
7E00E0
FE01C0
EE0180
0E0380
0E0700
0E0600
0E0E00
0E1C00
0E1800
0E3800
007000
007000
00E000
01C000
01C7C0
038FC0
070FC0
071DC0
0E39C0
1C39C0
1C71C0
387FE0
707FE0
7001C0
E001C0
ENDCHAR
STARTCHAR 00BD
ENCODING 189
SWIDTH 540 0
DWIDTH 21 0
BBX 19 26 1 0
BITMAP
1E00E0
7E00E0
FE01C0
EE0380
0E0380
0E0700
0E0E00
0E0E00
0E1C00
0E1800
0E3800
007000
006000
00E000
01C000
01C780
039FE0
071FE0
0708E0
0E00E0
1C01E0
1C03C0
380700
701E00
701FE0
E01FE0
ENDCHAR
STARTCHAR 00BE
ENCODING 190
SWIDTH 540 0
DWIDTH 21 0
BBX 20 26 0 0
BITMAP
7E0070
7F00F0
7F00E0
0701C0
3E03C0
3F0380
038700
078F00
7F8E00
7F1C00
3C3C00
003800
007000
00F000
00E000
01C3C0
0387C0
038FC0
070DC0
0E1DC0
0E19C0
1C39C0
383FF0
383FF0
7001C0
E001C0
ENDCHAR
STARTCHAR 00BF
ENCODING 191
SWIDTH 540 0
DWIDTH 21 0
BBX 12 27 4 -8
BITMAP
01C0
03E0
03E0
03E0
01C0
0000
0000
0000
01C0
01C0
01C0
01C0
01C0
1FC0
7FC0
7800
F000
E000
E000
E000
F000
7000
7800
3E00
1FF0
07F0
01F0
ENDCHAR
STARTCHAR 00C0
ENCODING 192
SWIDTH 540 0
DWIDTH 21 0
BBX 21 31 0 0
BITMAP
0F8000
07C000
01E000
00F000
000000
000000
000000
00F800
00F800
01FC00
01DC00
01DC00
03DE00
038E00
038E00
078F00
070F00
070700
0F0780
0E0780
0E0380
1E03C0
1C03C0
1FFFC0
3FFFE0
3FFFE0
3800E0
7800F0
7800F0
700070
F00078
ENDCHAR
STARTCHAR 00C1
ENCODING 193
SWIDTH 540 0
DWIDTH 21 0
BBX 21 31 0 0
BITMAP
000F80
001F00
003C00
007800
000000
000000
000000
00F800
00F800
01FC00
01DC00
01DC00
03DE00
038E00
038E00
078F00
070F00
070700
0F0780
0E0780
0E0380
1E03C0
1C03C0
1FFFC0
3FFFE0
3FFFE0
3800E0
7800F0
7800F0
700070
F00078
ENDCHAR
STARTCHAR 00C2
ENCODING 194
SWIDTH 540 0
DWIDTH 21 0
BBX 21 31 0 0
BITMAP
007000
00F800
03DE00
078F00
000000
000000
000000
00F800
00F800
01FC00
01DC00
01DC00
03DE00
038E00
038E00
078F00
070F00
070700
0F0780
0E0780
0E0380
1E03C0
1C03C0
1FFFC0
3FFFE0
3FFFE0
3800E0
7800F0
7800F0
700070
F00078
ENDCHAR
STARTCHAR 00C3
ENCODING 195
SWIDTH 540 0
DWIDTH 21 0
BBX 21 31 0 0
BITMAP
03C100
07F180
0FFF80
0C3F00
000C00
000000
000000
00F800
00F800
01FC00
01DC00
01DC00
03DE00
038E00
038E00
078F00
070F00
070700
0F0780
0E0780
0E0380
1E03C0
1C03C0
1FFFC0
3FFFE0
3FFFE0
3800E0
7800F0
7800F0
700070
F00078
ENDCHAR
STARTCHAR 00C4
ENCODING 196
SWIDTH 540 0
DWIDTH 21 0
BBX 20 31 0 0
BITMAP
060600
0F0F00
0F0F00
060600
000000
000000
000000
00F000
01F800
01F800
01F800
03BC00
039C00
039C00
079E00
070E00
070E00
0F0F00
0E0700
0E0700
1E0780
1C0380
1C0380
3FFFC0
3FFFC0
3FFFC0
7801E0
7001E0
7000E0
F000F0
E000F0
ENDCHAR
STARTCHAR 00C5
ENCODING 197
SWIDTH 540 0
DWIDTH 21 0
BBX 19 32 1 0
BITMAP
00E000
01F000
031800
031800
031800
01F000
00E000
000000
01F000
01F000
01F000
03B800
03B800
03B800
071C00
071C00
071C00
0F1E00
0E0E00
0E0E00
1E0F00
1C0700
1C0700
3C0780
3FFF80
3FFF80
7FFFC0
7003C0
7001C0
F001E0
E001E0
E000E0
ENDCHAR
STARTCHAR 00C6
ENCODING 198
SWIDTH 540 0
DWIDTH 21 0
BBX 20 24 0 0
BITMAP
007FF0
007FF0
00FFF0
00FC00
01DC00
01DC00
019C00
039C00
039C00
071C00
071FF0
0E1FF0
0E1FF0
0E1C00
1C1C00
1C1C00
3FFC00
3FFC00
3FFC00
701C00
701C00
F01FF0
E01FF0
E01FF0
ENDCHAR
STARTCHAR 00C7
ENCODING 199
SWIDTH 540 0
DWIDTH 21 0
BBX 17 29 2 -6
BITMAP
01FE00
07FF80
0FFF80
1F0180
3C0000
780000
700000
700000
F00000
F00000
E00000
E00000
E00000
E00000
E00000
F00000
F00000
700000
780000
3C0000
3E0080
1FFF80
0FFF80
01FE00
01E000
01C000
01C000
01C000
01C000
ENDCHAR
STARTCHAR 00C8
ENCODING 200
SWIDTH 540 0
DWIDTH 21 0
BBX 14 31 4 0
BITMAP
F800
3C00
1E00
0700
0000
0000
0000
FFFC
FFFC
FFFC
E000
E000
E000
E000
E000
E000
E000
FFF8
FFF8
FFF8
E000
E000
E000
E000
E000
E000
E000
E000
FFFC
FFFC
FFFC
ENDCHAR
STARTCHAR 00C9
ENCODING 201
SWIDTH 540 0
DWIDTH 21 0
BBX 14 31 4 0
BITMAP
0078
00F0
03C0
0780
0000
0000
0000
FFFC
FFFC
FFFC
E000
E000
E000
E000
E000
E000
E000
FFF8
FFF8
FFF8
E000
E000
E000
E000
E000
E000
E000
E000
FFFC
FFFC
FFFC
ENDCHAR
STARTCHAR 00CA
ENCODING 202
SWIDTH 540 0
DWIDTH 21 0
BBX 14 31 4 0
BITMAP
0700
0FC0
1DE0
78F0
0000
0000
0000
FFFC
FFFC
FFFC
E000
E000
E000
E000
E000
E000
E000
FFF8
FFF8
FFF8
E000
E000
E000
E000
E000
E000
E000
E000
FFFC
FFFC
FFFC
ENDCHAR
STARTCHAR 00CB
ENCODING 203
SWIDTH 540 0
DWIDTH 21 0
BBX 14 31 4 0
BITMAP
3030
7878
7878
3030
0000
0000
0000
FFFC
FFFC
FFFC
E000
E000
E000
E000
E000
E000
E000
FFF8
FFF8
FFF8
E000
E000
E000
E000
E000
E000
E000
E000
FFFC
FFFC
FFFC
ENDCHAR
STARTCHAR 00CC
ENCODING 204
SWIDTH 540 0
DWIDTH 21 0
BBX 15 31 3 0
BITMAP
7800
3E00
0F00
0780
0000
0000
0000
FFFE
FFFE
FFFE
0380
0380
0380
0380
0380
0380
0380
0380
0380
0380
0380
0380
0380
0380
0380
0380
0380
0380
FFFE
FFFE
FFFE
ENDCHAR
STARTCHAR 00CD
ENCODING 205
SWIDTH 540 0
DWIDTH 21 0
BBX 15 31 3 0
BITMAP
007C
00F0
01E0
0380
0000
0000
0000
FFFE
FFFE
FFFE
0380
0380
0380
0380
0380
0380
0380
0380
0380
0380
0380
0380
0380
0380
0380
0380
0380
0380
FFFE
FFFE
FFFE
ENDCHAR
STARTCHAR 00CE
ENCODING 206
SWIDTH 540 0
DWIDTH 21 0
BBX 15 31 3 0
BITMAP
0780
0FC0
1EF0
3878
0000
0000
0000
FFFE
FFFE
FFFE
0380
0380
0380
0380
0380
0380
0380
0380
0380
0380
0380
0380
0380
0380
0380
0380
0380
0380
FFFE
FFFE
FFFE
ENDCHAR
STARTCHAR 00CF
ENCODING 207
SWIDTH 540 0
DWIDTH 21 0
BBX 15 31 3 0
BITMAP
3030
7878
7878
3030
0000
0000
0000
FFFE
FFFE
FFFE
0380
0380
0380
0380
0380
0380
0380
0380
0380
0380
0380
0380
0380
0380
0380
0380
0380
0380
FFFE
FFFE
FFFE
ENDCHAR
STARTCHAR 00D0
ENCODING 208
SWIDTH 540 0
DWIDTH 21 0
BBX 19 24 0 0
BITMAP
1FF000
1FFE00
1FFF00
1C0F80
1C03C0
1C01C0
1C01E0
1C01E0
1C00E0
1C00E0
FFC0E0
FFC0E0
FFC0E0
1C00E0
1C00E0
1C00E0
1C01E0
1C01C0
1C03C0
1C0380
1C0F80
1FFF00
1FFC00
1FF000
ENDCHAR
STARTCHAR 00D1
ENCODING 209
SWIDTH 540 0
DWIDTH 21 0
BBX 17 31 2 0
BITMAP
0F0400
1FC600
3FFE00
30FC00
003800
000000
000000
F80380
F80380
FC0380
FC0380
FE0380
EE0380
EF0380
E70380
E78380
E38380
E38380
E1C380
E1C380
E1E380
E0E380
E0F380
E07380
E07B80
E03B80
E03F80
E01F80
E01F80
E00F80
E00F80
ENDCHAR
STARTCHAR 00D2
ENCODING 210
SWIDTH 540 0
DWIDTH 21 0
BBX 19 31 1 1
BITMAP
1F0000
078000
03C000
01E000
000000
000000
000000
01F800
0FFE00
1FFF00
3E0F80
3803C0
7803C0
7001C0
7001E0
F001E0
E000E0
E000E0
E000E0
E000E0
E000E0
E001E0
F001E0
F001C0
7001C0
7803C0
780780
3E0F80
1FFF00
0FFE00
03F000
ENDCHAR
STARTCHAR 00D3
ENCODING 211
SWIDTH 540 0
DWIDTH 21 0
BBX 19 31 1 0
BITMAP
001F00
003C00
007800
00F000
000000
000000
000000
01F800
0FFE00
1FFF00
3E0F80
3803C0
7803C0
7001C0
7001E0
F001E0
E000E0
E000E0
E000E0
E000E0
E000E0
E000E0
F001E0
F001C0
7001C0
7803C0
780780
3E0F80
1FFF00
0FFE00
03F000
ENDCHAR
STARTCHAR 00D4
ENCODING 212
SWIDTH 540 0
DWIDTH 21 0
BBX 19 30 1 1
BITMAP
01F000
07F800
0F1E00
000000
000000
000000
01F800
0FFE00
1FFF00
3E0F80
3803C0
7803C0
7001C0
7001E0
F001E0
E000E0
E000E0
E000E0
E000E0
E000E0
E000E0
F001E0
F001C0
7001C0
7803C0
780780
3E0F80
1FFF00
0FFE00
03F000
ENDCHAR
STARTCHAR 00D5
ENCODING 213
SWIDTH 540 0
DWIDTH 21 0
BBX 19 32 1 0
BITMAP
070000
0FC300
1FFF00
18FE00
003C00
000000
000000
000000
01F800
0FFE00
1FFF00
3E0F80
3803C0
7803C0
7001C0
7001E0
F001E0
E000E0
E000E0
E000E0
E000E0
E000E0
E000E0
F001E0
F001C0
7001C0
7803C0
780780
3E0F80
1FFF00
0FFE00
03F000
ENDCHAR
STARTCHAR 00D6
ENCODING 214
SWIDTH 540 0
DWIDTH 21 0
BBX 18 31 1 0
BITMAP
0C0C00
1E0E00
1E0E00
0C0C00
000000
000000
000000
03F000
0FFC00
1FFE00
3C0F00
380780
780380
7003C0
F001C0
F001C0
E001C0
E001C0
E001C0
E001C0
E001C0
E001C0
F001C0
F003C0
700380
780380
780780
3C0F00
1FFE00
0FFC00
03F000
ENDCHAR
STARTCHAR 00D7
ENCODING 215
SWIDTH 540 0
DWIDTH 21 0
BBX 15 14 3 3
BITMAP
600C
F01E
783C
3C78
1EF0
0FE0
07C0
07C0
0FE0
1EF0
3C78
783C
F01E
600C
ENDCHAR
STARTCHAR 00D8
ENCODING 216
SWIDTH 540 0
DWIDTH 21 0
BBX 19 33 1 -4
BITMAP
000700
000700
000600
000E00
000E00
01FE00
0FFE00
1FFF00
3E1F80
3C3BC0
783BC0
7039C0
7031E0
F071E0
E070E0
E060E0
E0E0E0
E0E0E0
E0C0E0
E1C0E0
F1C1E0
F181C0
7381C0
7B83C0
7B8780
3F0F80
1FFF00
0FFE00
0FF000
0E0000
0E0000
0C0000
1C0000
ENDCHAR
STARTCHAR 00D9
ENCODING 217
SWIDTH 540 0
DWIDTH 21 0
BBX 17 31 2 1
BITMAP
1E0000
0F0000
078000
03C000
000000
000000
000000
E00380
E00380
E00380
E00380
E00380
E00380
E00380
E00380
E00380
E00380
E00380
E00380
E00380
E00380
E00380
E00380
E00380
E00780
F00780
700700
780F00
3FFE00
1FFC00
07F000
ENDCHAR
STARTCHAR 00DA
ENCODING 218
SWIDTH 540 0
DWIDTH 21 0
BBX 17 31 2 0
BITMAP
003E00
007800
00F000
01E000
000000
000000
000000
E00380
E00380
E00380
E00380
E00380
E00380
E00380
E00380
E00380
E00380
E00380
E00380
E00380
E00380
E00380
E00380
E00380
E00780
F00780
700700
780F00
3FFE00
1FFC00
07F000
ENDCHAR
STARTCHAR 00DB
ENCODING 219
SWIDTH 540 0
DWIDTH 21 0
BBX 17 31 2 1
BITMAP
03E000
07F000
0F7800
1E3C00
000000
000000
000000
E00380
E00380
E00380
E00380
E00380
E00380
E00380
E00380
E00380
E00380
E00380
E00380
E00380
E00380
E00380
E00380
E00380
E00780
F00780
700700
780F00
3FFE00
1FFC00
07F000
ENDCHAR
STARTCHAR 00DC
ENCODING 220
SWIDTH 540 0
DWIDTH 21 0
BBX 17 31 2 0
BITMAP
180C00
3C1E00
3C1E00
180C00
000000
000000
000000
E00380
E00380
E00380
E00380
E00380
E00380
E00380
E00380
E00380
E00380
E00380
E00380
E00380
E00380
E00380
E00380
E00380
E00780
F00780
700700
780F00
3FFE00
1FFC00
07F000
ENDCHAR
STARTCHAR 00DD
ENCODING 221
SWIDTH 540 0
DWIDTH 21 0
BBX 21 31 0 0
BITMAP
000F80
001E00
003C00
007800
000000
000000
000000
F00078
7800F0
3C00F0
3C01E0
1E01E0
1E03C0
0F0380
070780
078700
038F00
03CE00
01DE00
01FC00
00F800
007800
007000
007000
007000
007000
007000
007000
007000
007000
007000
ENDCHAR
STARTCHAR 00DE
ENCODING 222
SWIDTH 540 0
DWIDTH 21 0
BBX 16 24 3 0
BITMAP
E000
E000
E000
FF80
FFF0
FFFC
E03E
E01E
E00F
E00F
E007
E007
E00F
E00F
E01E
E03C
FFFC
FFF0
FFC0
E000
E000
E000
E000
E000
ENDCHAR
STARTCHAR 00DF
ENCODING 223
SWIDTH 540 0
DWIDTH 21 0
BBX 16 26 3 0
BITMAP
07E0
1FF8
3FFC
783C
F01C
F01C
E01C
E03C
E078
E0F0
E1E0
E1C0
E1C0
E1C0
E1E0
E0F0
E07C
E03E
E01F
E00F
E007
E007
E00F
E1FF
E1FE
E1F8
ENDCHAR
STARTCHAR 00E0
ENCODING 224
SWIDTH 540 0
DWIDTH 21 0
BBX 15 26 2 0
BITMAP
3C00
1E00
0700
0380
0000
0000
0000
0FF0
3FF8
3FFC
201E
000E
000E
000E
03FE
1FFE
7FFE
780E
F00E
E00E
E00E
E01E
F07E
7FF6
3FE6
1F86
ENDCHAR
STARTCHAR 00E1
ENCODING 225
SWIDTH 540 0
DWIDTH 21 0
BBX 15 26 2 0
BITMAP
003C
0078
00F0
01C0
0000
0000
0000
0FF0
3FF8
3FFC
201E
000E
000E
000E
000E
1FFE
3FFE
780E
F00E
E00E
E00E
E01E
F07E
7FF6
3FE6
1F86
ENDCHAR
STARTCHAR 00E2
ENCODING 226
SWIDTH 540 0
DWIDTH 21 0
BBX 15 26 2 0
BITMAP
03C0
07E0
0E70
1C38
0000
0000
0000
0FF0
3FF8
3FFC
201E
000E
000E
000E
03FE
1FFE
7FFE
780E
F00E
E00E
E00E
E01E
F07E
7FF6
3FE6
1F86
ENDCHAR
STARTCHAR 00E3
ENCODING 227
SWIDTH 540 0
DWIDTH 21 0
BBX 15 26 2 0
BITMAP
0F04
1F8C
3FFC
31FC
0070
0000
0000
0FF0
3FF8
3FFC
201E
000E
000E
000E
03FE
1FFE
7FFE
780E
F00E
E00E
E00E
E01E
F07E
7FF6
3FE6
1F86
ENDCHAR
STARTCHAR 00E4
ENCODING 228
SWIDTH 540 0
DWIDTH 21 0
BBX 15 26 2 0
BITMAP
1818
3C3C
3C3C
1818
0000
0000
0000
0FF0
3FF8
3FFC
201E
000E
000E
000E
03FE
1FFE
7FFE
780E
F00E
E00E
E00E
E01E
F07E
7FF6
3FE6
1F86
ENDCHAR
STARTCHAR 00E5
ENCODING 229
SWIDTH 540 0
DWIDTH 21 0
BBX 15 28 2 0
BITMAP
03C0
07E0
0E70
0C30
0E70
07E0
03C0
0000
0000
0FF0
3FF8
3FFC
201E
000E
000E
000E
03FE
1FFE
7FFE
780E
F00E
E00E
E00E
E01E
F07E
7FFE
3FEE
1F8E
ENDCHAR
STARTCHAR 00E6
ENCODING 230
SWIDTH 540 0
DWIDTH 21 0
BBX 20 19 1 0
BITMAP
1F0F80
7F9FC0
7FFFE0
41F0E0
00F0F0
00E070
00E070
07FFF0
3FFFF0
7FFFF0
F0E000
F0E000
E0E000
E0F000
E1F000
F3F800
FF3FE0
7F3FE0
3C0FC0
ENDCHAR
STARTCHAR 00E7
ENCODING 231
SWIDTH 540 0
DWIDTH 21 0
BBX 15 24 3 -6
BITMAP
03FC
0FFE
1FFE
3E02
7800
7000
F000
F000
E000
E000
E000
E000
F000
7000
7800
7C02
3FFE
1FFE
03FC
03C0
0380
0380
0380
0780
ENDCHAR
STARTCHAR 00E8
ENCODING 232
SWIDTH 540 0
DWIDTH 21 0
BBX 16 26 2 0
BITMAP
3C00
1E00
0700
03C0
0000
0000
0000
07E0
0FF8
3FFC
3C1E
700F
7007
F007
E007
FFFF
FFFF
E000
E000
F000
7000
7800
7C00
3FFF
1FFF
03FE
ENDCHAR
STARTCHAR 00E9
ENCODING 233
SWIDTH 540 0
DWIDTH 21 0
BBX 16 26 2 0
BITMAP
003E
007C
00F0
01C0
0000
0000
0000
07E0
0FF8
3FFC
3C1E
700F
7007
F007
E007
FFFF
FFFF
E000
E000
F000
7000
7800
7C00
3FFF
1FFF
03FE
ENDCHAR
STARTCHAR 00EA
ENCODING 234
SWIDTH 540 0
DWIDTH 21 0
BBX 16 26 2 0
BITMAP
03C0
07E0
0E70
1C3C
0000
0000
0000
07E0
0FF8
3FFC
3C1E
700F
7007
F007
E007
FFFF
FFFF
FFFF
E000
F000
7000
7800
7C00
3FFF
1FFF
03FE
ENDCHAR
STARTCHAR 00EB
ENCODING 235
SWIDTH 540 0
DWIDTH 21 0
BBX 16 26 2 0
BITMAP
1818
3C3C
3C3C
1818
0000
0000
0000
07E0
0FF8
3FFC
3C1E
700F
7007
F007
E007
FFFF
FFFF
FFFF
E000
E000
7000
7800
7C00
3FFF
1FFF
03FE
ENDCHAR
STARTCHAR 00EC
ENCODING 236
SWIDTH 540 0
DWIDTH 21 0
BBX 15 26 3 0
BITMAP
7800
3C00
0E00
0780
0000
0000
0000
FF80
FF80
FF80
0380
0380
0380
0380
0380
0380
0380
0380
0380
0380
0380
0380
0380
FFFE
FFFE
FFFE
ENDCHAR
STARTCHAR 00ED
ENCODING 237
SWIDTH 540 0
DWIDTH 21 0
BBX 15 26 3 0
BITMAP
007C
00F0
01E0
0380
0000
0000
0000
FF80
FF80
FF80
0380
0380
0380
0380
0380
0380
0380
0380
0380
0380
0380
0380
0380
FFFE
FFFE
FFFE
ENDCHAR
STARTCHAR 00EE
ENCODING 238
SWIDTH 540 0
DWIDTH 21 0
BBX 15 26 3 0
BITMAP
0780
0FC0
1CE0
3878
0000
0000
0000
FF80
FF80
FF80
0380
0380
0380
0380
0380
0380
0380
0380
0380
0380
0380
0380
0380
FFFE
FFFE
FFFE
ENDCHAR
STARTCHAR 00EF
ENCODING 239
SWIDTH 540 0
DWIDTH 21 0
BBX 15 26 3 0
BITMAP
3038
7878
7878
3038
0000
0000
0000
FF80
FF80
FF80
0380
0380
0380
0380
0380
0380
0380
0380
0380
0380
0380
0380
0380
FFFE
FFFE
FFFE
ENDCHAR
STARTCHAR 00F0
ENCODING 240
SWIDTH 540 0
DWIDTH 21 0
BBX 17 26 2 0
BITMAP
0F0000
079E00
03FE00
1FFC00
1FF000
10F000
007800
03FC00
0FFC00
1FFE00
3C0E00
780F00
700700
F00780
F00780
E00380
E00380
E00380
E00380
F00780
700700
780F00
7C1E00
3FFE00
1FFC00
07F000
ENDCHAR
STARTCHAR 00F1
ENCODING 241
SWIDTH 540 0
DWIDTH 21 0
BBX 15 26 3 0
BITMAP
1E08
3F9C
7FFC
61F8
0060
0000
0000
E3F0
E7F8
EFFC
FC1C
F81E
F00E
E00E
E00E
E00E
E00E
E00E
E00E
E00E
E00E
E00E
E00E
E00E
E00E
E00E
ENDCHAR
STARTCHAR 00F2
ENCODING 242
SWIDTH 540 0
DWIDTH 21 0
BBX 17 26 2 0
BITMAP
3E0000
0F0000
078000
01C000
000000
000000
000000
03F000
0FFC00
1FFE00
3C1F00
780700
700780
F00380
E00380
E00380
E00380
E00380
E00380
F00380
700780
780700
7C1F00
3FFE00
1FFC00
07F000
ENDCHAR
STARTCHAR 00F3
ENCODING 243
SWIDTH 540 0
DWIDTH 21 0
BBX 17 26 2 0
BITMAP
001E00
007C00
00F000
01E000
000000
000000
000000
03F000
0FFC00
1FFE00
3C1F00
780700
700780
F00380
E00380
E00380
E00380
E00380
E00380
F00380
700780
780700
7C1F00
3FFE00
1FFC00
07F000
ENDCHAR
STARTCHAR 00F4
ENCODING 244
SWIDTH 540 0
DWIDTH 21 0
BBX 17 26 2 0
BITMAP
01E000
03F000
077800
1E1C00
000000
000000
000000
03F000
0FFC00
1FFE00
3C1F00
780700
700780
F00380
E00380
E00380
E00380
E00380
E00380
F00380
700780
780700
7C1F00
3FFE00
1FFC00
07F000
ENDCHAR
STARTCHAR 00F5
ENCODING 245
SWIDTH 540 0
DWIDTH 21 0
BBX 17 26 2 0
BITMAP
0F0400
1FC600
3FFE00
10FC00
003800
000000
000000
03F000
0FFC00
1FFE00
3C1F00
780700
700780
F00380
E00380
E00380
E00380
E00380
E00380
F00380
700780
780700
7C1F00
3FFE00
1FFC00
07F000
ENDCHAR
STARTCHAR 00F6
ENCODING 246
SWIDTH 540 0
DWIDTH 21 0
BBX 17 26 2 0
BITMAP
0C0C00
1E1E00
1E1E00
0C0C00
000000
000000
000000
03F000
0FFC00
1FFE00
3C1F00
780700
700780
F00380
E00380
E00380
E00380
E00380
E00380
F00380
700780
780700
7C1F00
3FFE00
1FFC00
07F000
ENDCHAR
STARTCHAR 00F7
ENCODING 247
SWIDTH 540 0
DWIDTH 21 0
BBX 18 19 2 0
BITMAP
01C000
03E000
03E000
03E000
01C000
000000
000000
000000
FFFFC0
FFFFC0
FFFFC0
000000
000000
000000
01C000
03E000
03E000
03E000
01C000
ENDCHAR
STARTCHAR 00F8
ENCODING 248
SWIDTH 540 0
DWIDTH 21 0
BBX 17 27 2 -4
BITMAP
000C00
001C00
001C00
001800
03F800
0FFC00
3FFE00
3C7F00
787700
706780
F0E380
E0E380
E0C380
E1C380
E1C380
E18380
F38380
738780
7B0700
3F0F00
3FFE00
1FFC00
0FF000
0E0000
0C0000
1C0000
1C0000
ENDCHAR
STARTCHAR 00F9
ENCODING 249
SWIDTH 540 0
DWIDTH 21 0
BBX 15 26 3 0
BITMAP
7C00
1E00
0F00
0380
0000
0000
0000
E00E
E00E
E00E
E00E
E00E
E00E
E00E
E00E
E00E
E00E
E00E
E00E
E00E
E01E
F03E
F07E
7FEE
3FCE
1F0E
ENDCHAR
STARTCHAR 00FA
ENCODING 250
SWIDTH 540 0
DWIDTH 21 0
BBX 15 26 3 0
BITMAP
007C
00F8
01E0
03C0
0000
0000
0000
E00E
E00E
E00E
E00E
E00E
E00E
E00E
E00E
E00E
E00E
E00E
E00E
E00E
E01E
F03E
F07E
7FEE
3FCE
1F0E
ENDCHAR
STARTCHAR 00FB
ENCODING 251
SWIDTH 540 0
DWIDTH 21 0
BBX 15 26 3 0
BITMAP
0380
0FE0
1EF0
3C78
0000
0000
0000
E00E
E00E
E00E
E00E
E00E
E00E
E00E
E00E
E00E
E00E
E00E
E00E
E00E
E01E
F03E
F07E
7FEE
3FCE
1F0E
ENDCHAR
STARTCHAR 00FC
ENCODING 252
SWIDTH 540 0
DWIDTH 21 0
BBX 15 26 3 0
BITMAP
1818
3C3C
3C3C
1818
0000
0000
0000
E00E
E00E
E00E
E00E
E00E
E00E
E00E
E00E
E00E
E00E
E00E
E00E
E00E
E01E
F03E
F07E
7FEE
3FCE
1F8E
ENDCHAR
STARTCHAR 00FD
ENCODING 253
SWIDTH 540 0
DWIDTH 21 0
BBX 18 34 1 -8
BITMAP
001F00
001E00
003C00
007000
00E000
000000
000000
F001C0
7003C0
7803C0
380380
380780
3C0700
1C0700
1E0F00
1E0E00
0E0E00
0F1E00
071C00
071C00
07BC00
03B800
03B800
01F000
01F000
01F000
01E000
01E000
03C000
03C000
0F8000
FF0000
FE0000
F80000
ENDCHAR
STARTCHAR 00FE
ENCODING 254
SWIDTH 540 0
DWIDTH 21 0
BBX 16 34 3 -8
BITMAP
E000
E000
E000
E000
E000
E000
E000
E1F0
E7F8
EFFC
FC1E
F80E
F00F
E00F
E007
E007
E007
E007
E00F
E00F
E00E
E01E
E03C
FFF8
FFF0
FFC0
E000
E000
E000
E000
E000
E000
E000
E000
ENDCHAR
STARTCHAR 00FF
ENCODING 255
SWIDTH 540 0
DWIDTH 21 0
BBX 18 34 1 -8
BITMAP
0C0C00
1E1E00
1E1E00
0C0C00
000000
000000
000000
F003C0
700380
700380
780780
380700
380700
1C0F00
1C0E00
1E0E00
0E1E00
0E1C00
0F1C00
073C00
073800
07B800
03F000
03F000
01F000
01E000
01E000
03C000
03C000
078000
0F8000
FF0000
FE0000
F80000
ENDCHAR
STARTCHAR 0100
ENCODING 256
SWIDTH 540 0
DWIDTH 21 0
BBX 21 30 0 0
BITMAP
07FF00
07FF00
07FF00
000000
000000
000000
00F800
00F800
01FC00
01DC00
01DC00
03DE00
038E00
038E00
078F00
070700
070700
0F0780
0E0380
0E0380
1E03C0
1C01C0
1FFFC0
3FFFE0
3FFFE0
7800E0
7800F0
700070
F00070
F00078
ENDCHAR
STARTCHAR 0101
ENCODING 257
SWIDTH 540 0
DWIDTH 21 0
BBX 15 26 2 0
BITMAP
1FF8
1FF8
1FF8
0000
0000
0000
0000
0FF0
3FF8
3FFC
201E
000E
000E
000E
03FE
1FFE
7FFE
780E
F00E
E00E
E00E
E01E
F07E
7FF6
3FE6
1F86
ENDCHAR
STARTCHAR 0102
ENCODING 258
SWIDTH 540 0
DWIDTH 21 0
BBX 20 31 1 0
BITMAP
070E00
070E00
03FC00
03FC00
00F000
000000
000000
00F000
01F800
01F800
01F800
03BC00
039C00
039C00
079E00
070E00
070E00
0F0F00
0E0700
0E0700
1E0780
1C0380
1C0380
3FFFC0
3FFFC0
3FFFC0
7801E0
7000E0
7000E0
F000F0
E00070
ENDCHAR
STARTCHAR 0103
ENCODING 259
SWIDTH 540 0
DWIDTH 21 0
BBX 15 26 2 0
BITMAP
0C30
0E70
0FF0
07E0
0180
0000
0000
0FF0
3FFC
3FFC
201E
001E
000E
000E
000E
1FFE
3FFE
7C0E
F00E
F00E
F00E
F01E
F87E
7FFE
7FEE
1F8E
ENDCHAR
STARTCHAR 0104
ENCODING 260
SWIDTH 540 0
DWIDTH 21 0
BBX 21 32 0 -8
BITMAP
00F800
00F800
01FC00
01DC00
01DC00
03DE00
038E00
038E00
078F00
070700
070700
0F0780
0F0380
0E03C0
1E03C0
1E03C0
1FFFE0
3FFFE0
3FFFE0
3800F0
7800F0
780070
700078
F00078
000070
0000E0
0001E0
0001C0
0001E0
0001F8
0000F8
000078
ENDCHAR
STARTCHAR 0105
ENCODING 261
SWIDTH 540 0
DWIDTH 21 0
BBX 16 26 2 -7
BITMAP
0FF0
3FF8
3FFC
201E
000E
000E
000E
03FE
1FFE
7FFE
780E
F00E
E00E
E00E
E01E
F07E
7FF6
3FE6
1F86
000E
001C
0038
0038
003F
003F
000F
ENDCHAR
STARTCHAR 0106
ENCODING 262
SWIDTH 540 0
DWIDTH 21 0
BBX 17 30 2 1
BITMAP
001F00
003C00
00F000
000000
000000
000000
01FE00
07FF80
0FFF80
1F0180
3C0000
780000
700000
700000
F00000
F00000
E00000
E00000
E00000
E00000
E00000
F00000
F00000
700000
780000
3C0000
3E0080
1FFF80
07FF80
01FE00
ENDCHAR
STARTCHAR 0107
ENCODING 263
SWIDTH 540 0
DWIDTH 21 0
BBX 15 26 3 0
BITMAP
001E
007C
00F0
01E0
0000
0000
0000
03FC
0FFE
1FFE
3E02
7800
7000
F000
F000
E000
E000
E000
E000
F000
7000
7800
7C02
3FFE
0FFE
03FC
ENDCHAR
STARTCHAR 0108
ENCODING 264
SWIDTH 540 0
DWIDTH 21 0
BBX 17 30 2 1
BITMAP
01F800
03FC00
070E00
000000
000000
000000
01FE00
07FF80
0FFF80
1F0180
3C0000
780000
700000
700000
F00000
F00000
E00000
E00000
E00000
E00000
E00000
F00000
F00000
700000
780000
3C0000
3E0080
1FFF80
07FF80
01FE00
ENDCHAR
STARTCHAR 0109
ENCODING 265
SWIDTH 540 0
DWIDTH 21 0
BBX 15 26 3 0
BITMAP
03C0
07F0
0F78
1C3C
0000
0000
0000
03FC
0FFE
1FFE
3E02
7800
7000
F000
F000
E000
E000
E000
E000
F000
7000
7800
7C02
3FFE
0FFE
03FC
ENDCHAR
STARTCHAR 010A
ENCODING 266
SWIDTH 540 0
DWIDTH 21 0
BBX 17 32 2 0
BITMAP
00E000
01F000
01F000
01F000
00E000
000000
000000
000000
01FE00
07FF80
0FFF80
1F0180
3C0000
780000
700000
700000
F00000
F00000
E00000
E00000
E00000
E00000
E00000
F00000
F00000
700000
780000
3C0000
3E0080
1FFF80
07FF80
01FE00
ENDCHAR
STARTCHAR 010B
ENCODING 267
SWIDTH 540 0
DWIDTH 21 0
BBX 15 26 3 0
BITMAP
01C0
03E0
03E0
03E0
01C0
0000
0000
03FC
0FFE
1FFE
3E02
7800
7000
F000
F000
E000
E000
E000
E000
F000
7000
7800
7C02
3FFE
0FFE
03FC
ENDCHAR
STARTCHAR 010C
ENCODING 268
SWIDTH 540 0
DWIDTH 21 0
BBX 17 30 2 1
BITMAP
079E00
03FC00
00F000
000000
000000
000000
01FE00
07FF80
0FFF80
1F0180
3C0000
780000
700000
700000
F00000
E00000
E00000
E00000
E00000
E00000
E00000
F00000
F00000
700000
780000
3C0000
3F0180
1FFF80
07FF80
01FE00
ENDCHAR
STARTCHAR 010D
ENCODING 269
SWIDTH 540 0
DWIDTH 21 0
BBX 15 26 3 0
BITMAP
1E1C
0738
03F0
01E0
0000
0000
0000
03FC
0FFE
1FFE
3E02
7800
7000
F000
F000
E000
E000
E000
E000
F000
7000
7800
7C02
3FFE
0FFE
03FC
ENDCHAR
STARTCHAR 010E
ENCODING 270
SWIDTH 540 0
DWIDTH 21 0
BBX 17 31 2 0
BITMAP
383800
1E7000
0FE000
03C000
000000
000000
000000
FFC000
FFF800
FFFC00
E03E00
E00F00
E00700
E00780
E00780
E00380
E00380
E00380
E00380
E00380
E00380
E00380
E00380
E00780
E00700
E00F00
E01E00
E03E00
FFFC00
FFF000
FF8000
ENDCHAR
STARTCHAR 010F
ENCODING 271
SWIDTH 540 0
DWIDTH 21 0
BBX 22 27 1 0
BITMAP
00003C
000F38
000F38
000F70
000F70
000F00
000F00
000F00
03FF00
0FFF00
1FFF00
3C0F00
780F00
700F00
F00F00
E00F00
E00F00
E00F00
E00F00
E00F00
F00F00
F01F00
703F00
787F00
3FF700
3FE700
0F8700
ENDCHAR
STARTCHAR 0110
ENCODING 272
SWIDTH 540 0
DWIDTH 21 0
BBX 19 24 0 0
BITMAP
1FF000
1FFE00
1FFF00
1C0F80
1C03C0
1C01C0
1C01E0
1C01E0
1C00E0
1C00E0
FFC0E0
FFC0E0
FFC0E0
1C00E0
1C00E0
1C00E0
1C01E0
1C01C0
1C03C0
1C0380
1C0F80
1FFF00
1FFC00
1FF000
ENDCHAR
STARTCHAR 0111
ENCODING 273
SWIDTH 540 0
DWIDTH 21 0
BBX 19 26 2 0
BITMAP
000700
000700
01FFE0
01FFE0
01FFE0
000700
000700
03FF00
0FFF00
1FFF00
3C0700
780700
700700
F00700
E00700
E00700
E00700
E00700
E00700
F00F00
F01F00
701F00
787F00
3FF700
3FE700
0F8700
ENDCHAR
STARTCHAR 0112
ENCODING 274
SWIDTH 540 0
DWIDTH 21 0
BBX 14 30 4 0
BITMAP
7FF0
7FF0
7FF0
0000
0000
0000
FFFC
FFFC
FFFC
E000
E000
E000
E000
E000
E000
E000
FFF8
FFF8
FFF8
E000
E000
E000
E000
E000
E000
E000
E000
FFFC
FFFC
FFFC
ENDCHAR
STARTCHAR 0113
ENCODING 275
SWIDTH 540 0
DWIDTH 21 0
BBX 16 26 2 0
BITMAP
1FF8
1FF8
1FF8
0000
0000
0000
0000
07E0
0FF8
3FFC
3C1E
700F
7007
F007
E007
FFFF
FFFF
FFFF
E000
F000
7000
7800
7C00
3FFF
1FFF
03FE
ENDCHAR
STARTCHAR 0114
ENCODING 276
SWIDTH 540 0
DWIDTH 21 0
BBX 14 31 4 0
BITMAP
3870
3870
3FE0
1FE0
0780
0000
0000
FFFC
FFFC
FFFC
E000
E000
E000
E000
E000
E000
E000
FFF8
FFF8
FFF8
E000
E000
E000
E000
E000
E000
E000
E000
FFFC
FFFC
FFFC
ENDCHAR
STARTCHAR 0115
ENCODING 277
SWIDTH 540 0
DWIDTH 21 0
BBX 16 26 2 0
BITMAP
1C38
1E38
0FF0
07F0
01C0
0000
0000
07E0
0FF8
3FFC
3C1E
700F
7007
F007
E007
FFFF
FFFF
E000
E000
F000
7000
7800
7C00
3FFF
1FFF
03FE
ENDCHAR
STARTCHAR 0116
ENCODING 278
SWIDTH 540 0
DWIDTH 21 0
BBX 14 31 4 0
BITMAP
0700
0F80
0F80
0F80
0700
0000
0000
FFFC
FFFC
FFFC
E000
E000
E000
E000
E000
E000
E000
FFF8
FFF8
FFF8
E000
E000
E000
E000
E000
E000
E000
E000
FFFC
FFFC
FFFC
ENDCHAR
STARTCHAR 0117
ENCODING 279
SWIDTH 540 0
DWIDTH 21 0
BBX 16 26 2 0
BITMAP
01C0
03E0
03E0
03E0
01C0
0000
0000
07E0
0FF8
3FFC
3C1E
700F
7007
F007
E007
FFFF
FFFF
FFFF
E000
F000
7000
7800
7C00
3FFF
1FFF
03FE
ENDCHAR
STARTCHAR 0118
ENCODING 280
SWIDTH 540 0
DWIDTH 21 0
BBX 15 32 4 -8
BITMAP
FFFC
FFFC
FFFC
E000
E000
E000
E000
E000
E000
E000
FFF8
FFF8
FFF8
E000
E000
E000
E000
E000
E000
E000
E000
FFFC
FFFC
FFFC
0018
0038
0070
0070
0070
007E
007E
001E
ENDCHAR
STARTCHAR 0119
ENCODING 281
SWIDTH 540 0
DWIDTH 21 0
BBX 16 26 2 -7
BITMAP
07E0
0FF8
3FFC
3C1E
700F
7007
F007
E007
FFFF
FFFF
FFFF
E000
F000
7000
7800
7C00
3FFF
1FFF
03FC
0030
0070
00E0
00E0
00FC
00FC
003C
ENDCHAR
STARTCHAR 011A
ENCODING 282
SWIDTH 540 0
DWIDTH 21 0
BBX 14 31 4 0
BITMAP
7078
3CE0
1FC0
0780
0000
0000
0000
FFFC
FFFC
FFFC
E000
E000
E000
E000
E000
E000
E000
FFF8
FFF8
FFF8
E000
E000
E000
E000
E000
E000
E000
E000
FFFC
FFFC
FFFC
ENDCHAR
STARTCHAR 011B
ENCODING 283
SWIDTH 540 0
DWIDTH 21 0
BBX 16 26 2 0
BITMAP
1C3C
0F70
07E0
03C0
0000
0000
0000
07E0
0FF8
3FFC
3C1E
700F
7007
F007
E007
FFFF
FFFF
E000
E000
F000
7000
7800
7C00
3FFF
1FFF
03FE
ENDCHAR
STARTCHAR 011C
ENCODING 284
SWIDTH 540 0
DWIDTH 21 0
BBX 17 30 1 1
BITMAP
00F800
03FC00
070E00
000000
000000
000000
00FE00
07FF80
0FFF80
1F0080
3C0000
380000
780000
700000
F00000
F00000
E07F80
E07F80
E07F80
E00380
E00380
F00380
F00380
700380
780380
3C0380
3E0380
1FFF80
07FF80
01FE00
ENDCHAR
STARTCHAR 011D
ENCODING 285
SWIDTH 540 0
DWIDTH 21 0
BBX 17 34 2 -8
BITMAP
01E000
03F000
0F7800
1E1C00
000000
000000
000000
07FF80
1FFF80
3FFF80
3C1E00
780F00
700700
700700
700700
780F00
3C1E00
3FFE00
3FF800
73F000
700000
700000
700000
7FF800
3FFF00
3FFF80
780780
F00380
E00380
E00380
F00F80
7FFF00
3FFE00
0FF000
ENDCHAR
STARTCHAR 011E
ENCODING 286
SWIDTH 540 0
DWIDTH 21 0
BBX 17 30 1 1
BITMAP
07FF00
03FE00
01FC00
000000
000000
000000
00FE00
07FF80
0FFF80
1F0080
3C0000
380000
780000
700000
F00000
F00000
E07F80
E07F80
E07F80
E00380
E00380
F00380
F00380
700380
780380
3C0380
3E0380
1FFF80
07FF80
01FE00
ENDCHAR
STARTCHAR 011F
ENCODING 287
SWIDTH 540 0
DWIDTH 21 0
BBX 17 34 2 -8
BITMAP
0E1C00
0E3C00
07F800
07F000
01C000
000000
000000
07FF80
1FFF80
3FFF80
3C1E00
780F00
700700
700700
700700
780F00
3C1E00
3FFE00
3FFC00
73F000
700000
700000
700000
7FFC00
3FFF00
3FFF80
780780
F00380
E00380
E00380
F00F80
7FFF00
3FFE00
0FF000
ENDCHAR
STARTCHAR 0120
ENCODING 288
SWIDTH 540 0
DWIDTH 21 0
BBX 17 32 1 0
BITMAP
007000
00F800
00F800
00F800
007000
000000
000000
000000
00FE00
07FF80
0FFF80
1F0080
3C0000
380000
780000
700000
F00000
F00000
E07F80
E07F80
E07F80
E00380
E00380
F00380
F00380
700380
780380
3C0380
3E0380
1FFF80
07FF80
01FE00
ENDCHAR
STARTCHAR 0121
ENCODING 289
SWIDTH 540 0
DWIDTH 21 0
BBX 17 34 2 -8
BITMAP
01C000
03E000
03E000
03E000
01C000
000000
000000
07FF80
1FFF80
3FFF80
3C1E00
780F00
700700
700700
700700
780F00
3C1E00
3FFE00
3FF800
77F000
700000
700000
700000
7FF800
3FFF00
3FFF80
780780
F00380
E00380
E00380
F00F80
7FFF00
3FFE00
0FF000
ENDCHAR
STARTCHAR 0122
ENCODING 290
SWIDTH 540 0
DWIDTH 21 0
BBX 17 32 1 -8
BITMAP
00FE00
07FF80
0FFF80
1F0180
3C0000
380000
780000
700000
F00000
F00000
E00000
E07F80
E07F80
E07F80
E00380
F00380
F00380
700380
780380
3C0380
3E0380
1FFF80
07FF80
01FE00
000000
000000
000000
00E000
01C000
01C000
01C000
018000
ENDCHAR
STARTCHAR 0123
ENCODING 291
SWIDTH 540 0
DWIDTH 21 0
BBX 17 35 2 -8
BITMAP
007000
00E000
00E000
01E000
01C000
000000
000000
000000
07FF80
1FFF80
3FFF80
3C1E00
780F00
700700
700700
700700
780F00
3C1E00
3FFE00
3FF800
73F000
700000
700000
700000
7FF800
3FFF00
3FFF80
780780
F00380
E00380
E00380
F00F80
7FFF00
3FFE00
0FF000
ENDCHAR
STARTCHAR 0124
ENCODING 292
SWIDTH 540 0
DWIDTH 21 0
BBX 17 31 2 0
BITMAP
01C000
07F000
0F7800
1E3C00
000000
000000
000000
E00380
E00380
E00380
E00380
E00380
E00380
E00380
E00380
E00380
E00380
FFFF80
FFFF80
FFFF80
E00380
E00380
E00380
E00380
E00380
E00380
E00380
E00380
E00380
E00380
E00380
ENDCHAR
STARTCHAR 0125
ENCODING 293
SWIDTH 540 0
DWIDTH 21 0
BBX 15 32 3 0
BITMAP
0380
0FE0
1EF0
3C78
0000
0000
E000
E000
E000
E000
E000
E000
E000
E1F0
E7F8
EFFC
FC1C
F81E
F00E
E00E
E00E
E00E
E00E
E00E
E00E
E00E
E00E
E00E
E00E
E00E
E00E
E00E
ENDCHAR
STARTCHAR 0126
ENCODING 294
SWIDTH 540 0
DWIDTH 21 0
BBX 20 24 1 0
BITMAP
3801C0
3801C0
3801C0
3801C0
FFFFF0
FFFFF0
FFFFF0
3801C0
3801C0
3801C0
3FFFC0
3FFFC0
3FFFC0
3801C0
3801C0
3801C0
3801C0
3801C0
3801C0
3801C0
3801C0
3801C0
3801C0
3801C0
ENDCHAR
STARTCHAR 0127
ENCODING 295
SWIDTH 540 0
DWIDTH 21 0
BBX 18 26 0 0
BITMAP
1C0000
1C0000
FFF000
FFF000
FFF000
1C0000
1C0000
1C0000
1C3E00
1CFF00
1DFF80
1F8380
1F03C0
1E01C0
1C01C0
1C01C0
1C01C0
1C01C0
1C01C0
1C01C0
1C01C0
1C01C0
1C01C0
1C01C0
1C01C0
1C01C0
ENDCHAR
STARTCHAR 0128
ENCODING 296
SWIDTH 540 0
DWIDTH 21 0
BBX 15 31 3 0
BITMAP
1E08
3F8C
7FFC
63F8
0070
0000
0000
FFFE
FFFE
FFFE
0380
0380
0380
0380
0380
0380
0380
0380
0380
0380
0380
0380
0380
0380
0380
0380
0380
0380
FFFE
FFFE
FFFE
ENDCHAR
STARTCHAR 0129
ENCODING 297
SWIDTH 540 0
DWIDTH 21 0
BBX 15 26 3 0
BITMAP
1E08
7F1C
7FFC
63F8
00E0
0000
0000
FF80
FF80
FF80
0380
0380
0380
0380
0380
0380
0380
0380
0380
0380
0380
0380
0380
FFFE
FFFE
FFFE
ENDCHAR
STARTCHAR 012A
ENCODING 298
SWIDTH 540 0
DWIDTH 21 0
BBX 15 30 3 0
BITMAP
3FF8
3FF8
3FF8
0000
0000
0000
FFFE
FFFE
FFFE
0380
0380
0380
0380
0380
0380
0380
0380
0380
0380
0380
0380
0380
0380
0380
0380
0380
0380
FFFE
FFFE
FFFE
ENDCHAR
STARTCHAR 012B
ENCODING 299
SWIDTH 540 0
DWIDTH 21 0
BBX 15 26 3 0
BITMAP
3FF0
3FF0
3FF0
0000
0000
0000
0000
FF80
FF80
FF80
0380
0380
0380
0380
0380
0380
0380
0380
0380
0380
0380
0380
0380
FFFE
FFFE
FFFE
ENDCHAR
STARTCHAR 012C
ENCODING 300
SWIDTH 540 0
DWIDTH 21 0
BBX 15 31 3 0
BITMAP
3870
3870
1FF0
1FE0
0780
0000
0000
FFFE
FFFE
FFFE
0380
0380
0380
0380
0380
0380
0380
0380
0380
0380
0380
0380
0380
0380
0380
0380
0380
0380
FFFE
FFFE
FFFE
ENDCHAR
STARTCHAR 012D
ENCODING 301
SWIDTH 540 0
DWIDTH 21 0
BBX 15 26 3 0
BITMAP
3860
3C60
1FE0
1FC0
0700
0000
0000
FF80
FF80
FF80
0380
0380
0380
0380
0380
0380
0380
0380
0380
0380
0380
0380
0380
FFFE
FFFE
FFFE
ENDCHAR
STARTCHAR 012E
ENCODING 302
SWIDTH 540 0
DWIDTH 21 0
BBX 15 32 3 -8
BITMAP
FFFE
FFFE
FFFE
0380
0380
0380
0380
0380
0380
0380
0380
0380
0380
0380
0380
0380
0380
0380
0380
0380
0380
FFFE
FFFE
FFFE
001C
0038
0078
0070
0078
007E
003E
001E
ENDCHAR
STARTCHAR 012F
ENCODING 303
SWIDTH 540 0
DWIDTH 21 0
BBX 16 34 3 -8
BITMAP
0380
07C0
07C0
07C0
0380
0000
0000
FF80
FF80
FF80
0380
0380
0380
0380
0380
0380
0380
0380
0380
0380
0380
0380
0380
FFFE
FFFE
FFFE
000E
001C
0038
0038
003C
003F
001F
000F
ENDCHAR
STARTCHAR 0130
ENCODING 304
SWIDTH 540 0
DWIDTH 21 0
BBX 15 31 3 0
BITMAP
0380
07C0
07C0
07C0
0380
0000
0000
FFFE
FFFE
FFFE
0380
0380
0380
0380
0380
0380
0380
0380
0380
0380
0380
0380
0380
0380
0380
0380
0380
0380
FFFE
FFFE
FFFE
ENDCHAR
STARTCHAR 0131
ENCODING 305
SWIDTH 540 0
DWIDTH 21 0
BBX 15 19 3 0
BITMAP
FF80
FF80
FF80
0380
0380
0380
0380
0380
0380
0380
0380
0380
0380
0380
0380
0380
FFFE
FFFE
FFFE
ENDCHAR
STARTCHAR 0132
ENCODING 306
SWIDTH 540 0
DWIDTH 21 0
BBX 17 24 2 0
BITMAP
E00380
E00380
E00380
E00380
E00380
E00380
E00380
E00380
E00380
E00380
E00380
E00380
E00380
E00380
E00380
E00380
E00380
E00380
E00380
E00780
E00F00
E1FF00
E1FE00
E1F800
ENDCHAR
STARTCHAR 0133
ENCODING 307
SWIDTH 540 0
DWIDTH 21 0
BBX 17 34 2 -8
BITMAP
700700
F80F80
F80F80
F80F80
700700
000000
000000
700700
700700
700700
700700
700700
700700
700700
700700
700700
700700
700700
700700
700700
700700
700700
700700
700700
700700
700700
000700
000700
000F00
000E00
081E00
0FFC00
0FF800
07E000
ENDCHAR
STARTCHAR 0134
ENCODING 308
SWIDTH 540 0
DWIDTH 21 0
BBX 13 31 3 0
BITMAP
0380
07C0
1EF0
3C78
0000
0000
0000
7FF8
7FF8
7FF8
0038
0038
0038
0038
0038
0038
0038
0038
0038
0038
0038
0038
0038
0038
0038
0038
0078
C0F0
FFF0
FFE0
3F80
ENDCHAR
STARTCHAR 0135
ENCODING 309
SWIDTH 540 0
DWIDTH 21 0
BBX 14 34 2 -8
BITMAP
03C0
07E0
0E70
1C3C
0000
0000
0000
7FF8
7FF8
7FF8
0038
0038
0038
0038
0038
0038
0038
0038
0038
0038
0038
0038
0038
0038
0038
0038
0038
0038
0038
0078
80F0
FFE0
FFC0
7F00
ENDCHAR
STARTCHAR 0136
ENCODING 310
SWIDTH 540 0
DWIDTH 21 0
BBX 16 32 3 -8
BITMAP
E00F
E01E
E03C
E078
E070
E0F0
E1E0
E3C0
E780
E700
EE00
FE00
EE00
EF00
E780
E3C0
E1E0
E1E0
E0F0
E078
E03C
E03E
E01E
E00F
0000
0000
0000
0380
0380
0380
0700
0700
ENDCHAR
STARTCHAR 0137
ENCODING 311
SWIDTH 540 0
DWIDTH 21 0
BBX 16 34 3 -8
BITMAP
E000
E000
E000
E000
E000
E000
E000
E01E
E03C
E078
E0F0
E1E0
E3C0
E780
EF00
FE00
EF00
E780
E3C0
E3E0
E1E0
E0F0
E078
E03C
E01E
E00F
0000
0000
0000
0380
0380
0700
0700
0700
ENDCHAR
STARTCHAR 0138
ENCODING 312
SWIDTH 540 0
DWIDTH 21 0
BBX 16 19 3 0
BITMAP
E01E
E03C
E078
E0F0
E1E0
E3C0
E780
EF00
FE00
EF00
E780
E3C0
E3E0
E1E0
E0F0
E078
E03C
E01E
E00F
ENDCHAR
STARTCHAR 0139
ENCODING 313
SWIDTH 540 0
DWIDTH 21 0
BBX 14 31 4 0
BITMAP
00F0
01E0
03C0
0700
0000
0000
0000
E000
E000
E000
E000
E000
E000
E000
E000
E000
E000
E000
E000
E000
E000
E000
E000
E000
E000
E000
E000
E000
FFFC
FFFC
FFFC
ENDCHAR
STARTCHAR 013A
ENCODING 314
SWIDTH 540 0
DWIDTH 21 0
BBX 15 32 3 0
BITMAP
007C
00F8
01E0
03C0
0000
0000
FF80
FF80
FF80
0380
0380
0380
0380
0380
0380
0380
0380
0380
0380
0380
0380
0380
0380
0380
0380
0380
0380
0380
0380
FFFE
FFFE
FFFE
ENDCHAR
STARTCHAR 013B
ENCODING 315
SWIDTH 540 0
DWIDTH 21 0
BBX 14 32 4 -8
BITMAP
E000
E000
E000
E000
E000
E000
E000
E000
E000
E000
E000
E000
E000
E000
E000
E000
E000
E000
E000
E000
E000
FFFC
FFFC
FFFC
0000
0000
0000
0700
0F00
0E00
0E00
0E00
ENDCHAR
STARTCHAR 013C
ENCODING 316
SWIDTH 540 0
DWIDTH 21 0
BBX 15 34 3 -8
BITMAP
FF80
FF80
FF80
0380
0380
0380
0380
0380
0380
0380
0380
0380
0380
0380
0380
0380
0380
0380
0380
0380
0380
0380
0380
FFFE
FFFE
FFFE
0000
0000
0000
0380
0380
0700
0700
0700
ENDCHAR
STARTCHAR 013D
ENCODING 317
SWIDTH 540 0
DWIDTH 21 0
BBX 14 27 4 0
BITMAP
1C
38
38
F8
F0
E0
E0
E0
E0
E0
E0
E0
E0
E0
E0
E0
E0
E0
E0
E0
E0
E0
E0
E0
FF
FF
FF
ENDCHAR
STARTCHAR 013E
ENCODING 318
SWIDTH 540 0
DWIDTH 21 0
BBX 17 27 3 0
BITMAP
000380
FF8780
FF8700
FF8700
038600
038000
038000
038000
038000
038000
038000
038000
038000
038000
038000
038000
038000
038000
038000
038000
038000
038000
038000
038000
FFFE00
FFFE00
FFFE00
ENDCHAR
STARTCHAR 013F
ENCODING 319
SWIDTH 540 0
DWIDTH 21 0
BBX 17 24 4 0
BITMAP
E00000
E00000
E00000
E00000
E00000
E00000
E00000
E00000
E00000
E00000
E00F00
E01F80
E01F80
E01F80
E01F80
E00F00
E00000
E00000
E00000
E00000
E00000
FFFC00
FFFC00
FFFC00
ENDCHAR
STARTCHAR 0140
ENCODING 320
SWIDTH 540 0
DWIDTH 21 0
BBX 21 26 2 0
BITMAP
FF8000
FF8000
FF8000
038000
038000
038000
038000
038000
038000
038000
038000
038000
0380F0
0381F8
0381F8
0381F8
0381F8
0380F0
038000
038000
038000
038000
038000
FFFE00
FFFE00
FFFE00
ENDCHAR
STARTCHAR 0141
ENCODING 321
SWIDTH 540 0
DWIDTH 21 0
BBX 18 24 1 0
BITMAP
0E0000
0E0000
0E0000
0E0000
0E0000
0E0400
0E1C00
0E7C00
0FF800
0FE000
1F8000
7E0000
FE0000
EE0000
8E0000
0E0000
0E0000
0E0000
0E0000
0E0000
0E0000
0FFFC0
0FFFC0
0FFFC0
ENDCHAR
STARTCHAR 0142
ENCODING 322
SWIDTH 540 0
DWIDTH 21 0
BBX 15 26 3 0
BITMAP
7F80
7F80
7F80
0380
0380
0380
0380
0386
039E
03FE
03F8
07E0
1F80
7F80
7B80
6380
0380
0380
0380
0380
0380
0380
0380
FFFE
FFFE
FFFE
ENDCHAR
STARTCHAR 0143
ENCODING 323
SWIDTH 540 0
DWIDTH 21 0
BBX 17 31 2 0
BITMAP
003E00
007C00
00F000
01E000
000000
000000
000000
F80380
F80380
FC0380
FC0380
FE0380
EE0380
EF0380
E70380
E78380
E38380
E38380
E1C380
E1C380
E1E380
E0E380
E0F380
E07380
E07B80
E03B80
E03F80
E01F80
E01F80
E00F80
E00F80
ENDCHAR
STARTCHAR 0144
ENCODING 324
SWIDTH 540 0
DWIDTH 21 0
BBX 15 26 3 0
BITMAP
007C
00F0
01E0
0380
0000
0000
0000
E3F0
E7F8
EFFC
FC1C
F81E
F00E
E00E
E00E
E00E
E00E
E00E
E00E
E00E
E00E
E00E
E00E
E00E
E00E
E00E
ENDCHAR
STARTCHAR 0145
ENCODING 325
SWIDTH 540 0
DWIDTH 21 0
BBX 17 32 2 -8
BITMAP
F80380
F80380
FC0380
FC0380
FE0380
EE0380
EF0380
E70380
E78380
E38380
E38380
E1C380
E1C380
E1E380
E0E380
E0F380
E07380
E07B80
E03B80
E03F80
E01F80
E01F80
E00F80
E00F80
000000
000000
000000
01C000
01C000
01C000
038000
038000
ENDCHAR
STARTCHAR 0146
ENCODING 326
SWIDTH 540 0
DWIDTH 21 0
BBX 15 27 3 -8
BITMAP
E3F0
E7F8
EFFC
FC1C
F81E
F00E
E00E
E00E
E00E
E00E
E00E
E00E
E00E
E00E
E00E
E00E
E00E
E00E
E00E
0000
0000
0000
0380
0380
0380
0700
0700
ENDCHAR
STARTCHAR 0147
ENCODING 327
SWIDTH 540 0
DWIDTH 21 0
BBX 17 31 2 0
BITMAP
1C1C00
0F7800
07F000
03E000
000000
000000
000000
F80380
F80380
FC0380
FC0380
FE0380
EE0380
EF0380
E70380
E78380
E38380
E38380
E1C380
E1C380
E1E380
E0E380
E0F380
E07380
E07B80
E03B80
E03F80
E01F80
E01F80
E00F80
E00F80
ENDCHAR
STARTCHAR 0148
ENCODING 328
SWIDTH 540 0
DWIDTH 21 0
BBX 15 26 3 0
BITMAP
3C78
1EF0
0FE0
0380
0000
0000
0000
E3F0
E7F8
EFFC
FC1C
F81E
F00E
E00E
E00E
E00E
E00E
E00E
E00E
E00E
E00E
E00E
E00E
E00E
E00E
E00E
ENDCHAR
STARTCHAR 0149
ENCODING 329
SWIDTH 540 0
DWIDTH 21 0
BBX 18 29 0 1
BITMAP
3C0000
3C0000
3C0000
1C0000
1C0000
1C0000
380000
F00000
E00000
000000
0E3E00
0E7F80
0EFF80
0FC3C0
0F81C0
0F01C0
0E01C0
0E01C0
0E01C0
0E01C0
0E01C0
0E01C0
0E01C0
0E01C0
0E01C0
0E01C0
0E01C0
0E01C0
0E01C0
ENDCHAR
STARTCHAR 014A
ENCODING 330
SWIDTH 540 0
DWIDTH 21 0
BBX 17 32 2 -8
BITMAP
F80380
F80380
FC0380
FC0380
FE0380
EE0380
EF0380
E70380
E78380
E38380
E3C380
E1C380
E1E380
E0E380
E07380
E07380
E03B80
E03F80
E01F80
E01F80
E00F80
E00F80
E00780
E00380
000380
000780
000780
000700
000F00
007E00
007C00
007000
ENDCHAR
STARTCHAR 014B
ENCODING 331
SWIDTH 540 0
DWIDTH 21 0
BBX 15 27 3 -8
BITMAP
E1F0
E7F8
EFFC
FC1C
F81E
F00E
E00E
E00E
E00E
E00E
E00E
E00E
E00E
E00E
E00E
E00E
E00E
E00E
E00E
000E
000E
001E
001C
003C
00F8
00F0
00E0
ENDCHAR
STARTCHAR 014C
ENCODING 332
SWIDTH 540 0
DWIDTH 21 0
BBX 19 31 1 0
BITMAP
0FFE00
0FFE00
0FFE00
000000
000000
000000
000000
01F800
0FFE00
1FFF00
3E0F80
3803C0
7803C0
7001C0
7001E0
F001E0
E000E0
E000E0
E000E0
E000E0
E000E0
E000E0
F001E0
F001C0
7001C0
7803C0
780780
3E0F80
1FFF00
0FFE00
03F000
ENDCHAR
STARTCHAR 014D
ENCODING 333
SWIDTH 540 0
DWIDTH 21 0
BBX 17 26 2 0
BITMAP
0FFC00
0FFC00
0FFC00
000000
000000
000000
000000
03F000
0FFC00
1FFE00
3C1F00
780700
700780
F00380
E00380
E00380
E00380
E00380
E00380
F00380
700780
780700
7C1F00
3FFE00
1FFC00
07F000
ENDCHAR
STARTCHAR 014E
ENCODING 334
SWIDTH 540 0
DWIDTH 21 0
BBX 19 31 1 0
BITMAP
0E0E00
0FFE00
07FC00
01F000
000000
000000
000000
01F800
0FFE00
1FFF00
3E0F80
3803C0
7803C0
7001C0
7001E0
F001E0
E000E0
E000E0
E000E0
E000E0
E000E0
E000E0
F001E0
F001C0
7001C0
7803C0
780780
3E0F80
1FFF00
0FFE00
03F000
ENDCHAR
STARTCHAR 014F
ENCODING 335
SWIDTH 540 0
DWIDTH 21 0
BBX 17 26 2 0
BITMAP
0E1C00
0E3C00
07F800
07F000
01C000
000000
000000
03F000
0FFC00
1FFE00
3C1F00
780700
700780
F00380
E00380
E00380
E00380
E00380
E00380
F00380
700780
780700
7C1F00
3FFE00
1FFC00
07F000
ENDCHAR
STARTCHAR 0150
ENCODING 336
SWIDTH 540 0
DWIDTH 21 0
BBX 19 30 1 1
BITMAP
01E1E0
0383C0
0F0F00
000000
000000
000000
01F800
0FFE00
1FFF00
3E0F80
3803C0
7803C0
7001C0
7001E0
F001E0
E000E0
E000E0
E000E0
E000E0
E000E0
E000E0
F001E0
F001C0
7001C0
7803C0
780780
3E0F80
1FFF00
0FFE00
03F000
ENDCHAR
STARTCHAR 0151
ENCODING 337
SWIDTH 540 0
DWIDTH 21 0
BBX 18 26 2 0
BITMAP
03C3C0
078780
0E0E00
1C1C00
000000
000000
000000
03F000
0FFC00
1FFE00
3C1F00
780700
700780
F00380
E00380
E00380
E00380
E00380
E00380
F00380
700780
780700
7C1F00
3FFE00
1FFC00
07F000
ENDCHAR
STARTCHAR 0152
ENCODING 338
SWIDTH 540 0
DWIDTH 21 0
BBX 20 24 1 0
BITMAP
03FFF0
0FFFF0
1FFFF0
3C1C00
381C00
781C00
701C00
F01C00
F01C00
E01C00
E01FF0
E01FF0
E01FF0
E01C00
E01C00
F01C00
F01C00
701C00
781C00
781C00
3C1C00
1FFFF0
0FFFF0
03FFF0
ENDCHAR
STARTCHAR 0153
ENCODING 339
SWIDTH 540 0
DWIDTH 21 0
BBX 20 19 1 0
BITMAP
0F0780
3F8FC0
3FDFE0
78F8E0
70F0F0
F0F070
E07070
E07FF0
E07FF0
E07FF0
E07000
E07000
E0F000
F0F000
70F800
70F800
7FDFE0
3F9FE0
1F07C0
ENDCHAR
STARTCHAR 0154
ENCODING 340
SWIDTH 540 0
DWIDTH 21 0
BBX 16 31 3 0
BITMAP
00F0
01E0
03C0
0780
0000
0000
0000
FFC0
FFF0
FFF8
E03C
E01C
E01C
E01C
E01C
E03C
E078
FFF8
FFE0
FFC0
E1E0
E0F0
E070
E078
E038
E03C
E03C
E01E
E01E
E00E
E00F
ENDCHAR
STARTCHAR 0155
ENCODING 341
SWIDTH 540 0
DWIDTH 21 0
BBX 15 26 4 0
BITMAP
0078
00F0
01C0
0380
0000
0000
0000
E1F0
E7FC
EFFC
FE1E
FC0E
F80E
F00E
F000
F000
F000
F000
F000
F000
F000
F000
F000
F000
F000
F000
ENDCHAR
STARTCHAR 0156
ENCODING 342
SWIDTH 540 0
DWIDTH 21 0
BBX 16 32 3 -8
BITMAP
FFC0
FFF0
FFF8
E07C
E03C
E01C
E01C
E01C
E01C
E03C
E078
FFF0
FFE0
FFC0
E1E0
E0F0
E070
E078
E038
E03C
E01C
E01E
E00E
E00F
0000
0000
0000
0380
0380
0700
0700
0700
ENDCHAR
STARTCHAR 0157
ENCODING 343
SWIDTH 540 0
DWIDTH 21 0
BBX 15 27 4 -8
BITMAP
E1F0
E7FC
EFFC
FE1E
FC0E
F80E
F00E
F000
F000
F000
F000
F000
F000
F000
F000
F000
F000
F000
F000
0000
0000
0000
0380
0700
0700
0700
0600
ENDCHAR
STARTCHAR 0158
ENCODING 344
SWIDTH 540 0
DWIDTH 21 0
BBX 16 31 3 0
BITMAP
7070
3CE0
1FC0
0F80
0000
0000
0000
FFC0
FFF0
FFF8
E03C
E01C
E01C
E01C
E01C
E03C
E078
FFF8
FFE0
FFC0
E1E0
E0F0
E070
E078
E038
E03C
E03C
E01E
E01E
E00E
E00F
ENDCHAR
STARTCHAR 0159
ENCODING 345
SWIDTH 540 0
DWIDTH 21 0
BBX 15 26 4 0
BITMAP
3870
1CE0
0FC0
0780
0000
0000
0000
E1F0
E7FC
EFFC
FE1E
FC0E
F80E
F00E
F000
F000
F000
F000
F000
F000
F000
F000
F000
F000
F000
F000
ENDCHAR
STARTCHAR 015A
ENCODING 346
SWIDTH 540 0
DWIDTH 21 0
BBX 16 30 2 1
BITMAP
007C
00F0
01C0
0000
0000
0000
07FC
1FFE
3FFE
7800
F000
E000
E000
F000
F800
7C00
3F80
1FE0
07F8
00FC
003E
000F
000F
0007
0007
000F
801E
FFFC
FFF8
7FE0
ENDCHAR
STARTCHAR 015B
ENCODING 347
SWIDTH 540 0
DWIDTH 21 0
BBX 14 26 3 0
BITMAP
0078
00F0
01C0
0780
0000
0000
0000
0FF8
3FF8
7FF8
F000
E000
E000
F000
7C00
7F80
1FE0
07F8
00FC
003C
001C
001C
803C
FFF8
FFF0
7FC0
ENDCHAR
STARTCHAR 015C
ENCODING 348
SWIDTH 540 0
DWIDTH 21 0
BBX 16 30 2 1
BITMAP
07E0
0FF0
1C3C
0000
0000
0000
07FC
1FFE
3FFE
7800
F000
E000
E000
F000
F800
7C00
3F80
1FE0
07F8
00FC
003E
000F
000F
0007
0007
000F
801E
FFFC
FFF8
7FE0
ENDCHAR
STARTCHAR 015D
ENCODING 349
SWIDTH 540 0
DWIDTH 21 0
BBX 14 26 3 0
BITMAP
0780
0FC0
1DE0
3870
0000
0000
0000
0FF8
3FF8
7FF8
F000
E000
E000
F000
7C00
7F80
1FE0
07F8
00FC
003C
001C
001C
803C
FFF8
FFF0
7FC0
ENDCHAR
STARTCHAR 015E
ENCODING 350
SWIDTH 540 0
DWIDTH 21 0
BBX 16 29 2 -6
BITMAP
07FC
1FFE
3FFE
7800
F000
E000
E000
F000
F800
7C00
3F80
1FE0
07F8
00FC
003E
000F
000F
0007
0007
000F
801E
FFFC
FFF8
7FE0
0380
0380
0780
0700
0700
ENDCHAR
STARTCHAR 015F
ENCODING 351
SWIDTH 540 0
DWIDTH 21 0
BBX 14 24 3 -6
BITMAP
0FF8
3FF8
7FF8
F000
E000
E000
F000
7C00
7F80
1FE0
07F8
00FC
003C
001C
001C
803C
FFF8
FFF0
7FC0
0700
0700
0700
0600
0E00
ENDCHAR
STARTCHAR 0160
ENCODING 352
SWIDTH 540 0
DWIDTH 21 0
BBX 16 31 2 1
BITMAP
1C3C
0F70
07E0
03C0
0000
0000
0000
07FC
1FFE
3FFE
7800
F000
E000
E000
F000
F800
7C00
3F80
1FE0
07F8
00FC
003E
000F
000F
0007
0007
000F
801E
FFFC
FFF8
7FE0
ENDCHAR
STARTCHAR 0161
ENCODING 353
SWIDTH 540 0
DWIDTH 21 0
BBX 14 26 3 0
BITMAP
3870
1DE0
0FC0
0780
0000
0000
0000
0FF8
3FF8
7FF8
F000
E000
E000
F000
7C00
7F80
1FE0
07F8
00FC
003C
001C
001C
803C
FFF8
FFF0
7FC0
ENDCHAR
STARTCHAR 0162
ENCODING 354
SWIDTH 540 0
DWIDTH 21 0
BBX 18 32 2 -8
BITMAP
FFFFC0
FFFFC0
FFFFC0
01C000
01C000
01C000
01C000
01C000
01C000
01C000
01C000
01C000
01C000
01C000
01C000
01C000
01C000
01C000
01C000
01C000
01C000
01C000
01C000
01C000
000000
000000
000000
01C000
01C000
01C000
018000
038000
ENDCHAR
STARTCHAR 0163
ENCODING 355
SWIDTH 540 0
DWIDTH 21 0
BBX 17 33 1 -8
BITMAP
030000
070000
070000
070000
070000
070000
FFFF80
FFFF80
FFFF80
070000
070000
070000
070000
070000
070000
070000
070000
070000
070000
070000
078000
07C000
03FF80
01FF80
007F80
000000
000000
000000
00E000
00E000
01C000
01C000
01C000
ENDCHAR
STARTCHAR 0164
ENCODING 356
SWIDTH 540 0
DWIDTH 21 0
BBX 18 31 2 0
BITMAP
1C1E00
0F3800
07F000
01E000
000000
000000
000000
FFFFC0
FFFFC0
FFFFC0
01C000
01C000
01C000
01C000
01C000
01C000
01C000
01C000
01C000
01C000
01C000
01C000
01C000
01C000
01C000
01C000
01C000
01C000
01C000
01C000
01C000
ENDCHAR
STARTCHAR 0165
ENCODING 357
SWIDTH 540 0
DWIDTH 21 0
BBX 18 27 1 0
BITMAP
0001C0
0001C0
0001C0
070380
070380
070000
070000
070000
FFFF80
FFFF80
FFFF80
070000
070000
070000
070000
070000
070000
070000
070000
070000
070000
070000
078000
07C000
03FF80
01FF80
007F80
ENDCHAR
STARTCHAR 0166
ENCODING 358
SWIDTH 540 0
DWIDTH 21 0
BBX 18 24 2 0
BITMAP
FFFFC0
FFFFC0
FFFFC0
01C000
01C000
01C000
01C000
01C000
01C000
01C000
3FFE00
3FFE00
3FFE00
01C000
01C000
01C000
01C000
01C000
01C000
01C000
01C000
01C000
01C000
01C000
ENDCHAR
STARTCHAR 0167
ENCODING 359
SWIDTH 540 0
DWIDTH 21 0
BBX 17 25 1 0
BITMAP
030000
070000
070000
070000
070000
070000
FFFF80
FFFF80
FFFF80
070000
070000
070000
070000
070000
7FFF00
7FFF00
7FFF00
070000
070000
070000
078000
07C000
03FF80
01FF80
007F80
ENDCHAR
STARTCHAR 0168
ENCODING 360
SWIDTH 540 0
DWIDTH 21 0
BBX 17 32 2 0
BITMAP
060000
1F8600
3FFE00
31FC00
107800
000000
000000
000000
E00380
E00380
E00380
E00380
E00380
E00380
E00380
E00380
E00380
E00380
E00380
E00380
E00380
E00380
E00380
E00380
E00380
E00780
F00780
700700
780F00
3FFE00
1FFC00
07F000
ENDCHAR
STARTCHAR 0169
ENCODING 361
SWIDTH 540 0
DWIDTH 21 0
BBX 15 26 3 0
BITMAP
1E08
3F8C
7FFC
61F8
0070
0000
0000
E00E
E00E
E00E
E00E
E00E
E00E
E00E
E00E
E00E
E00E
E00E
E00E
E00E
E01E
F03E
F07E
7FEE
3FCE
1F0E
ENDCHAR
STARTCHAR 016A
ENCODING 362
SWIDTH 540 0
DWIDTH 21 0
BBX 17 31 2 0
BITMAP
1FFC00
1FFC00
1FFC00
000000
000000
000000
000000
E00380
E00380
E00380
E00380
E00380
E00380
E00380
E00380
E00380
E00380
E00380
E00380
E00380
E00380
E00380
E00380
E00380
E00780
F00780
700700
780F00
3FFE00
1FFC00
07F000
ENDCHAR
STARTCHAR 016B
ENCODING 363
SWIDTH 540 0
DWIDTH 21 0
BBX 15 26 3 0
BITMAP
3FF0
3FF0
3FF0
0000
0000
0000
0000
E00E
E00E
E00E
E00E
E00E
E00E
E00E
E00E
E00E
E00E
E00E
E00E
E00E
E01E
F03E
F07E
7FEE
3FCE
1F0E
ENDCHAR
STARTCHAR 016C
ENCODING 364
SWIDTH 540 0
DWIDTH 21 0
BBX 17 31 2 0
BITMAP
1C1C00
1FFC00
0FF800
03F000
000000
000000
000000
E00380
E00380
E00380
E00380
E00380
E00380
E00380
E00380
E00380
E00380
E00380
E00380
E00380
E00380
E00380
E00380
E00380
E00380
E00780
700780
780F00
3FFE00
1FFC00
07F000
ENDCHAR
STARTCHAR 016D
ENCODING 365
SWIDTH 540 0
DWIDTH 21 0
BBX 15 26 3 0
BITMAP
1C30
1C70
0FE0
0FE0
0380
0000
0000
E00E
E00E
E00E
E00E
E00E
E00E
E00E
E00E
E00E
E00E
E00E
E00E
E00E
E01E
F03E
F07E
7FEE
3FCE
1F0E
ENDCHAR
STARTCHAR 016E
ENCODING 366
SWIDTH 540 0
DWIDTH 21 0
BBX 17 33 2 0
BITMAP
01C000
03E000
063000
063000
063000
03F000
01C000
000000
000000
E00380
E00380
E00380
E00380
E00380
E00380
E00380
E00380
E00380
E00380
E00380
E00380
E00380
E00380
E00380
E00380
E00380
E00780
F00780
700700
780F00
3FFE00
1FFC00
07F000
ENDCHAR
STARTCHAR 016F
ENCODING 367
SWIDTH 540 0
DWIDTH 21 0
BBX 15 28 3 0
BITMAP
0380
0FC0
0C60
0C60
0C60
0FE0
0380
0000
0000
E00E
E00E
E00E
E00E
E00E
E00E
E00E
E00E
E00E
E00E
E00E
E00E
E00E
E01E
F03E
F07E
7FEE
3FCE
1F0E
ENDCHAR
STARTCHAR 0170
ENCODING 368
SWIDTH 540 0
DWIDTH 21 0
BBX 18 31 2 1
BITMAP
03C3C0
078780
0F0F00
1E1E00
000000
000000
000000
E00380
E00380
E00380
E00380
E00380
E00380
E00380
E00380
E00380
E00380
E00380
E00380
E00380
E00380
E00380
E00380
E00380
E00780
F00780
700700
780F00
3FFE00
1FFC00
07F000
ENDCHAR
STARTCHAR 0171
ENCODING 369
SWIDTH 540 0
DWIDTH 21 0
BBX 17 26 3 0
BITMAP
078780
0E0F00
1C1C00
383800
000000
000000
000000
E00E00
E00E00
E00E00
E00E00
E00E00
E00E00
E00E00
E00E00
E00E00
E00E00
E00E00
E00E00
E00E00
E01E00
F03E00
F07E00
7FEE00
3FCE00
1F0E00
ENDCHAR
STARTCHAR 0172
ENCODING 370
SWIDTH 540 0
DWIDTH 21 0
BBX 17 31 2 -7
BITMAP
E00380
E00380
E00380
E00380
E00380
E00380
E00380
E00380
E00380
E00380
E00380
E00380
E00380
E00380
E00380
E00380
E00380
E00780
F00780
F00700
780F00
3FFE00
1FFC00
0FF000
01C000
03C000
038000
038000
03F000
03F000
01F000
ENDCHAR
STARTCHAR 0173
ENCODING 371
SWIDTH 540 0
DWIDTH 21 0
BBX 16 26 3 -7
BITMAP
E00E
E00E
E00E
E00E
E00E
E00E
E00E
E00E
E00E
E00E
E00E
E00E
E00E
E01E
F03E
F07E
7FEE
3FCE
1F0E
001C
003C
0038
0038
003F
003F
001F
ENDCHAR
STARTCHAR 0174
ENCODING 372
SWIDTH 540 0
DWIDTH 21 0
BBX 18 31 2 0
BITMAP
01E000
03F000
073800
0E1C00
000000
000000
000000
E001C0
E001C0
E001C0
E001C0
E001C0
E001C0
E001C0
E001C0
E0C1C0
E1E1C0
E1E1C0
E1E1C0
E3F1C0
E3F1C0
E371C0
E739C0
E739C0
E639C0
EE1DC0
EE1DC0
FC1FC0
FC0FC0
FC0FC0
FC0FC0
ENDCHAR
STARTCHAR 0175
ENCODING 373
SWIDTH 540 0
DWIDTH 21 0
BBX 19 26 1 0
BITMAP
00E000
03F800
07BC00
0E1E00
000000
000000
000000
E000E0
E000E0
E000E0
E000E0
E000E0
F0E1E0
70E1C0
71E1C0
71F1C0
71F1C0
73B9C0
73B9C0
7339C0
371D80
3F1F80
3E1F80
3E0F80
3E0F80
3C0F80
ENDCHAR
STARTCHAR 0176
ENCODING 374
SWIDTH 540 0
DWIDTH 21 0
BBX 21 31 0 0
BITMAP
007800
01FC00
03DE00
078F00
000000
000000
000000
F00078
7800F0
3C00F0
3C01E0
1E01E0
1E03C0
0F0380
070780
078700
038F00
03CE00
01DE00
01FC00
00F800
007800
007000
007000
007000
007000
007000
007000
007000
007000
007000
ENDCHAR
STARTCHAR 0177
ENCODING 375
SWIDTH 540 0
DWIDTH 21 0
BBX 18 34 1 -8
BITMAP
00E000
01F000
03F800
073C00
0E1E00
000000
000000
F001C0
7003C0
7803C0
380380
380780
3C0700
1C0700
1E0F00
1E0E00
0E0E00
0F1E00
071C00
071C00
07BC00
03B800
03B800
01F000
01F000
01F000
01E000
01E000
03C000
03C000
0F8000
FF0000
FE0000
F80000
ENDCHAR
STARTCHAR 0178
ENCODING 376
SWIDTH 540 0
DWIDTH 21 0
BBX 20 31 0 0
BITMAP
060600
0F0F00
0F0F00
060600
000000
000000
000000
F000F0
F000F0
7801E0
3C01E0
3C03C0
1E0380
1E0780
0F0700
078F00
078E00
03DE00
03DC00
01FC00
00F800
00F800
007000
007000
007000
007000
007000
007000
007000
007000
007000
ENDCHAR
STARTCHAR 0179
ENCODING 377
SWIDTH 540 0
DWIDTH 21 0
BBX 17 31 2 0
BITMAP
003C00
007800
00F000
01C000
000000
000000
000000
FFFF00
FFFF00
FFFF00
001E00
001E00
003C00
003800
007800
00F000
00E000
01E000
03C000
038000
078000
070000
0F0000
1E0000
1C0000
3C0000
780000
700000
FFFF80
FFFF80
FFFF80
ENDCHAR
STARTCHAR 017A
ENCODING 378
SWIDTH 540 0
DWIDTH 21 0
BBX 15 26 3 0
BITMAP
007C
00F0
01E0
0380
0000
0000
0000
FFFC
FFFC
FFFC
0038
0078
00F0
01E0
01C0
03C0
0780
0F00
0E00
1E00
3C00
3800
7000
FFFE
FFFE
FFFE
ENDCHAR
STARTCHAR 017B
ENCODING 379
SWIDTH 540 0
DWIDTH 21 0
BBX 17 31 2 0
BITMAP
01C000
03E000
03E000
03E000
01C000
000000
000000
FFFF00
FFFF00
FFFF00
000E00
001E00
001C00
003800
007800
007000
00E000
01E000
01C000
03C000
078000
070000
0F0000
1E0000
1C0000
3C0000
780000
780000
FFFF80
FFFF80
FFFF80
ENDCHAR
STARTCHAR 017C
ENCODING 380
SWIDTH 540 0
DWIDTH 21 0
BBX 15 26 3 0
BITMAP
0380
07C0
07C0
07C0
0380
0000
0000
FFFC
FFFC
FFFC
0038
0078
00F0
00E0
01C0
03C0
0780
0700
0F00
1E00
3C00
3800
7800
FFFE
FFFE
FFFE
ENDCHAR
STARTCHAR 017D
ENCODING 381
SWIDTH 540 0
DWIDTH 21 0
BBX 17 31 2 0
BITMAP
3C3C00
1E7800
07E000
03C000
000000
000000
000000
FFFF00
FFFF00
FFFF00
001E00
001E00
003C00
003800
007800
00F000
00E000
01E000
03C000
038000
078000
070000
0F0000
1E0000
1C0000
3C0000
780000
700000
FFFF80
FFFF80
FFFF80
ENDCHAR
STARTCHAR 017E
ENCODING 382
SWIDTH 540 0
DWIDTH 21 0
BBX 15 26 3 0
BITMAP
3870
1CE0
0FC0
0780
0000
0000
0000
FFFC
FFFC
FFFC
0038
0078
00F0
01E0
01C0
03C0
0780
0F00
0E00
1E00
3C00
3800
7000
FFFE
FFFE
FFFE
ENDCHAR
STARTCHAR 017F
ENCODING 383
SWIDTH 540 0
DWIDTH 21 0
BBX 14 26 5 0
BITMAP
07FC
1FFC
3FFC
7C00
7000
F000
E000
E000
E000
E000
E000
E000
E000
E000
E000
E000
E000
E000
E000
E000
E000
E000
E000
E000
E000
E000
ENDCHAR
STARTCHAR 0192
ENCODING 402
SWIDTH 540 0
DWIDTH 21 0
BBX 19 31 1 -5
BITMAP
0007E0
001FE0
003FE0
007800
007000
007000
00F000
00F000
00E000
00E000
00E000
00E000
3FFF80
3FFF80
3FFF80
01E000
01C000
01C000
01C000
01C000
03C000
03C000
03C000
038000
038000
038000
078000
0F0000
FF0000
FE0000
F00000
ENDCHAR
STARTCHAR 01FA
ENCODING 506
SWIDTH 540 0
DWIDTH 21 0
BBX 20 36 0 0
BITMAP
000F80
001E00
003800
000000
00F000
01F800
039C00
030C00
039C00
01F800
00F000
000000
00F800
01F800
01F800
01FC00
03FC00
039C00
039E00
079E00
070E00
070F00
0F0F00
0E0700
0E0780
1E0780
1C0380
1C03C0
3FFFC0
3FFFC0
3FFFE0
7801E0
7000E0
7000F0
F000F0
E00070
ENDCHAR
STARTCHAR 01FB
ENCODING 507
SWIDTH 540 0
DWIDTH 21 0
BBX 15 33 2 1
BITMAP
003C
0078
00F0
01C0
0000
03C0
07E0
0E70
0C30
0E70
07E0
03C0
0000
0000
0FF0
3FF8
3FFC
201E
000E
000E
000E
000E
1FFE
3FFE
780E
F00E
E00E
E00E
E01E
F07E
7FFE
7FEE
1F8E
ENDCHAR
STARTCHAR 01FC
ENCODING 508
SWIDTH 540 0
DWIDTH 21 0
BBX 20 31 0 0
BITMAP
0003E0
000780
000F00
003C00
000000
000000
000000
007FF0
007FF0
00FFF0
00FC00
01DC00
01DC00
019C00
039C00
039C00
071C00
071FF0
0E1FF0
0E1FF0
0E1C00
1C1C00
1C1C00
3FFC00
3FFC00
3FFC00
701C00
701C00
F01FF0
E01FF0
E01FF0
ENDCHAR
STARTCHAR 01FD
ENCODING 509
SWIDTH 540 0
DWIDTH 21 0
BBX 20 26 1 0
BITMAP
000F00
001E00
007800
00F000
000000
000000
000000
1F0F80
7F9FC0
7FFFE0
41F0E0
00F0F0
00E070
00E070
07FFF0
3FFFF0
7FFFF0
F0E000
F0E000
E0E000
E0F000
E1F000
F3F800
FF3FE0
7F3FE0
3C0FC0
ENDCHAR
STARTCHAR 01FE
ENCODING 510
SWIDTH 540 0
DWIDTH 21 0
BBX 19 34 1 -3
BITMAP
007800
01F700
03C700
000600
000E00
000E00
01FE00
0FFE00
1FFF00
3E1F80
3C3BC0
783BC0
7039C0
7031E0
F071E0
E070E0
E060E0
E0E0E0
E0E0E0
E0C0E0
E1C0E0
F1C1E0
F181C0
7381C0
7B83C0
7B8780
3F0F80
1FFF00
0FFE00
0FF000
0E0000
0E0000
0C0000
1C0000
ENDCHAR
STARTCHAR 01FF
ENCODING 511
SWIDTH 540 0
DWIDTH 21 0
BBX 17 30 2 -4
BITMAP
007C00
00F000
01E000
038C00
001C00
001C00
001800
03F800
0FFC00
3FFE00
3C7F00
787700
706780
F0E380
E0E380
E0C380
E1C380
E1C380
E18380
F38380
738780
7B0700
3F0F00
3FFE00
1FFC00
0FF000
0E0000
0C0000
1C0000
1C0000
ENDCHAR
STARTCHAR 0218
ENCODING 536
SWIDTH 540 0
DWIDTH 21 0
BBX 16 32 2 -8
BITMAP
07FC
1FFE
3FFE
7800
F000
E000
E000
F000
F800
7C00
3F80
1FE0
07F8
00FC
003E
000F
000F
0007
0007
000F
801E
FFFC
FFF8
7FE0
0000
0000
0000
01C0
03C0
0380
0380
0380
ENDCHAR
STARTCHAR 0219
ENCODING 537
SWIDTH 540 0
DWIDTH 21 0
BBX 14 27 3 -8
BITMAP
0FF8
3FF8
7FF8
F000
E000
E000
F000
7C00
7F80
1FE0
07F8
00FC
003C
001C
001C
803C
FFF8
FFF0
7FC0
0000
0000
0000
0780
0700
0700
0700
0600
ENDCHAR
STARTCHAR 021A
ENCODING 538
SWIDTH 540 0
DWIDTH 21 0
BBX 18 32 2 -8
BITMAP
FFFFC0
FFFFC0
FFFFC0
01C000
01C000
01C000
01C000
01C000
01C000
01C000
01C000
01C000
01C000
01C000
01C000
01C000
01C000
01C000
01C000
01C000
01C000
01C000
01C000
01C000
000000
000000
000000
01C000
01C000
01C000
018000
038000
ENDCHAR
STARTCHAR 021B
ENCODING 539
SWIDTH 540 0
DWIDTH 21 0
BBX 17 33 1 -8
BITMAP
030000
070000
070000
070000
070000
070000
FFFF80
FFFF80
FFFF80
070000
070000
070000
070000
070000
070000
070000
070000
070000
070000
070000
078000
07C000
03FF80
01FF80
007F80
000000
000000
000000
00E000
00E000
01C000
01C000
01C000
ENDCHAR
STARTCHAR 02C6
ENCODING 710
SWIDTH 540 0
DWIDTH 21 0
BBX 11 4 5 18
BITMAP
0E00
3F80
7BC0
E1E0
ENDCHAR
STARTCHAR 02C7
ENCODING 711
SWIDTH 540 0
DWIDTH 21 0
BBX 11 4 5 18
BITMAP
F1E0
7BC0
3F80
0E00
ENDCHAR
STARTCHAR 02C9
ENCODING 713
SWIDTH 540 0
DWIDTH 21 0
BBX 10 3 6 18
BITMAP
FFC0
FFC0
FFC0
ENDCHAR
STARTCHAR 02D8
ENCODING 728
SWIDTH 540 0
DWIDTH 21 0
BBX 9 5 6 18
BITMAP
E380
E380
7F00
7F00
1C00
ENDCHAR
STARTCHAR 02D9
ENCODING 729
SWIDTH 540 0
DWIDTH 21 0
BBX 5 5 8 18
BITMAP
70
F8
F8
F8
70
ENDCHAR
STARTCHAR 02DA
ENCODING 730
SWIDTH 540 0
DWIDTH 21 0
BBX 8 8 6 18
BITMAP
3C
7E
E7
C3
C3
E7
7E
3C
ENDCHAR
STARTCHAR 02DB
ENCODING 731
SWIDTH 540 0
DWIDTH 21 0
BBX 6 7 13 -6
BITMAP
38
70
E0
E0
F0
FC
3C
ENDCHAR
STARTCHAR 02DC
ENCODING 732
SWIDTH 540 0
DWIDTH 21 0
BBX 13 5 4 18
BITMAP
3C10
7F18
FFF8
C3F0
00C0
ENDCHAR
STARTCHAR 02DD
ENCODING 733
SWIDTH 540 0
DWIDTH 21 0
BBX 15 4 5 18
BITMAP
1E1E
383C
7070
E0E0
ENDCHAR
STARTCHAR 0312
ENCODING 786
SWIDTH 540 0
DWIDTH 21 0
BBX 4 5 9 18
BITMAP
70
70
70
E0
E0
ENDCHAR
STARTCHAR 0315
ENCODING 789
SWIDTH 540 0
DWIDTH 21 0
BBX 5 5 18 18
BITMAP
38
70
70
70
E0
ENDCHAR
STARTCHAR 0326
ENCODING 806
SWIDTH 540 0
DWIDTH 21 0
BBX 4 5 8 -8
BITMAP
70
70
70
E0
E0
ENDCHAR
STARTCHAR 0374
ENCODING 884
SWIDTH 540 0
DWIDTH 21 0
BBX 9 13 4 12
BITMAP
0300
0780
0780
0780
0780
0780
0700
0F00
0E00
3C00
7800
F000
6000
ENDCHAR
STARTCHAR 0375
ENCODING 885
SWIDTH 540 0
DWIDTH 21 0
BBX 10 12 4 -6
BITMAP
01C0
01C0
01C0
01C0
01C0
03C0
07C0
1F80
7F00
FF00
FE00
7800
ENDCHAR
STARTCHAR 037E
ENCODING 894
SWIDTH 540 0
DWIDTH 21 0
BBX 9 26 5 -7
BITMAP
0F00
1F80
1F80
1F80
1F80
0F00
0000
0000
0000
0000
0000
0000
0000
0E00
1F00
1F80
1F80
0F80
0780
0780
0700
0F00
1E00
FE00
F800
C000
ENDCHAR
STARTCHAR 0384
ENCODING 900
SWIDTH 540 0
DWIDTH 21 0
BBX 6 5 9 18
BITMAP
3C
78
70
F0
E0
ENDCHAR
STARTCHAR 0385
ENCODING 901
SWIDTH 540 0
DWIDTH 21 0
BBX 15 5 3 18
BITMAP
01C0
63CC
F39E
F39E
670C
ENDCHAR
STARTCHAR 0386
ENCODING 902
SWIDTH 540 0
DWIDTH 21 0
BBX 21 26 0 0
BITMAP
780000
780000
70F800
70F800
71FC00
01FC00
01DC00
03DE00
039E00
038E00
078F00
070F00
070700
0F0780
0E0780
0E0380
1E03C0
1C03C0
1FFFC0
3FFFE0
3FFFE0
3800E0
7800F0
7800F0
700070
F00078
ENDCHAR
STARTCHAR 0387
ENCODING 903
SWIDTH 540 0
DWIDTH 21 0
BBX 6 6 7 16
BITMAP
78
FC
FC
FC
FC
78
ENDCHAR
STARTCHAR 0388
ENCODING 904
SWIDTH 540 0
DWIDTH 21 0
BBX 20 26 -2 0
BITMAP
780000
700000
73FFF0
73FFF0
E3FFF0
038000
038000
038000
038000
038000
038000
038000
03FFE0
03FFE0
03FFE0
038000
038000
038000
038000
038000
038000
038000
038000
03FFF0
03FFF0
03FFF0
ENDCHAR
STARTCHAR 0389
ENCODING 905
SWIDTH 540 0
DWIDTH 21 0
BBX 22 26 -3 0
BITMAP
700000
700000
77001C
E7001C
E7001C
07001C
07001C
07001C
07001C
07001C
07001C
07001C
07FFFC
07FFFC
07FFFC
07001C
07001C
07001C
07001C
07001C
07001C
07001C
07001C
07001C
07001C
07001C
ENDCHAR
STARTCHAR 038A
ENCODING 906
SWIDTH 540 0
DWIDTH 21 0
BBX 20 26 -2 0
BITMAP
F00000
E00000
E7FFF0
E7FFF0
C7FFF0
001C00
001C00
001C00
001C00
001C00
001C00
001C00
001C00
001C00
001C00
001C00
001C00
001C00
001C00
001C00
001C00
001C00
001C00
07FFF0
07FFF0
07FFF0
ENDCHAR
STARTCHAR 038C
ENCODING 908
SWIDTH 540 0
DWIDTH 21 0
BBX 22 26 -2 0
BITMAP
780000
700000
703F00
71FFC0
E3FFE0
07C1F0
0780F8
0F0078
0E0038
0E003C
1E003C
1E003C
1C001C
1C001C
1C001C
1C001C
1C001C
1E003C
1E0038
0E0038
0F0078
0F0070
07C1F0
03FFE0
01FFC0
007E00
ENDCHAR
STARTCHAR 038E
ENCODING 910
SWIDTH 540 0
DWIDTH 21 0
BBX 24 26 -3 0
BITMAP
F00000
F00000
FE000F
EF000E
C7801E
07803C
03C03C
03C078
01E070
01E0F0
00F0E0
0071E0
0079C0
003BC0
003F80
001F80
001F00
000E00
000E00
000E00
000E00
000E00
000E00
000E00
000E00
000E00
ENDCHAR
STARTCHAR 038F
ENCODING 911
SWIDTH 540 0
DWIDTH 21 0
BBX 21 26 -1 0
BITMAP
700000
700000
E0FE00
E3FF80
E7FFC0
0F83E0
0F01F0
1E00F0
1C0070
3C0078
3C0078
380038
380038
380038
380038
380038
380078
3C0078
1C0070
1C0070
0E00E0
0F01E0
0783C0
3FC7F8
3FC7F8
3FC7F8
ENDCHAR
STARTCHAR 0390
ENCODING 912
SWIDTH 540 0
DWIDTH 21 0
BBX 16 27 3 0
BITMAP
01C0
63CC
F39E
F39E
670C
0000
0000
0000
FF80
FF80
FF80
0380
0380
0380
0380
0380
0380
0380
0380
0380
0380
0380
03C0
03C0
01FF
00FF
007F
ENDCHAR
STARTCHAR 0391
ENCODING 913
SWIDTH 540 0
DWIDTH 21 0
BBX 21 24 0 0
BITMAP
00F800
00F800
01FC00
01DC00
01DC00
03DE00
038E00
038E00
078F00
070F00
070700
0F0780
0E0780
0E0380
1E03C0
1C03C0
1FFFC0
3FFFE0
3FFFE0
3800E0
7800F0
7800F0
700070
F00078
ENDCHAR
STARTCHAR 0392
ENCODING 914
SWIDTH 540 0
DWIDTH 21 0
BBX 16 24 3 0
BITMAP
FFE0
FFF8
FFFC
E03E
E01E
E00E
E00E
E01E
E01C
E07C
FFF0
FFF8
FFFC
E01E
E00F
E00F
E007
E007
E00F
E00E
E01E
FFFC
FFF8
FFC0
ENDCHAR
STARTCHAR 0393
ENCODING 915
SWIDTH 540 0
DWIDTH 21 0
BBX 14 24 4 0
BITMAP
FFFC
FFFC
FFFC
E000
E000
E000
E000
E000
E000
E000
E000
E000
E000
E000
E000
E000
E000
E000
E000
E000
E000
E000
E000
E000
ENDCHAR
STARTCHAR 0394
ENCODING 916
SWIDTH 540 0
DWIDTH 21 0
BBX 19 24 1 0
BITMAP
01F000
01F000
01F800
03B800
03B800
07BC00
071C00
071C00
0F1E00
0E1E00
0E0E00
1E0F00
1C0F00
1C0700
3C0780
380780
380380
7803C0
7803C0
7001C0
F001E0
FFFFE0
FFFFE0
FFFFE0
ENDCHAR
STARTCHAR 0395
ENCODING 917
SWIDTH 540 0
DWIDTH 21 0
BBX 14 24 4 0
BITMAP
FFFC
FFFC
FFFC
E000
E000
E000
E000
E000
E000
E000
FFF8
FFF8
FFF8
E000
E000
E000
E000
E000
E000
E000
E000
FFFC
FFFC
FFFC
ENDCHAR
STARTCHAR 0396
ENCODING 918
SWIDTH 540 0
DWIDTH 21 0
BBX 17 24 2 0
BITMAP
FFFF00
FFFF00
FFFF00
001E00
001E00
003C00
003800
007800
00F000
00E000
01E000
03C000
038000
078000
070000
0F0000
1E0000
1C0000
3C0000
780000
700000
FFFF80
FFFF80
FFFF80
ENDCHAR
STARTCHAR 0397
ENCODING 919
SWIDTH 540 0
DWIDTH 21 0
BBX 17 24 2 0
BITMAP
E00380
E00380
E00380
E00380
E00380
E00380
E00380
E00380
E00380
E00380
FFFF80
FFFF80
FFFF80
E00380
E00380
E00380
E00380
E00380
E00380
E00380
E00380
E00380
E00380
E00380
ENDCHAR
STARTCHAR 0398
ENCODING 920
SWIDTH 540 0
DWIDTH 21 0
BBX 19 24 1 0
BITMAP
01F800
07FE00
1FFF00
3E0F80
3C0380
7803C0
7001C0
7001E0
F001E0
E000E0
E3F8E0
E3F8E0
E3F8E0
E000E0
E000E0
F001E0
F001C0
7001C0
7803C0
780780
3E0F80
1FFF00
0FFC00
03F000
ENDCHAR
STARTCHAR 0399
ENCODING 921
SWIDTH 540 0
DWIDTH 21 0
BBX 15 24 3 0
BITMAP
FFFE
FFFE
FFFE
0380
0380
0380
0380
0380
0380
0380
0380
0380
0380
0380
0380
0380
0380
0380
0380
0380
0380
FFFE
FFFE
FFFE
ENDCHAR
STARTCHAR 039A
ENCODING 922
SWIDTH 540 0
DWIDTH 21 0
BBX 16 24 3 0
BITMAP
E00F
E01E
E03C
E078
E070
E0F0
E1E0
E3C0
E780
E700
EE00
FE00
EE00
EF00
E780
E3C0
E1E0
E1E0
E0F0
E078
E03C
E03E
E01E
E00F
ENDCHAR
STARTCHAR 039B
ENCODING 923
SWIDTH 540 0
DWIDTH 21 0
BBX 21 24 0 0
BITMAP
00F800
00F800
01FC00
01DC00
01DC00
03DE00
039E00
038E00
078F00
070F00
070700
0F0780
0E0780
0E0380
1E03C0
1C03C0
1C01C0
3C01E0
3801E0
3800E0
7800F0
7000F0
700070
F00078
ENDCHAR
STARTCHAR 039C
ENCODING 924
SWIDTH 540 0
DWIDTH 21 0
BBX 18 24 1 0
BITMAP
F807C0
F807C0
FC0FC0
FC0FC0
EC0DC0
EE1DC0
EE19C0
E739C0
E739C0
E331C0
E3F1C0
E3F1C0
E1E1C0
E1E1C0
E1E1C0
E0C1C0
E001C0
E001C0
E001C0
E001C0
E001C0
E001C0
E001C0
E001C0
ENDCHAR
STARTCHAR 039D
ENCODING 925
SWIDTH 540 0
DWIDTH 21 0
BBX 17 24 2 0
BITMAP
F80380
F80380
FC0380
FC0380
FE0380
EE0380
EF0380
E70380
E78380
E38380
E38380
E1C380
E1C380
E1E380
E0E380
E0F380
E07380
E07B80
E03B80
E03F80
E01F80
E01F80
E00F80
E00F80
ENDCHAR
STARTCHAR 039E
ENCODING 926
SWIDTH 540 0
DWIDTH 21 0
BBX 14 24 3 0
BITMAP
FFFC
FFFC
FFFC
0000
0000
0000
0000
0000
0000
0000
7FF8
7FF8
7FF8
0000
0000
0000
0000
0000
0000
0000
0000
FFFC
FFFC
FFFC
ENDCHAR
STARTCHAR 039F
ENCODING 927
SWIDTH 540 0
DWIDTH 21 0
BBX 19 24 1 0
BITMAP
01F800
0FFE00
1FFF00
3E0F80
3803C0
7803C0
7001C0
7001E0
F001E0
E000E0
E000E0
E000E0
E000E0
E000E0
E000E0
F001E0
F001C0
7001C0
7803C0
780780
3E0F80
1FFF00
0FFE00
03F000
ENDCHAR
STARTCHAR 03A0
ENCODING 928
SWIDTH 540 0
DWIDTH 21 0
BBX 16 24 2 0
BITMAP
FFFF
FFFF
FFFF
E007
E007
E007
E007
E007
E007
E007
E007
E007
E007
E007
E007
E007
E007
E007
E007
E007
E007
E007
E007
E007
ENDCHAR
STARTCHAR 03A1
ENCODING 929
SWIDTH 540 0
DWIDTH 21 0
BBX 16 24 3 0
BITMAP
FFE0
FFF8
FFFC
E03E
E00F
E00F
E007
E007
E007
E00F
E00E
E03E
FFFC
FFF0
FFC0
E000
E000
E000
E000
E000
E000
E000
E000
E000
ENDCHAR
STARTCHAR 03A3
ENCODING 931
SWIDTH 540 0
DWIDTH 21 0
BBX 17 24 2 0
BITMAP
FFFF00
FFFF00
FFFF00
780000
3C0000
1E0000
1F0000
0F8000
078000
03C000
01E000
00F000
01E000
03C000
078000
070000
0F0000
1E0000
3C0000
380000
780000
FFFF80
FFFF80
FFFF80
ENDCHAR
STARTCHAR 03A4
ENCODING 932
SWIDTH 540 0
DWIDTH 21 0
BBX 18 24 2 0
BITMAP
FFFFC0
FFFFC0
FFFFC0
01C000
01C000
01C000
01C000
01C000
01C000
01C000
01C000
01C000
01C000
01C000
01C000
01C000
01C000
01C000
01C000
01C000
01C000
01C000
01C000
01C000
ENDCHAR
STARTCHAR 03A5
ENCODING 933
SWIDTH 540 0
DWIDTH 21 0
BBX 21 24 0 0
BITMAP
F00078
7800F0
3C00F0
3C01E0
1E01E0
1E03C0
0F0380
070780
078700
038F00
03CE00
01DE00
01FC00
00F800
007800
007000
007000
007000
007000
007000
007000
007000
007000
007000
ENDCHAR
STARTCHAR 03A6
ENCODING 934
SWIDTH 540 0
DWIDTH 21 0
BBX 19 27 1 -1
BITMAP
00E000
00E000
03FC00
0FFF00
1FFF80
3CE7C0
38E3C0
78E1C0
70E1E0
F0E0E0
F0E0E0
E0E0E0
E0E0E0
E0E0E0
E0E0E0
E0E0E0
F0E0E0
F0E0E0
70E1E0
70E1C0
78E3C0
3CE780
3FFF00
1FFE00
07F800
00E000
00E000
ENDCHAR
STARTCHAR 03A7
ENCODING 935
SWIDTH 540 0
DWIDTH 21 0
BBX 19 24 1 0
BITMAP
F001E0
7803C0
380380
3C0780
1E0F00
1E0E00
0F1E00
07BC00
07B800
03F800
01F000
01F000
01F000
03F800
03B800
07BC00
0F1E00
0E1E00
1E0F00
3C0780
3C0780
7803C0
F003E0
F001E0
ENDCHAR
STARTCHAR 03A8
ENCODING 936
SWIDTH 540 0
DWIDTH 21 0
BBX 19 24 1 0
BITMAP
E0E1E0
E0E1E0
E0E1E0
E0E1E0
E0E1E0
E0E1E0
E0E1E0
E0E1E0
E0E1E0
E0E1E0
E0E1E0
F0E1C0
70E3C0
7CE780
3FFF00
1FFE00
07F800
00E000
00E000
00E000
00E000
00E000
00E000
00E000
ENDCHAR
STARTCHAR 03A9
ENCODING 937
SWIDTH 540 0
DWIDTH 21 0
BBX 19 24 1 0
BITMAP
03F800
0FFE00
1FFF00
3E0780
3803C0
7803C0
7001C0
F001E0
F001E0
E000E0
E000E0
E000E0
E000E0
E000E0
F001E0
F001E0
7001C0
7001C0
380380
3C0780
1E0F00
FF1FE0
FF1FE0
FF1FE0
ENDCHAR
STARTCHAR 03AA
ENCODING 938
SWIDTH 540 0
DWIDTH 21 0
BBX 15 31 3 0
BITMAP
3030
7878
7878
3030
0000
0000
0000
FFFE
FFFE
FFFE
0380
0380
0380
0380
0380
0380
0380
0380
0380
0380
0380
0380
0380
0380
0380
0380
0380
0380
FFFE
FFFE
FFFE
ENDCHAR
STARTCHAR 03AB
ENCODING 939
SWIDTH 540 0
DWIDTH 21 0
BBX 20 31 0 0
BITMAP
060600
0F0F00
0F0F00
060600
000000
000000
000000
F000F0
F000F0
7801E0
3C01E0
3C03C0
1E0380
1E0780
0F0700
078F00
078E00
03DE00
03DC00
01FC00
00F800
00F800
007000
007000
007000
007000
007000
007000
007000
007000
007000
ENDCHAR
STARTCHAR 03AC
ENCODING 940
SWIDTH 540 0
DWIDTH 21 0
BBX 19 26 1 0
BITMAP
007800
007800
00F000
00E000
00E000
000000
000000
07E1C0
1FF1C0
3FFB80
3C3F80
781F80
700F80
F00F80
E00700
E00700
E00700
E00700
E00F00
F00F00
F00F00
701F80
783B80
3FFBE0
1FF1E0
0FC0E0
ENDCHAR
STARTCHAR 03AD
ENCODING 941
SWIDTH 540 0
DWIDTH 21 0
BBX 16 26 2 0
BITMAP
0078
0070
00F0
00E0
01C0
0000
0000
07FE
1FFF
3FFF
7801
7000
7000
7800
3C00
1FF8
0FF8
7FF8
7800
F000
E000
F000
F800
7FFF
3FFF
07FC
ENDCHAR
STARTCHAR 03AE
ENCODING 942
SWIDTH 540 0
DWIDTH 21 0
BBX 15 34 3 -8
BITMAP
0078
00F0
00E0
01E0
01C0
0000
0000
E1F0
E7FC
EFFC
FC1E
F80E
F00E
E00E
E00E
E00E
E00E
E00E
E00E
E00E
E00E
E00E
E00E
E00E
E00E
E00E
000E
000E
000E
000E
000E
000E
000E
000E
ENDCHAR
STARTCHAR 03AF
ENCODING 943
SWIDTH 540 0
DWIDTH 21 0
BBX 16 26 3 0
BITMAP
00F0
00E0
01E0
01C0
0380
0000
0000
FF80
FF80
FF80
0380
0380
0380
0380
0380
0380
0380
0380
0380
0380
0380
03C0
03C0
01FF
00FF
007F
ENDCHAR
STARTCHAR 03B0
ENCODING 944
SWIDTH 540 0
DWIDTH 21 0
BBX 15 27 3 0
BITMAP
03C0
638E
E79E
E71E
670E
0000
0000
0000
E00E
E00E
E00E
E00E
E00E
E00E
E00E
E00E
E00E
E00E
E00E
E00E
E01E
E01C
F03C
7878
7FF8
3FF0
0FC0
ENDCHAR
STARTCHAR 03B1
ENCODING 945
SWIDTH 540 0
DWIDTH 21 0
BBX 19 19 1 0
BITMAP
07E1C0
1FF1C0
3FFB80
3C3F80
781F80
700F80
F00F80
E00700
E00700
E00700
E00700
E00F00
F00F00
F00F00
701F80
783B80
3FFBE0
1FF1E0
0FC0E0
ENDCHAR
STARTCHAR 03B2
ENCODING 946
SWIDTH 540 0
DWIDTH 21 0
BBX 16 34 3 -8
BITMAP
07E0
1FF8
3FFC
783C
701E
F01E
E00E
E00E
E01E
E01C
E03C
E3F0
E3F8
E3FE
E01E
E00F
E007
E007
E007
E007
E007
E00F
F01E
FFFC
FFF8
E7E0
E000
E000
E000
E000
E000
E000
E000
E000
ENDCHAR
STARTCHAR 03B3
ENCODING 947
SWIDTH 540 0
DWIDTH 21 0
BBX 17 27 1 -8
BITMAP
E00380
F00380
F80380
3C0380
3C0380
1C0380
1E0780
0E0700
0F0700
0F0700
070E00
070E00
079E00
079C00
03BC00
03B800
03F800
03F000
03E000
01E000
01C000
01C000
01C000
01C000
01C000
01C000
01C000
ENDCHAR
STARTCHAR 03B4
ENCODING 948
SWIDTH 540 0
DWIDTH 21 0
BBX 17 26 2 0
BITMAP
01FE00
07FE00
0FFE00
0E0000
0E0000
0F0000
078000
07E000
07F000
0FF800
1E7C00
3C3E00
780F00
700F00
F00780
E00780
E00380
E00380
E00380
F00780
F00780
780700
7C1F00
3FFE00
1FFC00
07F000
ENDCHAR
STARTCHAR 03B5
ENCODING 949
SWIDTH 540 0
DWIDTH 21 0
BBX 16 19 2 0
BITMAP
07FE
1FFF
3FFF
7801
7000
7000
7800
3C00
1FF8
0FF8
7FF8
7800
F000
E000
F000
F800
7FFF
3FFF
07FC
ENDCHAR
STARTCHAR 03B6
ENCODING 950
SWIDTH 540 0
DWIDTH 21 0
BBX 15 34 3 -8
BITMAP
7FFE
7FFE
7FFE
003C
00F8
01E0
03C0
0780
0F00
1E00
1C00
3C00
7800
7000
7000
F000
E000
E000
E000
E000
F000
7000
7C00
3F80
1FF0
0FFC
01FC
001E
000E
000E
000E
001C
001C
0038
ENDCHAR
STARTCHAR 03B7
ENCODING 951
SWIDTH 540 0
DWIDTH 21 0
BBX 15 27 3 -8
BITMAP
E1F0
E7FC
EFFC
FC1E
F80E
F00E
E00E
E00E
E00E
E00E
E00E
E00E
E00E
E00E
E00E
E00E
E00E
E00E
E00E
000E
000E
000E
000E
000E
000E
000E
000E
ENDCHAR
STARTCHAR 03B8
ENCODING 952
SWIDTH 540 0
DWIDTH 21 0
BBX 17 26 2 0
BITMAP
03F000
0FF800
1FFC00
3C1E00
380F00
780700
700780
700380
F00380
E00380
E00380
FFFF80
FFFF80
FFFF80
E00380
E00380
E00380
F00380
F00780
700700
780700
780E00
3C1E00
1FFC00
0FF800
03E000
ENDCHAR
STARTCHAR 03B9
ENCODING 953
SWIDTH 540 0
DWIDTH 21 0
BBX 16 19 3 0
BITMAP
FF80
FF80
FF80
0380
0380
0380
0380
0380
0380
0380
0380
0380
0380
0380
03C0
03C0
01FF
00FF
007F
ENDCHAR
STARTCHAR 03BA
ENCODING 954
SWIDTH 540 0
DWIDTH 21 0
BBX 16 19 3 0
BITMAP
E01E
E03C
E078
E0F0
E1E0
E3C0
E780
EF00
FE00
EF00
E780
E3C0
E3E0
E1E0
E0F0
E078
E03C
E01E
E00F
ENDCHAR
STARTCHAR 03BB
ENCODING 955
SWIDTH 540 0
DWIDTH 21 0
BBX 19 26 1 0
BITMAP
3E0000
3F8000
3F8000
03C000
01C000
01E000
00E000
00E000
00F000
01F000
01F000
03F800
03B800
07BC00
071C00
071C00
0F1E00
0E0E00
1E0E00
1C0F00
1C0700
3C0700
380780
7803E0
7003E0
F001E0
ENDCHAR
STARTCHAR 03BC
ENCODING 956
SWIDTH 540 0
DWIDTH 21 0
BBX 17 27 3 -8
BITMAP
E00E00
E00E00
E00E00
E00E00
E00E00
E00E00
E00E00
E00E00
E00E00
E00E00
E00E00
E00E00
E00E00
E01E00
F03E00
F07E00
FFEF80
FFC780
EF8380
E00000
E00000
E00000
E00000
E00000
E00000
E00000
E00000
ENDCHAR
STARTCHAR 03BD
ENCODING 957
SWIDTH 540 0
DWIDTH 21 0
BBX 18 19 1 0
BITMAP
F003C0
7803C0
7803C0
380380
3C0380
3C0780
1C0700
1E0700
1E0F00
0E0E00
0F0E00
071E00
071C00
07BC00
03B800
03F800
03F000
01F000
01E000
ENDCHAR
STARTCHAR 03BE
ENCODING 958
SWIDTH 540 0
DWIDTH 21 0
BBX 15 34 3 -8
BITMAP
FFFC
FFFC
FFFC
0F00
1C00
3800
7800
7000
7000
7000
7800
3C00
1FFC
0FFC
3FFC
7800
7000
F000
E000
E000
E000
F000
7800
7E00
3FE0
0FF8
03FE
003E
000E
000E
000E
000E
001C
003C
ENDCHAR
STARTCHAR 03BF
ENCODING 959
SWIDTH 540 0
DWIDTH 21 0
BBX 17 19 2 0
BITMAP
03F000
0FFC00
1FFE00
3C1F00
780700
700780
F00380
E00380
E00380
E00380
E00380
E00380
F00380
700780
780700
7C1F00
3FFE00
1FFC00
07F000
ENDCHAR
STARTCHAR 03C0
ENCODING 960
SWIDTH 540 0
DWIDTH 21 0
BBX 19 19 1 0
BITMAP
FFFFE0
FFFFE0
FFFFE0
0E0E00
0E0E00
0E0E00
0E0E00
0E0E00
0E0E00
1E0E00
1E0E00
1E0E00
1C0E00
1C0E00
3C0F00
3C0F00
380FE0
7807E0
7803E0
ENDCHAR
STARTCHAR 03C1
ENCODING 961
SWIDTH 540 0
DWIDTH 21 0
BBX 16 27 3 -8
BITMAP
07E0
1FF8
3FFC
781E
700E
F00F
F00F
E007
E007
E007
E007
E00F
E00F
E00E
E01E
F03C
FFFC
FFF0
E7C0
E000
E000
E000
E000
E000
E000
E000
E000
ENDCHAR
STARTCHAR 03C2
ENCODING 962
SWIDTH 540 0
DWIDTH 21 0
BBX 15 27 3 -8
BITMAP
03FC
0FFE
1FFE
3C02
7800
7000
F000
F000
E000
E000
E000
E000
F000
F000
7800
7C00
3FC0
1FF8
0FFC
00FC
001E
000E
000E
000E
001E
001C
003C
ENDCHAR
STARTCHAR 03C3
ENCODING 963
SWIDTH 540 0
DWIDTH 21 0
BBX 19 19 2 0
BITMAP
03FFE0
0FFFE0
1FFFE0
3C0E00
780F00
700700
F00780
F00380
E00380
E00380
E00380
E00780
F00780
700700
780F00
7C1E00
3FFE00
1FF800
07F000
ENDCHAR
STARTCHAR 03C4
ENCODING 964
SWIDTH 540 0
DWIDTH 21 0
BBX 17 19 1 0
BITMAP
FFFF80
FFFF80
FFFF80
070000
070000
070000
070000
070000
070000
070000
070000
070000
070000
070000
078000
078000
03FF00
01FF00
00FF00
ENDCHAR
STARTCHAR 03C5
ENCODING 965
SWIDTH 540 0
DWIDTH 21 0
BBX 15 19 3 0
BITMAP
E00E
E00E
E00E
E00E
E00E
E00E
E00E
E00E
E00E
E00E
E00E
E00E
E01E
E01C
F03C
7878
7FF8
3FF0
0FC0
ENDCHAR
STARTCHAR 03C6
ENCODING 966
SWIDTH 540 0
DWIDTH 21 0
BBX 19 34 1 -8
BITMAP
00E000
00E000
00E000
00E000
00E000
00E000
00E000
03FC00
0FFF00
1FFF80
3CE3C0
78E1C0
70E1E0
F0E0E0
E0E0E0
E0E0E0
E0E0E0
E0E0E0
E0E0E0
F0E0E0
F0E1E0
78E1C0
7CE3C0
3FFF80
1FFF00
07FC00
00E000
00E000
00E000
00E000
00E000
00E000
00E000
00E000
ENDCHAR
STARTCHAR 03C7
ENCODING 967
SWIDTH 540 0
DWIDTH 21 0
BBX 18 27 1 -8
BITMAP
F00380
F80780
FC0700
1E0F00
0E0E00
0E1E00
0F1C00
073C00
07B800
03F000
03F000
03E000
01E000
01E000
03E000
03F000
077000
0F7000
0E7800
1E3800
1C3C00
3C1C00
381C00
781E00
700FC0
F007C0
E003C0
ENDCHAR
STARTCHAR 03C8
ENCODING 968
SWIDTH 540 0
DWIDTH 21 0
BBX 18 34 2 -8
BITMAP
01C000
01C000
01C000
01C000
01C000
01C000
01C000
E1C3C0
E1C1C0
E1C1C0
E1C1C0
E1C1C0
E1C1C0
E1C1C0
E1C1C0
E1C1C0
E1C1C0
E1C1C0
E1C1C0
E1C3C0
F1C380
F1C380
79CF00
7FFF00
3FFC00
0FF000
01C000
01C000
01C000
01C000
01C000
01C000
01C000
01C000
ENDCHAR
STARTCHAR 03C9
ENCODING 969
SWIDTH 540 0
DWIDTH 21 0
BBX 19 19 1 0
BITMAP
3803C0
7801C0
7001C0
7001E0
F001E0
F000E0
E0E0E0
E0E0E0
E0E0E0
E0E0E0
E0E0E0
E0E0E0
E0E0E0
F0E0E0
70F1E0
79F1C0
7FBFC0
3F9F80
1F0F00
ENDCHAR
STARTCHAR 03CA
ENCODING 970
SWIDTH 540 0
DWIDTH 21 0
BBX 16 26 2 0
BITMAP
1818
3C3C
3C3C
1818
0000
0000
0000
FFC0
FFC0
FFC0
01C0
01C0
01C0
01C0
01C0
01C0
01C0
01C0
01C0
01C0
01C0
01C0
01E0
01FF
00FF
003F
ENDCHAR
STARTCHAR 03CB
ENCODING 971
SWIDTH 540 0
DWIDTH 21 0
BBX 15 26 3 0
BITMAP
1818
3C3C
3C3C
1818
0000
0000
0000
E00E
E00E
E00E
E00E
E00E
E00E
E00E
E00E
E00E
E00E
E00E
E00E
E01E
E01C
F03C
7878
7FF8
3FF0
0FC0
ENDCHAR
STARTCHAR 03CC
ENCODING 972
SWIDTH 540 0
DWIDTH 21 0
BBX 17 26 2 0
BITMAP
007800
007000
00F000
00E000
01C000
000000
000000
03F000
0FFC00
1FFE00
3C1F00
780700
700780
F00380
E00380
E00380
E00380
E00380
E00380
F00380
700780
780700
7C1F00
3FFE00
1FFC00
07F000
ENDCHAR
STARTCHAR 03CD
ENCODING 973
SWIDTH 540 0
DWIDTH 21 0
BBX 15 26 3 0
BITMAP
00F0
01E0
01E0
01C0
0380
0000
0000
E00E
E00E
E00E
E00E
E00E
E00E
E00E
E00E
E00E
E00E
E00E
E00E
E01E
E01C
F03C
7878
7FF8
3FF0
0FC0
ENDCHAR
STARTCHAR 03CE
ENCODING 974
SWIDTH 540 0
DWIDTH 21 0
BBX 19 26 1 0
BITMAP
003C00
003800
007800
007000
00E000
000000
000000
3803C0
7801C0
7001C0
7001E0
F001E0
F000E0
E0E0E0
E0E0E0
E0E0E0
E0E0E0
E0E0E0
E0E0E0
E0E0E0
F0E0E0
70F1E0
79F1C0
7FBFC0
3F9F80
1F0F00
ENDCHAR
STARTCHAR 0400
ENCODING 1024
SWIDTH 540 0
DWIDTH 21 0
BBX 14 31 4 0
BITMAP
F800
3C00
1E00
0700
0000
0000
0000
FFFC
FFFC
FFFC
E000
E000
E000
E000
E000
E000
E000
FFF8
FFF8
FFF8
E000
E000
E000
E000
E000
E000
E000
E000
FFFC
FFFC
FFFC
ENDCHAR
STARTCHAR 0401
ENCODING 1025
SWIDTH 540 0
DWIDTH 21 0
BBX 14 31 4 0
BITMAP
3030
7878
7878
3030
0000
0000
0000
FFFC
FFFC
FFFC
E000
E000
E000
E000
E000
E000
E000
FFF8
FFF8
FFF8
E000
E000
E000
E000
E000
E000
E000
E000
FFFC
FFFC
FFFC
ENDCHAR
STARTCHAR 0402
ENCODING 1026
SWIDTH 540 0
DWIDTH 21 0
BBX 20 24 0 0
BITMAP
FFFC00
FFFC00
FFFC00
070000
070000
070000
070000
070000
07F800
07FF80
07FFC0
0703E0
0701E0
0700F0
070070
070070
070070
070070
0700F0
0700E0
0701E0
070FC0
070F80
070E00
ENDCHAR
STARTCHAR 0403
ENCODING 1027
SWIDTH 540 0
DWIDTH 21 0
BBX 14 31 4 0
BITMAP
00F8
01E0
03C0
0700
0000
0000
0000
FFFC
FFFC
FFFC
E000
E000
E000
E000
E000
E000
E000
E000
E000
E000
E000
E000
E000
E000
E000
E000
E000
E000
E000
E000
E000
ENDCHAR
STARTCHAR 0404
ENCODING 1028
SWIDTH 540 0
DWIDTH 21 0
BBX 17 24 2 0
BITMAP
01FE00
07FF80
0FFF80
1E0180
3C0000
780000
700000
700000
E00000
E00000
FFFE00
FFFE00
FFFE00
E00000
E00000
F00000
F00000
700000
780000
3C0000
3E0180
1FFF80
0FFF80
01FE00
ENDCHAR
STARTCHAR 0405
ENCODING 1029
SWIDTH 540 0
DWIDTH 21 0
BBX 16 24 2 0
BITMAP
07FC
1FFE
3FFE
7800
F000
E000
E000
F000
F800
7C00
3F80
1FE0
07F8
00FC
003E
000F
000F
0007
0007
000F
801E
FFFC
FFF8
7FE0
ENDCHAR
STARTCHAR 0406
ENCODING 1030
SWIDTH 540 0
DWIDTH 21 0
BBX 15 24 3 0
BITMAP
FFFE
FFFE
FFFE
0380
0380
0380
0380
0380
0380
0380
0380
0380
0380
0380
0380
0380
0380
0380
0380
0380
0380
FFFE
FFFE
FFFE
ENDCHAR
STARTCHAR 0407
ENCODING 1031
SWIDTH 540 0
DWIDTH 21 0
BBX 15 31 3 0
BITMAP
3030
7878
7878
3030
0000
0000
0000
FFFE
FFFE
FFFE
0380
0380
0380
0380
0380
0380
0380
0380
0380
0380
0380
0380
0380
0380
0380
0380
0380
0380
FFFE
FFFE
FFFE
ENDCHAR
STARTCHAR 0408
ENCODING 1032
SWIDTH 540 0
DWIDTH 21 0
BBX 13 24 3 0
BITMAP
7FF8
7FF8
7FF8
0038
0038
0038
0038
0038
0038
0038
0038
0038
0038
0038
0038
0038
0038
0038
0038
0078
C0F0
FFF0
FFE0
3F80
ENDCHAR
STARTCHAR 0409
ENCODING 1033
SWIDTH 540 0
DWIDTH 21 0
BBX 21 24 0 0
BITMAP
0FF800
0FF800
0FF800
0E3800
0E3800
0E3800
0E3800
0E3800
0E3800
0E3F80
0E3FE0
0E3FF0
0E38F8
0E3878
0E3838
0E3838
1E3838
1C3838
1C3838
3C3838
3C3878
F83FF0
F83FE0
E03FC0
ENDCHAR
STARTCHAR 040A
ENCODING 1034
SWIDTH 540 0
DWIDTH 21 0
BBX 19 24 2 0
BITMAP
E0E000
E0E000
E0E000
E0E000
E0E000
E0E000
E0E000
E0E000
E0E000
E0FE00
FFFF80
FFFFC0
FFE1E0
E0E1E0
E0E0E0
E0E0E0
E0E0E0
E0E0E0
E0E0E0
E0E0E0
E0E1E0
E0FFC0
E0FF80
E0FF00
ENDCHAR
STARTCHAR 040B
ENCODING 1035
SWIDTH 540 0
DWIDTH 21 0
BBX 20 24 0 0
BITMAP
FFFC00
FFFC00
FFFC00
070000
070000
070000
070000
070000
07FC00
07FF80
07FFC0
0703E0
0700E0
0700F0
070070
070070
070070
070070
070070
070070
070070
070070
070070
070070
ENDCHAR
STARTCHAR 040C
ENCODING 1036
SWIDTH 540 0
DWIDTH 21 0
BBX 16 31 3 0
BITMAP
007C
00F8
01E0
03C0
0000
0000
0000
E00F
E01E
E03C
E078
E070
E0F0
E1E0
E3C0
E780
E700
EE00
FE00
EE00
EF00
E780
E3C0
E1E0
E1E0
E0F0
E078
E03C
E03E
E01E
E00F
ENDCHAR
STARTCHAR 040D
ENCODING 1037
SWIDTH 540 0
DWIDTH 21 0
BBX 16 31 2 0
BITMAP
3C00
1E00
0700
03C0
0000
0000
0000
E007
E00F
E00F
E01F
E01F
E03F
E03F
E077
E077
E0E7
E1E7
E1C7
E387
E387
E707
E707
EE07
EE07
FC07
FC07
F807
F807
F007
E007
ENDCHAR
STARTCHAR 040E
ENCODING 1038
SWIDTH 540 0
DWIDTH 21 0
BBX 20 30 1 1
BITMAP
0E0700
0F0F00
07FE00
01F800
000000
000000
F000F0
7800E0
3C01E0
3C01C0
1E03C0
1E0380
0F0780
0F0780
078F00
03CF00
03DE00
01FE00
01FC00
00FC00
00FC00
007800
007800
007000
00F000
00E000
01E000
3FC000
3F8000
3F0000
ENDCHAR
STARTCHAR 040F
ENCODING 1039
SWIDTH 540 0
DWIDTH 21 0
BBX 16 29 2 -6
BITMAP
E007
E007
E007
E007
E007
E007
E007
E007
E007
E007
E007
E007
E007
E007
E007
E007
E007
E007
E007
E007
E007
FFFF
FFFF
FFFF
01C0
01C0
01C0
01C0
01C0
ENDCHAR
STARTCHAR 0410
ENCODING 1040
SWIDTH 540 0
DWIDTH 21 0
BBX 21 24 0 0
BITMAP
00F800
00F800
01FC00
01DC00
01DC00
03DE00
038E00
038E00
078F00
070F00
070700
0F0780
0E0780
0E0380
1E03C0
1C03C0
1FFFC0
3FFFE0
3FFFE0
3800E0
7800F0
7800F0
700070
F00078
ENDCHAR
STARTCHAR 0411
ENCODING 1041
SWIDTH 540 0
DWIDTH 21 0
BBX 16 24 3 0
BITMAP
FFFE
FFFE
FFFE
E000
E000
E000
E000
E000
E000
E000
FFE0
FFF8
FFFE
E01E
E00F
E007
E007
E007
E007
E00F
E01E
FFFC
FFF8
FFE0
ENDCHAR
STARTCHAR 0412
ENCODING 1042
SWIDTH 540 0
DWIDTH 21 0
BBX 16 24 3 0
BITMAP
FFE0
FFF8
FFFC
E03E
E01E
E00E
E00E
E01E
E01C
E07C
FFF0
FFF8
FFFC
E01E
E00F
E00F
E007
E007
E00F
E00E
E01E
FFFC
FFF8
FFC0
ENDCHAR
STARTCHAR 0413
ENCODING 1043
SWIDTH 540 0
DWIDTH 21 0
BBX 14 24 4 0
BITMAP
FFFC
FFFC
FFFC
E000
E000
E000
E000
E000
E000
E000
E000
E000
E000
E000
E000
E000
E000
E000
E000
E000
E000
E000
E000
E000
ENDCHAR
STARTCHAR 0414
ENCODING 1044
SWIDTH 540 0
DWIDTH 21 0
BBX 20 29 0 -5
BITMAP
03FF80
03FF80
03FF80
038380
038380
078380
078380
078380
078380
078380
078380
070380
070380
070380
0F0380
0F0380
0F0380
0E0380
1E0380
1C0380
3C0380
FFFFF0
FFFFF0
FFFFF0
E00070
E00070
E00070
E00070
E00070
ENDCHAR
STARTCHAR 0415
ENCODING 1045
SWIDTH 540 0
DWIDTH 21 0
BBX 14 24 4 0
BITMAP
FFFC
FFFC
FFFC
E000
E000
E000
E000
E000
E000
E000
FFF8
FFF8
FFF8
E000
E000
E000
E000
E000
E000
E000
E000
FFFC
FFFC
FFFC
ENDCHAR
STARTCHAR 0416
ENCODING 1046
SWIDTH 540 0
DWIDTH 21 0
BBX 21 24 0 0
BITMAP
F07038
707070
787070
3870E0
3C70E0
1C71C0
1C71C0
0E73C0
0E7380
077780
077700
03FF00
07F700
077700
0F7380
0E7380
1E71C0
1C71C0
1C71E0
3870E0
3870F0
707070
707078
F07038
ENDCHAR
STARTCHAR 0417
ENCODING 1047
SWIDTH 540 0
DWIDTH 21 0
BBX 16 24 2 0
BITMAP
3FE0
7FF8
7FFC
003E
000E
000E
000E
000E
001E
003C
3FF8
3FF8
3FFE
001E
000F
0007
0007
0007
0007
000F
801E
FFFC
FFF8
3FE0
ENDCHAR
STARTCHAR 0418
ENCODING 1048
SWIDTH 540 0
DWIDTH 21 0
BBX 16 24 2 0
BITMAP
E007
E00F
E00F
E01F
E01F
E03F
E03F
E077
E077
E0E7
E1E7
E1C7
E387
E387
E707
E707
EE07
EE07
FC07
FC07
F807
F807
F007
E007
ENDCHAR
STARTCHAR 0419
ENCODING 1049
SWIDTH 540 0
DWIDTH 21 0
BBX 16 30 2 1
BITMAP
1C1C
1E3C
0FF8
07F0
0000
0000
E007
E00F
E00F
E01F
E01F
E03F
E03F
E077
E077
E0E7
E1E7
E1C7
E387
E387
E707
E707
EE07
EE07
FC07
FC07
F807
F807
F007
F007
ENDCHAR
STARTCHAR 041A
ENCODING 1050
SWIDTH 540 0
DWIDTH 21 0
BBX 16 24 3 0
BITMAP
E00F
E01E
E03C
E078
E070
E0F0
E1E0
E3C0
E780
E700
EE00
FE00
EE00
EF00
E780
E3C0
E1E0
E1E0
E0F0
E078
E03C
E03E
E01E
E00F
ENDCHAR
STARTCHAR 041B
ENCODING 1051
SWIDTH 540 0
DWIDTH 21 0
BBX 17 24 1 0
BITMAP
07FF80
07FF80
07FF80
070380
070380
070380
070380
070380
070380
070380
070380
070380
0F0380
0F0380
0E0380
0E0380
0E0380
1E0380
1E0380
3C0380
3C0380
F80380
F80380
E00380
ENDCHAR
STARTCHAR 041C
ENCODING 1052
SWIDTH 540 0
DWIDTH 21 0
BBX 18 24 1 0
BITMAP
F807C0
F807C0
FC0FC0
FC0FC0
EC0DC0
EE1DC0
EE19C0
E739C0
E739C0
E331C0
E3F1C0
E3F1C0
E1E1C0
E1E1C0
E1E1C0
E0C1C0
E001C0
E001C0
E001C0
E001C0
E001C0
E001C0
E001C0
E001C0
ENDCHAR
STARTCHAR 041D
ENCODING 1053
SWIDTH 540 0
DWIDTH 21 0
BBX 17 24 2 0
BITMAP
E00380
E00380
E00380
E00380
E00380
E00380
E00380
E00380
E00380
E00380
FFFF80
FFFF80
FFFF80
E00380
E00380
E00380
E00380
E00380
E00380
E00380
E00380
E00380
E00380
E00380
ENDCHAR
STARTCHAR 041E
ENCODING 1054
SWIDTH 540 0
DWIDTH 21 0
BBX 19 24 1 0
BITMAP
01F800
0FFE00
1FFF00
3E0F80
3803C0
7803C0
7001C0
7001E0
F001E0
E000E0
E000E0
E000E0
E000E0
E000E0
E000E0
F001E0
F001C0
7001C0
7803C0
780780
3E0F80
1FFF00
0FFE00
03F000
ENDCHAR
STARTCHAR 041F
ENCODING 1055
SWIDTH 540 0
DWIDTH 21 0
BBX 16 24 2 0
BITMAP
FFFF
FFFF
FFFF
E007
E007
E007
E007
E007
E007
E007
E007
E007
E007
E007
E007
E007
E007
E007
E007
E007
E007
E007
E007
E007
ENDCHAR
STARTCHAR 0420
ENCODING 1056
SWIDTH 540 0
DWIDTH 21 0
BBX 16 24 3 0
BITMAP
FFE0
FFF8
FFFC
E03E
E00F
E00F
E007
E007
E007
E00F
E00E
E03E
FFFC
FFF0
FFC0
E000
E000
E000
E000
E000
E000
E000
E000
E000
ENDCHAR
STARTCHAR 0421
ENCODING 1057
SWIDTH 540 0
DWIDTH 21 0
BBX 17 24 2 0
BITMAP
01FE00
07FF80
0FFF80
1F0180
3C0000
780000
700000
700000
F00000
F00000
E00000
E00000
E00000
E00000
E00000
F00000
F00000
700000
780000
3C0000
3E0080
1FFF80
07FF80
01FE00
ENDCHAR
STARTCHAR 0422
ENCODING 1058
SWIDTH 540 0
DWIDTH 21 0
BBX 18 24 2 0
BITMAP
FFFFC0
FFFFC0
FFFFC0
01C000
01C000
01C000
01C000
01C000
01C000
01C000
01C000
01C000
01C000
01C000
01C000
01C000
01C000
01C000
01C000
01C000
01C000
01C000
01C000
01C000
ENDCHAR
STARTCHAR 0423
ENCODING 1059
SWIDTH 540 0
DWIDTH 21 0
BBX 19 24 1 0
BITMAP
F001E0
7801E0
3801C0
3C03C0
1E0380
1E0780
0F0700
0F0F00
078F00
078E00
03DE00
03DC00
01FC00
00FC00
00F800
007800
007000
00F000
00E000
01E000
03C000
3FC000
3F8000
3E0000
ENDCHAR
STARTCHAR 0424
ENCODING 1060
SWIDTH 540 0
DWIDTH 21 0
BBX 19 24 1 1
BITMAP
00E000
00E000
03FC00
0FFF00
3FFF80
3CE3C0
78E1C0
70E1E0
F0E0E0
E0E0E0
E0E0E0
E0E0E0
E0E0E0
E0E0E0
E0E0E0
F0E0E0
70E1E0
78E1C0
7CE7C0
3FFF80
1FFF00
07FC00
00E000
00E000
ENDCHAR
STARTCHAR 0425
ENCODING 1061
SWIDTH 540 0
DWIDTH 21 0
BBX 19 24 1 0
BITMAP
F001E0
7803C0
380380
3C0780
1E0F00
1E0E00
0F1E00
07BC00
07B800
03F800
01F000
01F000
01F000
03F800
03B800
07BC00
0F1E00
0E1E00
1E0F00
3C0780
3C0780
7803C0
F003E0
F001E0
ENDCHAR
STARTCHAR 0426
ENCODING 1062
SWIDTH 540 0
DWIDTH 21 0
BBX 18 29 2 -5
BITMAP
E00700
E00700
E00700
E00700
E00700
E00700
E00700
E00700
E00700
E00700
E00700
E00700
E00700
E00700
E00700
E00700
E00700
E00700
E00700
E00700
E00700
FFFFC0
FFFFC0
FFFFC0
0001C0
0001C0
0001C0
0001C0
0001C0
ENDCHAR
STARTCHAR 0427
ENCODING 1063
SWIDTH 540 0
DWIDTH 21 0
BBX 17 24 2 0
BITMAP
E00380
E00380
E00380
E00380
E00380
E00380
E00380
E00380
F00380
700380
780380
3FFF80
1FFF80
07F380
000380
000380
000380
000380
000380
000380
000380
000380
000380
000380
ENDCHAR
STARTCHAR 0428
ENCODING 1064
SWIDTH 540 0
DWIDTH 21 0
BBX 17 24 2 0
BITMAP
E1C380
E1C380
E1C380
E1C380
E1C380
E1C380
E1C380
E1C380
E1C380
E1C380
E1C380
E1C380
E1C380
E1C380
E1C380
E1C380
E1C380
E1C380
E1C380
E1C380
E1C380
FFFF80
FFFF80
FFFF80
ENDCHAR
STARTCHAR 0429
ENCODING 1065
SWIDTH 540 0
DWIDTH 21 0
BBX 19 29 1 -5
BITMAP
E1C1C0
E1C1C0
E1C1C0
E1C1C0
E1C1C0
E1C1C0
E1C1C0
E1C1C0
E1C1C0
E1C1C0
E1C1C0
E1C1C0
E1C1C0
E1C1C0
E1C1C0
E1C1C0
E1C1C0
E1C1C0
E1C1C0
E1C1C0
E1C1C0
FFFFE0
FFFFE0
FFFFE0
0000E0
0000E0
0000E0
0000E0
0000E0
ENDCHAR
STARTCHAR 042A
ENCODING 1066
SWIDTH 540 0
DWIDTH 21 0
BBX 19 24 1 0
BITMAP
FE0000
FE0000
FE0000
0E0000
0E0000
0E0000
0E0000
0E0000
0E0000
0FF800
0FFF00
0FFF80
0E07C0
0E01C0
0E01E0
0E00E0
0E00E0
0E00E0
0E01E0
0E01C0
0E03C0
0FFF80
0FFF00
0FF800
ENDCHAR
STARTCHAR 042B
ENCODING 1067
SWIDTH 540 0
DWIDTH 21 0
BBX 18 24 2 0
BITMAP
E001C0
E001C0
E001C0
E001C0
E001C0
E001C0
E001C0
E001C0
E001C0
FF01C0
FFC1C0
FFE1C0
E0F1C0
E079C0
E079C0
E039C0
E039C0
E039C0
E079C0
E079C0
E0F1C0
FFE1C0
FFC1C0
FF01C0
ENDCHAR
STARTCHAR 042C
ENCODING 1068
SWIDTH 540 0
DWIDTH 21 0
BBX 16 24 3 0
BITMAP
E000
E000
E000
E000
E000
E000
E000
E000
E000
FFC0
FFF8
FFFC
E03E
E00F
E007
E007
E007
E007
E007
E00F
E01E
FFFC
FFF8
FFE0
ENDCHAR
STARTCHAR 042D
ENCODING 1069
SWIDTH 540 0
DWIDTH 21 0
BBX 16 24 2 0
BITMAP
3FC0
FFF0
FFF8
807C
001E
000E
000F
0007
0007
0007
7FFF
7FFF
7FFF
0007
0007
0007
0007
000F
000E
001E
807C
FFF8
FFF0
3FC0
ENDCHAR
STARTCHAR 042E
ENCODING 1070
SWIDTH 540 0
DWIDTH 21 0
BBX 19 24 2 0
BITMAP
E03E00
E07F80
E0FFC0
E0E1C0
E1E1C0
E1C1E0
E1C0E0
E1C0E0
E1C0E0
E1C0E0
FFC0E0
FFC0E0
FFC0E0
E1C0E0
E1C0E0
E1C0E0
E1C0E0
E1C0E0
E1C1C0
E1E1C0
E0E3C0
E0FF80
E07F80
E03E00
ENDCHAR
STARTCHAR 042F
ENCODING 1071
SWIDTH 540 0
DWIDTH 21 0
BBX 15 24 2 0
BITMAP
03FE
0FFE
3FFE
3C0E
780E
780E
700E
700E
780E
780E
3C0E
3FFE
0FFE
07FE
1E0E
1C0E
3C0E
380E
780E
780E
700E
F00E
F00E
E00E
ENDCHAR
STARTCHAR 0430
ENCODING 1072
SWIDTH 540 0
DWIDTH 21 0
BBX 15 19 2 0
BITMAP
0FF0
3FF8
3FFC
201E
000E
000E
000E
03FE
1FFE
7FFE
780E
F00E
E00E
E00E
E01E
F07E
7FF6
3FE6
1F86
ENDCHAR
STARTCHAR 0431
ENCODING 1073
SWIDTH 540 0
DWIDTH 21 0
BBX 17 27 2 1
BITMAP
007E00
03FE00
0FFE00
1F8000
3C0000
380000
780000
700000
70E000
F7FC00
EFFE00
FE1F00
FC0F00
F80700
F00780
E00780
E00380
E00380
E00380
F00780
700780
700700
780F00
3C1E00
3FFC00
1FF800
07E000
ENDCHAR
STARTCHAR 0432
ENCODING 1074
SWIDTH 540 0
DWIDTH 21 0
BBX 16 19 3 0
BITMAP
FFE0
FFF8
FFFC
E01E
E00E
E00E
E01E
E03C
FFF8
FFF8
FFFE
E01F
E00F
E007
E00F
E00F
FFFE
FFFC
FFE0
ENDCHAR
STARTCHAR 0433
ENCODING 1075
SWIDTH 540 0
DWIDTH 21 0
BBX 14 19 4 0
BITMAP
FFFC
FFFC
FFFC
E000
E000
E000
E000
E000
E000
E000
E000
E000
E000
E000
E000
E000
E000
E000
E000
ENDCHAR
STARTCHAR 0434
ENCODING 1076
SWIDTH 540 0
DWIDTH 21 0
BBX 20 24 1 -5
BITMAP
03FF80
03FF80
03FF80
038380
038380
078380
078380
078380
078380
070380
070380
0F0380
0F0380
0E0380
1E0380
3C0380
FFFFF0
FFFFF0
FFFFF0
E00070
E00070
E00070
E00070
E00070
ENDCHAR
STARTCHAR 0435
ENCODING 1077
SWIDTH 540 0
DWIDTH 21 0
BBX 16 19 2 0
BITMAP
07E0
0FF8
3FFC
3C1E
700F
7007
F007
E007
FFFF
FFFF
FFFF
E000
F000
7000
7800
7C00
3FFF
1FFF
03FE
ENDCHAR
STARTCHAR 0436
ENCODING 1078
SWIDTH 540 0
DWIDTH 21 0
BBX 21 19 0 0
BITMAP
F07038
707070
3870F0
3870E0
1C71C0
0E71C0
0E7380
077700
03F700
03FE00
077700
077380
0E7380
1E71C0
1C71E0
3C70E0
3870F0
707070
F07038
ENDCHAR
STARTCHAR 0437
ENCODING 1079
SWIDTH 540 0
DWIDTH 21 0
BBX 16 19 2 0
BITMAP
3FF0
7FFC
7FFE
001E
000E
000E
000E
001C
1FF8
1FF8
1FFE
000E
000F
0007
000F
000F
FFFE
FFFC
7FE0
ENDCHAR
STARTCHAR 0438
ENCODING 1080
SWIDTH 540 0
DWIDTH 21 0
BBX 14 19 3 0
BITMAP
E01C
E03C
E03C
E07C
E0FC
E0FC
E1FC
E1DC
E39C
E39C
E71C
EF1C
EE1C
FC1C
FC1C
F81C
F81C
F01C
E01C
ENDCHAR
STARTCHAR 0439
ENCODING 1081
SWIDTH 540 0
DWIDTH 21 0
BBX 14 26 3 0
BITMAP
3838
3878
3C70
1FF0
0FC0
0000
0000
E01C
E03C
E03C
E07C
E0FC
E0FC
E1FC
E1DC
E39C
E39C
E71C
EF1C
EE1C
FC1C
FC1C
F81C
F81C
F01C
E01C
ENDCHAR
STARTCHAR 043A
ENCODING 1082
SWIDTH 540 0
DWIDTH 21 0
BBX 16 19 3 0
BITMAP
E01E
E03C
E078
E0F0
E1E0
E3C0
E780
EF00
FE00
EF00
E780
E3C0
E3E0
E1E0
E0F0
E078
E03C
E01E
E00F
ENDCHAR
STARTCHAR 043B
ENCODING 1083
SWIDTH 540 0
DWIDTH 21 0
BBX 17 19 1 0
BITMAP
07FF80
07FF80
07FF80
070380
070380
070380
070380
070380
0F0380
0F0380
0F0380
0F0380
0E0380
1E0380
1E0380
3C0380
FC0380
F80380
F00380
ENDCHAR
STARTCHAR 043C
ENCODING 1084
SWIDTH 540 0
DWIDTH 21 0
BBX 18 19 1 0
BITMAP
F807C0
FC0FC0
FC0FC0
EC0DC0
EE1DC0
EE1DC0
E719C0
E739C0
E731C0
E3B1C0
E3F1C0
E1E1C0
E1E1C0
E1E1C0
E0C1C0
E001C0
E001C0
E001C0
E001C0
ENDCHAR
STARTCHAR 043D
ENCODING 1085
SWIDTH 540 0
DWIDTH 21 0
BBX 15 19 3 0
BITMAP
E00E
E00E
E00E
E00E
E00E
E00E
E00E
E00E
FFFE
FFFE
FFFE
E00E
E00E
E00E
E00E
E00E
E00E
E00E
E00E
ENDCHAR
STARTCHAR 043E
ENCODING 1086
SWIDTH 540 0
DWIDTH 21 0
BBX 17 19 2 0
BITMAP
03F000
0FFC00
1FFE00
3C1F00
780700
700780
F00380
E00380
E00380
E00380
E00380
E00380
F00380
700780
780700
7C1F00
3FFE00
1FFC00
07F000
ENDCHAR
STARTCHAR 043F
ENCODING 1087
SWIDTH 540 0
DWIDTH 21 0
BBX 15 19 3 0
BITMAP
FFFE
FFFE
FFFE
E00E
E00E
E00E
E00E
E00E
E00E
E00E
E00E
E00E
E00E
E00E
E00E
E00E
E00E
E00E
E00E
ENDCHAR
STARTCHAR 0440
ENCODING 1088
SWIDTH 540 0
DWIDTH 21 0
BBX 16 27 3 -8
BITMAP
E1F0
E7F8
EFFC
FC1E
F80E
F00F
E00F
E007
E007
E007
E007
E00F
E00F
E00E
E01E
E03C
FFF8
FFF0
FFC0
E000
E000
E000
E000
E000
E000
E000
E000
ENDCHAR
STARTCHAR 0441
ENCODING 1089
SWIDTH 540 0
DWIDTH 21 0
BBX 15 19 3 0
BITMAP
03FC
0FFE
1FFE
3E02
7800
7000
F000
F000
E000
E000
E000
E000
F000
7000
7800
7C02
3FFE
0FFE
03FC
ENDCHAR
STARTCHAR 0442
ENCODING 1090
SWIDTH 540 0
DWIDTH 21 0
BBX 17 19 2 0
BITMAP
FFFF80
FFFF80
FFFF80
01C000
01C000
01C000
01C000
01C000
01C000
01C000
01C000
01C000
01C000
01C000
01C000
01C000
01C000
01C000
01C000
ENDCHAR
STARTCHAR 0443
ENCODING 1091
SWIDTH 540 0
DWIDTH 21 0
BBX 18 27 1 -8
BITMAP
F001C0
7003C0
7803C0
380380
380780
3C0700
1C0700
1E0F00
1E0E00
0E0E00
0F1E00
071C00
071C00
07B800
03B800
03B800
01F000
01F000
01F000
01E000
01E000
03C000
03C000
0F8000
FF0000
FE0000
F80000
ENDCHAR
STARTCHAR 0444
ENCODING 1092
SWIDTH 540 0
DWIDTH 21 0
BBX 19 34 1 -8
BITMAP
00E000
00E000
00E000
00E000
00E000
00E000
00E000
03FC00
0FFF00
3FFF80
3CE3C0
78E1E0
70E1E0
F0E0E0
E0E0E0
E0E0E0
E0E0E0
E0E0E0
E0E0E0
F0E0E0
F0E1E0
70E1C0
78E3C0
3FFF80
1FFF00
07FC00
00E000
00E000
00E000
00E000
00E000
00E000
00E000
00E000
ENDCHAR
STARTCHAR 0445
ENCODING 1093
SWIDTH 540 0
DWIDTH 21 0
BBX 17 19 2 0
BITMAP
F00780
780700
780F00
3C1E00
1E1C00
0E3800
0F7800
07F000
03E000
01E000
03E000
07F000
0F7800
1E3C00
1E3C00
3C1E00
780F00
F80F80
F00780
ENDCHAR
STARTCHAR 0446
ENCODING 1094
SWIDTH 540 0
DWIDTH 21 0
BBX 17 24 3 -5
BITMAP
E00E00
E00E00
E00E00
E00E00
E00E00
E00E00
E00E00
E00E00
E00E00
E00E00
E00E00
E00E00
E00E00
E00E00
E00E00
E00E00
FFFF80
FFFF80
FFFF80
000380
000380
000380
000380
000380
ENDCHAR
STARTCHAR 0447
ENCODING 1095
SWIDTH 540 0
DWIDTH 21 0
BBX 15 19 3 0
BITMAP
E00E
E00E
E00E
E00E
E00E
E00E
F00E
F00E
780E
7FFE
1FFE
03FE
000E
000E
000E
000E
000E
000E
000E
ENDCHAR
STARTCHAR 0448
ENCODING 1096
SWIDTH 540 0
DWIDTH 21 0
BBX 17 19 2 0
BITMAP
E1C380
E1C380
E1C380
E1C380
E1C380
E1C380
E1C380
E1C380
E1C380
E1C380
E1C380
E1C380
E1C380
E1C380
E1C380
E1C380
FFFF80
FFFF80
FFFF80
ENDCHAR
STARTCHAR 0449
ENCODING 1097
SWIDTH 540 0
DWIDTH 21 0
BBX 19 24 1 -5
BITMAP
E1C1C0
E1C1C0
E1C1C0
E1C1C0
E1C1C0
E1C1C0
E1C1C0
E1C1C0
E1C1C0
E1C1C0
E1C1C0
E1C1C0
E1C1C0
E1C1C0
E1C1C0
E1C1C0
E1C1C0
FFFFE0
FFFFE0
0000E0
0000E0
0000E0
0000E0
0000E0
ENDCHAR
STARTCHAR 044A
ENCODING 1098
SWIDTH 540 0
DWIDTH 21 0
BBX 19 19 0 0
BITMAP
FE0000
FE0000
FE0000
0E0000
0E0000
0E0000
0E0000
0FF800
0FFF80
0FFFC0
0E03C0
0E01E0
0E00E0
0E00E0
0E01E0
0E03C0
0FFFC0
0FFF80
0FFC00
ENDCHAR
STARTCHAR 044B
ENCODING 1099
SWIDTH 540 0
DWIDTH 21 0
BBX 18 19 2 0
BITMAP
E001C0
E001C0
E001C0
E001C0
E001C0
E001C0
E001C0
FE01C0
FFC1C0
FFE1C0
E0F1C0
E071C0
E071C0
E071C0
E071C0
E0F1C0
F3E1C0
FFC1C0
FF01C0
ENDCHAR
STARTCHAR 044C
ENCODING 1100
SWIDTH 540 0
DWIDTH 21 0
BBX 16 19 3 0
BITMAP
E000
E000
E000
E000
E000
E000
E000
FFC0
FFFC
FFFE
E01E
E00F
E007
E007
E00F
E00F
FFFE
FFFC
FFE0
ENDCHAR
STARTCHAR 044D
ENCODING 1101
SWIDTH 540 0
DWIDTH 21 0
BBX 15 19 3 0
BITMAP
3F80
FFF0
FFF8
807C
001C
001E
000E
000E
7FFE
7FFE
7FFE
000E
000E
001E
001C
807C
FFF8
FFF0
7F80
ENDCHAR
STARTCHAR 044E
ENCODING 1102
SWIDTH 540 0
DWIDTH 21 0
BBX 19 19 2 0
BITMAP
E03E00
E0FF80
E1FFC0
E3C3C0
E3C1E0
E381E0
E380E0
E380E0
FF80E0
FF80E0
FF80E0
E380E0
E380E0
E381E0
E3C1C0
E3C3C0
E1FFC0
E0FF80
E07E00
ENDCHAR
STARTCHAR 044F
ENCODING 1103
SWIDTH 540 0
DWIDTH 21 0
BBX 16 19 1 0
BITMAP
03FF
0FFF
1FFF
3C07
3C07
3807
3807
3C07
1E07
1FFF
07FF
0FFF
1E07
1C07
3C07
3807
7807
7807
F007
ENDCHAR
STARTCHAR 0450
ENCODING 1104
SWIDTH 540 0
DWIDTH 21 0
BBX 16 26 2 0
BITMAP
3C00
1E00
0700
03C0
0000
0000
0000
07E0
0FF8
3FFC
3C1E
700F
7007
F007
E007
FFFF
FFFF
E000
E000
F000
7000
7800
7C00
3FFF
1FFF
03FE
ENDCHAR
STARTCHAR 0451
ENCODING 1105
SWIDTH 540 0
DWIDTH 21 0
BBX 16 26 2 0
BITMAP
1818
3C3C
3C3C
1818
0000
0000
0000
07E0
0FF8
3FFC
3C1E
700F
7007
F007
E007
FFFF
FFFF
FFFF
E000
E000
7000
7800
7C00
3FFF
1FFF
03FE
ENDCHAR
STARTCHAR 0452
ENCODING 1106
SWIDTH 540 0
DWIDTH 21 0
BBX 18 34 0 -8
BITMAP
1C0000
1C0000
FFF000
FFF000
FFF000
1C0000
1C0000
1C0000
1C3E00
1CFF00
1DFF80
1F8780
1F03C0
1E03C0
1C01C0
1C01C0
1C01C0
1C01C0
1C01C0
1C01C0
1C01C0
1C01C0
1C01C0
1C01C0
1C01C0
1C01C0
0001C0
0001C0
0003C0
000380
000780
001F00
001F00
001C00
ENDCHAR
STARTCHAR 0453
ENCODING 1107
SWIDTH 540 0
DWIDTH 21 0
BBX 14 26 4 0
BITMAP
00F8
01E0
03C0
0700
0000
0000
0000
FFFC
FFFC
FFFC
E000
E000
E000
E000
E000
E000
E000
E000
E000
E000
E000
E000
E000
E000
E000
E000
ENDCHAR
STARTCHAR 0454
ENCODING 1108
SWIDTH 540 0
DWIDTH 21 0
BBX 16 19 3 0
BITMAP
01FE
0FFF
1FFF
3C01
7800
7000
F000
E000
FFFC
FFFC
FFFC
E000
E000
7000
7800
7C01
3FFF
0FFF
03FC
ENDCHAR
STARTCHAR 0455
ENCODING 1109
SWIDTH 540 0
DWIDTH 21 0
BBX 14 19 3 0
BITMAP
0FF8
3FF8
7FF8
F000
E000
E000
F000
7C00
7F80
1FE0
07F8
00FC
003C
001C
001C
803C
FFF8
FFF0
7FC0
ENDCHAR
STARTCHAR 0456
ENCODING 1110
SWIDTH 540 0
DWIDTH 21 0
BBX 15 26 3 0
BITMAP
0380
07C0
07C0
07C0
0380
0000
0000
FF80
FF80
FF80
0380
0380
0380
0380
0380
0380
0380
0380
0380
0380
0380
0380
0380
FFFE
FFFE
FFFE
ENDCHAR
STARTCHAR 0457
ENCODING 1111
SWIDTH 540 0
DWIDTH 21 0
BBX 15 26 3 0
BITMAP
3038
7878
7878
3038
0000
0000
0000
FF80
FF80
FF80
0380
0380
0380
0380
0380
0380
0380
0380
0380
0380
0380
0380
0380
FFFE
FFFE
FFFE
ENDCHAR
STARTCHAR 0458
ENCODING 1112
SWIDTH 540 0
DWIDTH 21 0
BBX 14 34 2 -8
BITMAP
0038
007C
007C
007C
0038
0000
0000
7FF8
7FF8
7FF8
0038
0038
0038
0038
0038
0038
0038
0038
0038
0038
0038
0038
0038
0038
0038
0038
0038
0038
0038
0078
80F0
FFE0
FFC0
7F00
ENDCHAR
STARTCHAR 0459
ENCODING 1113
SWIDTH 540 0
DWIDTH 21 0
BBX 21 19 0 0
BITMAP
0FF800
0FF800
0FF800
0E3800
0E3800
0E3800
0E3800
0E3F80
0E3FE0
0E3FF0
0E3878
0E3838
1E3838
1C3838
1C3838
3C3878
FC3FF0
F83FF0
F03FC0
ENDCHAR
STARTCHAR 045A
ENCODING 1114
SWIDTH 540 0
DWIDTH 21 0
BBX 19 19 2 0
BITMAP
E0E000
E0E000
E0E000
E0E000
E0E000
E0E000
E0E000
E0FE00
FFFF80
FFFFC0
FFE1E0
E0E0E0
E0E0E0
E0E0E0
E0E0E0
E0E1E0
E0FFC0
E0FFC0
E0FF00
ENDCHAR
STARTCHAR 045B
ENCODING 1115
SWIDTH 540 0
DWIDTH 21 0
BBX 18 26 0 0
BITMAP
1C0000
1C0000
FFF000
FFF000
FFF000
1C0000
1C0000
1C0000
1C3E00
1CFF00
1DFF80
1F8380
1F03C0
1E01C0
1C01C0
1C01C0
1C01C0
1C01C0
1C01C0
1C01C0
1C01C0
1C01C0
1C01C0
1C01C0
1C01C0
1C01C0
ENDCHAR
STARTCHAR 045C
ENCODING 1116
SWIDTH 540 0
DWIDTH 21 0
BBX 16 26 3 0
BITMAP
007C
00F0
01E0
0380
0000
0000
0000
E01E
E03C
E078
E0F0
E1E0
E3C0
E780
EF00
FE00
EF00
E780
E3C0
E3E0
E1E0
E0F0
E078
E03C
E01E
E00F
ENDCHAR
STARTCHAR 045D
ENCODING 1117
SWIDTH 540 0
DWIDTH 21 0
BBX 14 26 3 0
BITMAP
7800
3C00
0E00
0780
0000
0000
0000
E01C
E03C
E03C
E07C
E0FC
E0FC
E1FC
E1DC
E39C
E39C
E71C
EF1C
EE1C
FC1C
FC1C
F81C
F81C
F01C
E01C
ENDCHAR
STARTCHAR 045E
ENCODING 1118
SWIDTH 540 0
DWIDTH 21 0
BBX 19 34 1 -8
BITMAP
0E0E00
0F0E00
0F1E00
07FC00
01F000
000000
000000
F001E0
7801C0
7803C0
380380
3C0380
3C0780
1E0700
1E0F00
0E0F00
0F0E00
071E00
071C00
079C00
03BC00
03B800
01F800
01F800
01F000
00F000
00E000
01E000
01C000
03C000
078000
FF0000
FE0000
F80000
ENDCHAR
STARTCHAR 045F
ENCODING 1119
SWIDTH 540 0
DWIDTH 21 0
BBX 15 24 3 -5
BITMAP
E00E
E00E
E00E
E00E
E00E
E00E
E00E
E00E
E00E
E00E
E00E
E00E
E00E
E00E
E00E
E00E
FFFE
FFFE
FFFE
0380
0380
0380
0380
0380
ENDCHAR
STARTCHAR 0462
ENCODING 1122
SWIDTH 540 0
DWIDTH 21 0
BBX 20 24 0 0
BITMAP
FFFC00
FFFC00
FFFC00
070000
070000
070000
070000
070000
070000
070000
07FE00
07FF80
07FFC0
0701E0
0700F0
0700F0
070070
070070
0700F0
0700E0
0701E0
07FFC0
07FF80
07FE00
ENDCHAR
STARTCHAR 0463
ENCODING 1123
SWIDTH 540 0
DWIDTH 21 0
BBX 19 25 1 0
BITMAP
060000
0E0000
0E0000
0E0000
0E0000
0E0000
FFFE00
FFFE00
FFFE00
0E0000
0E0000
0E0000
0E0000
0FF800
0FFF00
0FFFC0
0E03C0
0E01E0
0E00E0
0E00E0
0E01E0
0E03C0
0FFFC0
0FFF80
0FFC00
ENDCHAR
STARTCHAR 0472
ENCODING 1138
SWIDTH 540 0
DWIDTH 21 0
BBX 19 24 1 0
BITMAP
01F800
0FFE00
1FFF00
3E0F80
3803C0
7803C0
7001C0
7001E0
F001E0
E000E0
FFFFE0
FFFFE0
FFFFE0
E000E0
E000E0
F001E0
F001C0
7001C0
7803C0
780380
3E0F80
1FFF00
0FFE00
03F000
ENDCHAR
STARTCHAR 0473
ENCODING 1139
SWIDTH 540 0
DWIDTH 21 0
BBX 17 19 2 0
BITMAP
03F000
0FFC00
1FFE00
3C0F00
780700
700780
F00380
E00380
FFFF80
FFFF80
FFFF80
E00380
E00380
700780
700700
7C0F00
3FFE00
1FFC00
07F000
ENDCHAR
STARTCHAR 0474
ENCODING 1140
SWIDTH 540 0
DWIDTH 21 0
BBX 21 24 0 0
BITMAP
F00078
7000F8
7801F8
7801E0
3801C0
3C03C0
3C03C0
1C0380
1E0380
1E0780
0E0780
0F0700
0F0700
070F00
078E00
078E00
038E00
039E00
03DC00
01DC00
01DC00
01F800
00F800
00F800
ENDCHAR
STARTCHAR 0475
ENCODING 1141
SWIDTH 540 0
DWIDTH 21 0
BBX 19 19 1 0
BITMAP
F001E0
7003E0
7803E0
780780
380700
3C0F00
3C0E00
1C0E00
1E1E00
0E1C00
0E1C00
0F3C00
073800
07B800
03B800
03F000
03F000
01F000
01E000
ENDCHAR
STARTCHAR 0490
ENCODING 1168
SWIDTH 540 0
DWIDTH 21 0
BBX 14 29 4 0
BITMAP
001C
001C
001C
001C
001C
FFFC
FFFC
FFFC
E000
E000
E000
E000
E000
E000
E000
E000
E000
E000
E000
E000
E000
E000
E000
E000
E000
E000
E000
E000
E000
ENDCHAR
STARTCHAR 0491
ENCODING 1169
SWIDTH 540 0
DWIDTH 21 0
BBX 13 24 4 0
BITMAP
0018
0018
0018
0018
0018
FFF8
FFF8
FFF8
E000
E000
E000
E000
E000
E000
E000
E000
E000
E000
E000
E000
E000
E000
E000
E000
ENDCHAR
STARTCHAR 1E80
ENCODING 7808
SWIDTH 540 0
DWIDTH 21 0
BBX 18 31 2 0
BITMAP
3E0000
0F0000
078000
01C000
000000
000000
000000
E001C0
E001C0
E001C0
E001C0
E001C0
E001C0
E001C0
E001C0
E0C1C0
E1E1C0
E1E1C0
E1E1C0
E3F1C0
E3F1C0
E371C0
E739C0
E739C0
E639C0
EE1DC0
EE1DC0
FC1FC0
FC0FC0
FC0FC0
FC0FC0
ENDCHAR
STARTCHAR 1E81
ENCODING 7809
SWIDTH 540 0
DWIDTH 21 0
BBX 19 26 1 0
BITMAP
1E0000
0F8000
03C000
01E000
000000
000000
000000
E000E0
E000E0
E000E0
E000E0
E000E0
F0E1E0
70E1C0
71E1C0
71F1C0
71F1C0
73B9C0
73B9C0
7339C0
371D80
3F1F80
3E1F80
3E0F80
3E0F80
3C0F80
ENDCHAR
STARTCHAR 1E82
ENCODING 7810
SWIDTH 540 0
DWIDTH 21 0
BBX 18 31 2 0
BITMAP
001F00
003C00
007800
00E000
000000
000000
000000
E001C0
E001C0
E001C0
E001C0
E001C0
E001C0
E001C0
E001C0
E0C1C0
E1E1C0
E1E1C0
E1E1C0
E3F1C0
E3F1C0
E371C0
E739C0
E739C0
E639C0
EE1DC0
EE1DC0
FC1FC0
FC0FC0
FC0FC0
FC0FC0
ENDCHAR
STARTCHAR 1E83
ENCODING 7811
SWIDTH 540 0
DWIDTH 21 0
BBX 19 26 1 0
BITMAP
001F00
003C00
007800
00F000
000000
000000
000000
E000E0
E000E0
E000E0
E000E0
E000E0
F0E1E0
70E1C0
71E1C0
71F1C0
71F1C0
73B9C0
73B9C0
7339C0
371D80
3F1F80
3E1F80
3E0F80
3E0F80
3C0F80
ENDCHAR
STARTCHAR 1E84
ENCODING 7812
SWIDTH 540 0
DWIDTH 21 0
BBX 18 31 2 0
BITMAP
0C0C00
1E1E00
1E1E00
0C0C00
000000
000000
000000
E001C0
E001C0
E001C0
E001C0
E001C0
E001C0
E001C0
E001C0
E1C1C0
E1C1C0
E1E1C0
E3E1C0
E3F1C0
E371C0
E371C0
E739C0
E639C0
E639C0
EE1DC0
EE1DC0
FC1FC0
FC0FC0
FC0FC0
F80FC0
ENDCHAR
STARTCHAR 1E85
ENCODING 7813
SWIDTH 540 0
DWIDTH 21 0
BBX 20 26 0 0
BITMAP
060600
0F0F00
0F0F00
060600
000000
000000
000000
F000F0
7000F0
7000E0
7000E0
7000E0
7060E0
70F0E0
70F0E0
70F0E0
39F9C0
39F9C0
3999C0
3B9DC0
3B9DC0
3B0DC0
3F0FC0
1F0F80
1E0780
1E0780
ENDCHAR
STARTCHAR 1EF2
ENCODING 7922
SWIDTH 540 0
DWIDTH 21 0
BBX 21 31 0 0
BITMAP
078000
03C000
01E000
007000
000000
000000
000000
F00078
7800F0
3C00F0
3C01E0
1E01E0
1E03C0
0F0380
070780
078700
038F00
03CE00
01DE00
01FC00
00F800
007800
007000
007000
007000
007000
007000
007000
007000
007000
007000
ENDCHAR
STARTCHAR 1EF3
ENCODING 7923
SWIDTH 540 0
DWIDTH 21 0
BBX 18 34 1 -8
BITMAP
1E0000
0F0000
078000
03C000
01E000
000000
000000
F001C0
7003C0
7803C0
380380
380780
3C0700
1C0700
1E0F00
1E0E00
0E0E00
0F1E00
071C00
071C00
07BC00
03B800
03B800
01F000
01F000
01F000
01E000
01E000
03C000
03C000
0F8000
FF0000
FE0000
F80000
ENDCHAR
STARTCHAR 2010
ENCODING 8208
SWIDTH 540 0
DWIDTH 21 0
BBX 11 3 5 9
BITMAP
FFE0
FFE0
FFE0
ENDCHAR
STARTCHAR 2013
ENCODING 8211
SWIDTH 540 0
DWIDTH 21 0
BBX 16 3 2 9
BITMAP
FFFF
FFFF
FFFF
ENDCHAR
STARTCHAR 2014
ENCODING 8212
SWIDTH 540 0
DWIDTH 21 0
BBX 21 3 0 9
BITMAP
FFFFF8
FFFFF8
FFFFF8
ENDCHAR
STARTCHAR 2015
ENCODING 8213
SWIDTH 540 0
DWIDTH 21 0
BBX 21 3 0 9
BITMAP
FFFFF8
FFFFF8
FFFFF8
ENDCHAR
STARTCHAR 2018
ENCODING 8216
SWIDTH 540 0
DWIDTH 21 0
BBX 9 13 8 13
BITMAP
0380
1F80
3F80
7C00
7000
F000
F000
F000
F800
FC00
FC00
7C00
3800
ENDCHAR
STARTCHAR 2019
ENCODING 8217
SWIDTH 540 0
DWIDTH 21 0
BBX 9 13 4 13
BITMAP
0E00
1F00
1F80
1F80
0F80
0780
0780
0700
0F00
1E00
FE00
F800
C000
ENDCHAR
STARTCHAR 201A
ENCODING 8218
SWIDTH 540 0
DWIDTH 21 0
BBX 9 12 4 -6
BITMAP
0E00
1F00
1F80
1F80
0F80
0780
0780
0700
1F00
FE00
FC00
E000
ENDCHAR
STARTCHAR 201C
ENCODING 8220
SWIDTH 540 0
DWIDTH 21 0
BBX 18 12 2 14
BITMAP
0701C0
1F07C0
3F0FC0
781E00
701C00
F03C00
F03C00
F03C00
F83E00
F83E00
781E00
300C00
ENDCHAR
STARTCHAR 201D
ENCODING 8221
SWIDTH 540 0
DWIDTH 21 0
BBX 18 12 1 14
BITMAP
0E0380
1E0780
1F07C0
1F07C0
0F03C0
0F03C0
0F03C0
0E0380
3E0F80
FC3F00
F83E00
C03000
ENDCHAR
STARTCHAR 201E
ENCODING 8222
SWIDTH 540 0
DWIDTH 21 0
BBX 18 12 1 -6
BITMAP
0E0380
1E0780
1F07C0
1F07C0
0F03C0
0F03C0
0F03C0
0E0380
1E0780
FC3F00
F83E00
E03800
ENDCHAR
STARTCHAR 2020
ENCODING 8224
SWIDTH 540 0
DWIDTH 21 0
BBX 14 22 3 4
BITMAP
0380
0380
0380
0380
0380
FFFC
FFFC
FFFC
0380
0380
0380
0380
0380
0380
0380
0380
0380
0380
0380
0380
0380
0380
ENDCHAR
STARTCHAR 2021
ENCODING 8225
SWIDTH 540 0
DWIDTH 21 0
BBX 14 26 3 0
BITMAP
0380
0380
0380
0380
0380
FFFC
FFFC
FFFC
0380
0380
0380
0380
0380
0380
0380
0380
0380
0380
FFFC
FFFC
FFFC
0380
0380
0380
0380
0380
ENDCHAR
STARTCHAR 2022
ENCODING 8226
SWIDTH 540 0
DWIDTH 21 0
BBX 11 11 5 5
BITMAP
1F00
3F80
7FC0
FFE0
FFE0
FFE0
FFE0
FFE0
7FC0
3F80
1F00
ENDCHAR
STARTCHAR 2026
ENCODING 8230
SWIDTH 540 0
DWIDTH 21 0
BBX 18 4 1 0
BITMAP
60C180
F1E3C0
F1E3C0
60C180
ENDCHAR
STARTCHAR 2030
ENCODING 8240
SWIDTH 540 0
DWIDTH 21 0
BBX 20 26 0 0
BITMAP
3E0000
7F0000
FF8000
E38000
E38000
E38000
E38030
FF00F0
7F07F0
1C3F80
01FE00
0FF000
7F8000
FC0000
E00000
0E0380
1F87E0
3F8FE0
71DC70
71DC70
71DC70
71DC70
71DC70
7F9FE0
3F8FE0
1E0780
ENDCHAR
STARTCHAR 2039
ENCODING 8249
SWIDTH 540 0
DWIDTH 21 0
BBX 8 16 6 2
BITMAP
06
0F
0F
1E
3C
78
F0
E0
F0
70
78
3C
1E
0F
07
02
ENDCHAR
STARTCHAR 203A
ENCODING 8250
SWIDTH 540 0
DWIDTH 21 0
BBX 9 16 6 2
BITMAP
3000
F000
7800
3C00
1E00
0F00
0700
0380
0780
0700
0F00
1E00
3C00
7800
7000
2000
ENDCHAR
STARTCHAR 203D
ENCODING 8253
SWIDTH 540 0
DWIDTH 21 0
BBX 13 30 4 0
BITMAP
1C00
1C00
1C00
1C00
FC00
FF80
FFE0
1DF0
1CF0
1C78
1C38
1C38
1C38
1C38
1C78
1FF0
1FF0
1FC0
1C00
1C00
1C00
1C00
1C00
0000
0000
1C00
3E00
3E00
3E00
1C00
ENDCHAR
STARTCHAR 2044
ENCODING 8260
SWIDTH 540 0
DWIDTH 21 0
BBX 19 26 1 0
BITMAP
0000E0
0001E0
0001C0
000380
000380
000700
000E00
000E00
001C00
003800
003800
007000
00E000
00E000
01C000
038000
038000
070000
0E0000
0E0000
1C0000
380000
380000
700000
E00000
E00000
ENDCHAR
STARTCHAR 2070
ENCODING 8304
SWIDTH 540 0
DWIDTH 21 0
BBX 13 15 4 11
BITMAP
0FC0
3FE0
7FF0
7878
F078
F038
E038
E038
E038
E038
F078
7870
7FF0
3FE0
0F80
ENDCHAR
STARTCHAR 2074
ENCODING 8308
SWIDTH 540 0
DWIDTH 21 0
BBX 13 14 4 11
BITMAP
03E0
07E0
07E0
0EE0
1CE0
1CE0
38E0
70E0
F0E0
FFF8
FFF8
FFF8
00E0
00E0
ENDCHAR
STARTCHAR 2075
ENCODING 8309
SWIDTH 540 0
DWIDTH 21 0
BBX 10 15 5 11
BITMAP
FFC0
FFC0
FFC0
E000
E000
FE00
FF80
FFC0
03C0
01C0
01C0
03C0
FF80
FF00
7800
ENDCHAR
STARTCHAR 2076
ENCODING 8310
SWIDTH 540 0
DWIDTH 21 0
BBX 12 15 4 11
BITMAP
07E0
1FE0
3FE0
7000
7000
EF00
FFE0
FFE0
E0F0
E070
F070
F0F0
7FE0
3FE0
1F80
ENDCHAR
STARTCHAR 2077
ENCODING 8311
SWIDTH 540 0
DWIDTH 21 0
BBX 11 14 5 11
BITMAP
FFE0
FFE0
FFE0
01C0
01C0
0380
0380
0700
0F00
0E00
1E00
1C00
3C00
3800
ENDCHAR
STARTCHAR 2078
ENCODING 8312
SWIDTH 540 0
DWIDTH 21 0
BBX 11 16 5 10
BITMAP
1F80
7FC0
FFE0
E0E0
E0E0
F1E0
7FC0
3F00
3FC0
73E0
F0E0
E0E0
F1E0
FFE0
7FC0
1F00
ENDCHAR
STARTCHAR 2079
ENCODING 8313
SWIDTH 540 0
DWIDTH 21 0
BBX 12 15 4 11
BITMAP
1F80
3FC0
7FE0
F0F0
E0F0
E070
F070
7FF0
7FF0
1F70
00E0
01E0
7FC0
7F80
7E00
ENDCHAR
STARTCHAR 207A
ENCODING 8314
SWIDTH 540 0
DWIDTH 21 0
BBX 15 13 3 12
BITMAP
0380
0380
0380
0380
0380
FFFE
FFFE
FFFE
0380
0380
0380
0380
0380
ENDCHAR
STARTCHAR 207B
ENCODING 8315
SWIDTH 540 0
DWIDTH 21 0
BBX 15 3 3 18
BITMAP
FFFE
FFFE
FFFE
ENDCHAR
STARTCHAR 207C
ENCODING 8316
SWIDTH 540 0
DWIDTH 21 0
BBX 15 9 3 14
BITMAP
FFFE
FFFE
FFFE
0000
0000
0000
FFFE
FFFE
FFFE
ENDCHAR
STARTCHAR 207D
ENCODING 8317
SWIDTH 540 0
DWIDTH 21 0
BBX 10 24 6 7
BITMAP
0180
03C0
0FC0
1F00
1E00
3C00
7800
7000
7000
F000
E000
E000
E000
E000
F000
7000
7000
7800
3C00
1E00
1F00
0FC0
03C0
0180
ENDCHAR
STARTCHAR 207E
ENCODING 8318
SWIDTH 540 0
DWIDTH 21 0
BBX 10 24 4 7
BITMAP
6000
7800
FC00
3E00
0F00
0700
0780
0380
03C0
01C0
01C0
01C0
01C0
01C0
01C0
03C0
0380
0780
0700
0F00
3E00
FC00
7800
6000
ENDCHAR
STARTCHAR 2080
ENCODING 8320
SWIDTH 540 0
DWIDTH 21 0
BBX 13 15 4 -4
BITMAP
0FC0
3FE0
7FF0
7878
F078
F038
E038
E038
E038
E038
F078
7870
7FF0
3FE0
0F80
ENDCHAR
STARTCHAR 2081
ENCODING 8321
SWIDTH 540 0
DWIDTH 21 0
BBX 12 15 4 -4
BITMAP
0380
0F80
3F80
FF80
7380
4380
0380
0380
0380
0380
0380
0380
7FF0
7FF0
7FF0
ENDCHAR
STARTCHAR 2082
ENCODING 8322
SWIDTH 540 0
DWIDTH 21 0
BBX 12 15 5 -4
BITMAP
0E00
7F80
FFC0
61E0
00E0
00E0
01E0
03C0
07C0
0F80
1E00
7C00
FFF0
FFF0
FFF0
ENDCHAR
STARTCHAR 2083
ENCODING 8323
SWIDTH 540 0
DWIDTH 21 0
BBX 11 15 5 -4
BITMAP
7F00
FFC0
FFC0
01C0
01C0
03C0
3F80
3F80
3FC0
01E0
00E0
01E0
FFC0
FF80
FE00
ENDCHAR
STARTCHAR 2084
ENCODING 8324
SWIDTH 540 0
DWIDTH 21 0
BBX 13 15 4 -4
BITMAP
03E0
07E0
07E0
0EE0
1EE0
1CE0
38E0
70E0
70E0
FFF8
FFF8
FFF8
00E0
00E0
00E0
ENDCHAR
STARTCHAR 2085
ENCODING 8325
SWIDTH 540 0
DWIDTH 21 0
BBX 10 15 5 -4
BITMAP
FFC0
FFC0
FFC0
E000
E000
E000
FF00
FF80
FFC0
01C0
01C0
03C0
FFC0
FF80
FE00
ENDCHAR
STARTCHAR 2086
ENCODING 8326
SWIDTH 540 0
DWIDTH 21 0
BBX 12 15 4 -4
BITMAP
07E0
1FE0
3FE0
7000
7000
EF00
FFE0
FFE0
E0F0
E070
F070
F0F0
7FE0
3FC0
1F80
ENDCHAR
STARTCHAR 2087
ENCODING 8327
SWIDTH 540 0
DWIDTH 21 0
BBX 11 15 5 -4
BITMAP
FFE0
FFE0
FFE0
01E0
01C0
03C0
0380
0780
0700
0E00
0E00
1C00
3C00
3800
7800
ENDCHAR
STARTCHAR 2088
ENCODING 8328
SWIDTH 540 0
DWIDTH 21 0
BBX 11 15 5 -4
BITMAP
1F80
7FC0
FFE0
E0E0
E0E0
F9E0
7FC0
1F80
7FC0
F1E0
E0E0
F0E0
FFE0
7FC0
3F80
ENDCHAR
STARTCHAR 2089
ENCODING 8329
SWIDTH 540 0
DWIDTH 21 0
BBX 12 15 4 -4
BITMAP
1F80
3FC0
7FE0
F0F0
E0F0
E070
F070
7FF0
7FF0
1F70
00E0
01E0
7FC0
7F80
7E00
ENDCHAR
STARTCHAR 208A
ENCODING 8330
SWIDTH 540 0
DWIDTH 21 0
BBX 15 13 3 -3
BITMAP
0380
0380
0380
0380
0380
FFFE
FFFE
FFFE
0380
0380
0380
0380
0380
ENDCHAR
STARTCHAR 208B
ENCODING 8331
SWIDTH 540 0
DWIDTH 21 0
BBX 15 3 3 2
BITMAP
FFFE
FFFE
FFFE
ENDCHAR
STARTCHAR 208C
ENCODING 8332
SWIDTH 540 0
DWIDTH 21 0
BBX 15 9 3 -1
BITMAP
FFFE
FFFE
FFFE
0000
0000
0000
FFFE
FFFE
FFFE
ENDCHAR
STARTCHAR 208D
ENCODING 8333
SWIDTH 540 0
DWIDTH 21 0
BBX 10 24 6 -8
BITMAP
0180
07C0
0F80
1F00
3C00
3800
7800
7000
F000
F000
E000
E000
E000
E000
F000
7000
7000
7800
3C00
1E00
0F00
07C0
0380
0080
ENDCHAR
STARTCHAR 208E
ENCODING 8334
SWIDTH 540 0
DWIDTH 21 0
BBX 10 23 4 -8
BITMAP
6000
7800
7C00
1E00
0F00
0780
0380
03C0
01C0
01C0
01C0
01C0
01C0
01C0
01C0
03C0
0380
0780
0F00
1F00
3E00
FC00
7000
ENDCHAR
STARTCHAR 20AC
ENCODING 8364
SWIDTH 540 0
DWIDTH 21 0
BBX 18 24 1 0
BITMAP
007F00
01FFC0
03FFC0
078040
0F0000
0E0000
1E0000
FFFC00
FFFC00
FFFC00
1C0000
1C0000
1C0000
FFFC00
FFFC00
FFFC00
1C0000
1E0000
0E0000
0F0000
078040
07FFC0
01FFC0
007F00
ENDCHAR
STARTCHAR 2113
ENCODING 8467
SWIDTH 540 0
DWIDTH 21 0
BBX 17 26 2 0
BITMAP
01F000
03FC00
07FC00
0F1E00
0F0E00
0E0E00
0E0E00
0E1E00
0E1C00
0E3C00
0E7800
0EF000
0FE000
0F8000
3F0000
FE0000
EE0000
8E0000
0E0000
0E0000
0E0000
0F0000
078300
07FF80
03FF00
00FC00
ENDCHAR
STARTCHAR 2116
ENCODING 8470
SWIDTH 540 0
DWIDTH 21 0
BBX 20 24 1 0
BITMAP
C0C1C0
E0C3E0
E0C7F0
E0C630
F0C630
F0C630
F8C630
F8C7F0
D8C3E0
DCC1C0
DCC000
CCC000
CEC7F0
CEC7F0
C6C000
C7C000
C7C000
C3C000
C3C000
C3C000
C1C000
C1C000
C1C000
C0C000
ENDCHAR
STARTCHAR 2117
ENCODING 8471
SWIDTH 540 0
DWIDTH 21 0
BBX 21 24 0 0
BITMAP
01FC00
07FF00
0FFF80
1E03C0
3C01E0
7BF8F0
7BFEF0
738F70
F38778
F38778
E38738
E38E38
E3FE38
E3F838
F38078
F38078
738070
7800F0
7800F0
3C01E0
1E03C0
0FFF80
07FF00
01FC00
ENDCHAR
STARTCHAR 2122
ENCODING 8482
SWIDTH 540 0
DWIDTH 21 0
BBX 20 10 0 14
BITMAP
FF30E0
FF78E0
3879E0
3879F0
387DF0
386F70
386F30
386F30
384F30
38C630
ENDCHAR
STARTCHAR 2126
ENCODING 8486
SWIDTH 540 0
DWIDTH 21 0
BBX 19 24 1 0
BITMAP
03F800
0FFE00
1FFF00
3E0780
3803C0
7803C0
7001C0
F001E0
F001E0
E000E0
E000E0
E000E0
E000E0
E000E0
F001E0
F001E0
7001C0
7001C0
380380
3C0780
1E0F00
FF1FE0
FF1FE0
FF1FE0
ENDCHAR
STARTCHAR 212E
ENCODING 8494
SWIDTH 540 0
DWIDTH 21 0
BBX 20 18 0 0
BITMAP
01FC00
0E0700
180180
3000C0
7000E0
7000E0
F000F0
F000F0
FFFFF0
F00000
F00000
F00000
700000
700000
3000C0
180180
0E0700
01FC00
ENDCHAR
STARTCHAR 2202
ENCODING 8706
SWIDTH 540 0
DWIDTH 21 0
BBX 16 26 2 0
BITMAP
1F80
1FE0
1FF0
00F8
003C
003C
001E
001E
000E
000F
07EF
1FFF
3FFF
781F
7007
F007
E007
E007
E00F
E00E
F00E
701E
783C
3FFC
1FF8
07E0
ENDCHAR
STARTCHAR 2206
ENCODING 8710
SWIDTH 540 0
DWIDTH 21 0
BBX 19 24 1 0
BITMAP
01F000
01F000
01F800
03B800
03B800
07BC00
071C00
071C00
0F1E00
0E1E00
0E0E00
1E0F00
1C0F00
1C0700
3C0780
380780
380380
7803C0
7803C0
7001C0
F001E0
FFFFE0
FFFFE0
FFFFE0
ENDCHAR
STARTCHAR 220F
ENCODING 8719
SWIDTH 540 0
DWIDTH 21 0
BBX 19 30 1 -5
BITMAP
FFFFE0
FFFFE0
FFFFE0
1C0380
1C0380
1C0380
1C0380
1C0380
1C0380
1C0380
1C0380
1C0380
1C0380
1C0380
1C0380
1C0380
1C0380
1C0380
1C0380
1C0380
1C0380
1C0380
1C0380
1C0380
1C0380
1C0380
1C0380
1C0380
1C0380
1C0380
ENDCHAR
STARTCHAR 2211
ENCODING 8721
SWIDTH 540 0
DWIDTH 21 0
BBX 17 30 2 -4
BITMAP
7FFF00
7FFF00
7FFF00
380000
3C0000
1E0000
0E0000
0F0000
078000
038000
03C000
01E000
00E000
00F000
007800
00F000
00E000
01E000
03C000
038000
078000
0F0000
0E0000
1E0000
3C0000
380000
780000
FFFF80
FFFF80
FFFF80
ENDCHAR
STARTCHAR 2212
ENCODING 8722
SWIDTH 540 0
DWIDTH 21 0
BBX 16 3 2 9
BITMAP
FFFF
FFFF
FFFF
ENDCHAR
STARTCHAR 2219
ENCODING 8729
SWIDTH 540 0
DWIDTH 21 0
BBX 6 6 7 7
BITMAP
78
FC
FC
FC
FC
78
ENDCHAR
STARTCHAR 221A
ENCODING 8730
SWIDTH 540 0
DWIDTH 21 0
BBX 19 26 1 0
BITMAP
0001E0
0001E0
0001C0
0003C0
0003C0
000380
000380
000780
000700
000700
300F00
F00E00
780E00
781E00
381C00
3C1C00
3C3C00
1E3C00
1E3800
0F7800
0F7800
077000
07F000
03F000
03E000
01E000
ENDCHAR
STARTCHAR 221E
ENCODING 8734
SWIDTH 540 0
DWIDTH 21 0
BBX 21 12 0 4
BITMAP
0C01C0
3F07E0
7F8FF0
F3DC78
F0F878
E0F038
E07038
E0F838
F1DC78
7F9FF0
7F0FF0
1E03C0
ENDCHAR
STARTCHAR 222B
ENCODING 8747
SWIDTH 540 0
DWIDTH 21 0
BBX 17 34 2 -8
BITMAP
001F80
007F80
00FF80
00E000
01E000
01C000
01C000
01C000
01C000
01C000
01C000
01C000
01C000
01C000
01C000
01C000
01C000
01C000
01C000
01C000
01C000
01C000
01C000
01C000
01C000
01C000
01C000
01C000
01C000
01C000
03C000
FF8000
FF0000
FE0000
ENDCHAR
STARTCHAR 2248
ENCODING 8776
SWIDTH 540 0
DWIDTH 21 0
BBX 16 12 2 4
BITMAP
1C00
7F81
FFFF
61FF
003C
0000
0000
1C00
7F81
FFFF
61FF
003C
ENDCHAR
STARTCHAR 2260
ENCODING 8800
SWIDTH 540 0
DWIDTH 21 0
BBX 16 20 2 1
BITMAP
0038
0038
0070
0070
0070
FFFF
FFFF
FFFF
01C0
01C0
0380
0380
FFFF
FFFF
FFFF
0E00
0E00
0E00
1C00
1C00
ENDCHAR
STARTCHAR 2264
ENCODING 8804
SWIDTH 540 0
DWIDTH 21 0
BBX 16 23 2 1
BITMAP
000C
001C
007C
00F8
03E0
07C0
1F00
3E00
7800
3E00
1F00
07C0
03E0
00F8
007C
001C
000C
0000
0000
0000
FFFF
FFFF
FFFF
ENDCHAR
STARTCHAR 2265
ENCODING 8805
SWIDTH 540 0
DWIDTH 21 0
BBX 16 23 2 1
BITMAP
3000
3800
3E00
1F00
07C0
03E0
00F8
007C
001E
007C
00F8
03E0
07C0
1F00
3E00
3800
3000
0000
0000
0000
FFFF
FFFF
FFFF
ENDCHAR
STARTCHAR 25CA
ENCODING 9674
SWIDTH 540 0
DWIDTH 21 0
BBX 17 24 2 0
BITMAP
03C000
03E000
07F000
07F000
0F7800
1E3800
1C3C00
3C1E00
381E00
780F00
F00700
E00780
F00380
700780
780F00
380E00
3C1E00
1E1C00
0E3C00
0F7800
077000
07F000
03E000
01C000
ENDCHAR
STARTCHAR FB01
ENCODING 64257
SWIDTH 540 0
DWIDTH 21 0
BBX 17 26 1 0
BITMAP
00FE00
03FF00
0FFF00
0F0000
1E0000
1E0000
1C0000
1C0000
1C0000
FFFF80
FFFF80
FFFF80
1C0380
1C0380
1C0380
1C0380
1C0380
1C0380
1C0380
1C0380
1C0380
1C0380
1C0380
1C0380
1C0380
1C0380
ENDCHAR
STARTCHAR FB02
ENCODING 64258
SWIDTH 540 0
DWIDTH 21 0
BBX 17 26 1 0
BITMAP
00FF80
03FF80
07FF80
0F0380
1E0380
1E0380
1C0380
1C0380
1C0380
FFE380
FFE380
FFE380
1C0380
1C0380
1C0380
1C0380
1C0380
1C0380
1C0380
1C0380
1C0380
1C0380
1C0380
1C0380
1C0380
1C0380
ENDCHAR
ENDFONT
